<?xml version="1.0" encoding="UTF-8"?>
<svg width="316px" height="319px" viewBox="0 0 316 319" version="1.1" xmlns="http://www.w3.org/2000/svg" xmlns:xlink="http://www.w3.org/1999/xlink">
    <!-- Generator: Sketch 52.3 (67297) - http://www.bohemiancoding.com/sketch -->
    <title>humain-avant-tout_logo-black</title>
    <desc>Created with Sketch.</desc>
    <g id="r" stroke="none" stroke-width="1" fill="none" fill-rule="evenodd">
        <g id="Artboard" transform="translate(-39.000000, -38.000000)" fill="#FFFFFF">
            <g id="humain-avant-tout_logo-black" transform="translate(39.000000, 37.000000)">
                <path d="M175.872645,195.468444 C176.653445,194.922804 177.3014,194.481094 177.93851,194.022974 C178.62171,193.527932 179.26831,192.976821 179.979976,192.525539 C180.846175,191.979897 180.764842,191.436991 180.143998,190.761436 C179.315754,189.865709 178.492933,188.96588 177.731111,188.016821 C176.512467,186.489299 176.535512,184.897505 177.731111,183.880068 C179.018888,182.787419 180.585909,182.993914 181.941464,184.448957 C182.696507,185.268103 183.489507,186.057162 184.157796,186.944684 C184.533284,187.454769 184.651218,187.702291 185.113462,187.026735 C186.609994,184.841436 187.930304,182.57135 188.956459,180.120752 C190.862369,175.586051 191.765169,170.844855 192.005101,165.945026 C192.278923,160.372376 191.747546,154.883145 189.720992,149.694769 C187.070883,142.906393 182.696507,137.40759 176.753756,133.142291 C172.045914,129.759043 166.920562,127.238701 161.324833,126.106393 C153.028838,124.417505 144.88331,125.529299 137.037359,128.774427 C128.65461,132.242461 123.282546,138.546735 120.102415,146.939213 C118.370016,151.510838 117.45095,156.262974 116.960239,161.127248 C116.549506,165.207932 116.36244,169.321436 117.347928,173.296821 C119.13726,180.521436 123.33948,186.184342 129.226653,190.601436 C135.524561,195.326222 142.603267,198.173402 150.290618,199.598359 C152.882438,200.076991 155.475614,200.418872 158.212479,200.182291 C157.717702,199.415111 157.300191,198.750495 156.877258,198.092718 C156.415014,197.377505 155.909391,196.688274 155.491881,195.951179 C154.510459,194.224 154.843926,192.633573 156.314702,191.774769 C157.56859,191.04588 159.3403,191.571009 160.266145,193.015111 C161.293655,194.616478 162.281854,196.243829 163.251076,197.88212 C163.955964,199.085539 164.639164,199.855453 166.334963,199.367248 C167.592917,199.00212 168.779028,198.355282 170.126449,198.224 C170.863871,198.151522 170.754071,197.640068 170.44636,197.031522 C169.527294,195.242804 168.392695,193.566222 167.698651,191.665368 C167.140162,190.126906 167.634939,188.825026 169.074539,188.098872 C170.293182,187.48759 171.917137,188.00588 172.63287,189.310495 C173.725447,191.311179 174.759735,193.343316 175.872645,195.468444 M154.449459,119.964855 C163.55472,119.896478 171.857492,123.088274 179.456732,128.435282 C184.828795,132.216478 189.140814,136.986393 192.322301,142.765539 C196.16801,149.744 197.73232,157.300923 197.443587,165.222974 C197.202298,171.936137 195.902321,178.441436 192.876723,184.515966 C189.519014,191.255111 184.613262,196.522804 178.179799,200.328615 C174.330024,202.605539 170.16576,204.16041 165.799518,204.979556 C161.665077,205.757675 157.46828,205.890325 153.251149,205.449983 C147.618819,204.864684 142.188467,203.494427 137.021093,201.240752 C127.353277,197.026051 119.282305,190.926906 114.490419,181.116308 C111.333332,174.653402 110.838554,167.781607 111.570554,160.784 C112.143954,155.311179 113.171464,149.919043 115.172263,144.745709 C118.306305,136.649983 123.236457,130.137846 130.827563,125.789128 C138.07707,121.635966 145.944709,120.13306 154.449459,119.964855" id="Fill-1" fill-rule="nonzero"></path>
                <path d="M173.830095,159.867487 C173.085896,153.987145 170.366653,149.374495 165.502923,146.037743 C162.124881,143.715692 158.382195,143.037402 154.354842,143.096205 C150.923933,143.149539 147.716691,143.907145 144.785981,145.613812 C138.166808,149.468855 134.988032,155.487316 134.639654,163.040137 C134.357699,169.174838 135.915231,174.685949 140.95925,178.655863 C144.94187,181.794325 149.655133,182.557402 154.53513,182.623043 C161.193615,182.825436 166.670056,180.497914 170.388342,174.792615 C173.321763,170.281162 174.517362,165.295179 173.830095,159.867487" id="Fill-9"></path>
                <path d="M156.124518,206.691829 C150.981544,206.389607 145.633881,205.712684 140.237417,204.676103 C130.184624,202.750632 119.811919,199.664137 108.526927,195.244308 C95.4051577,190.105162 83.3230988,183.945846 72.6128614,176.940034 C67.7857316,173.783795 58.3320929,164.948239 57.60416,163.854222 L57.4930049,163.586188 L57.3574493,163.450804 C57.1432717,163.08294 56.804383,162.044991 56.789472,161.630632 C57.1364939,160.762257 58.1477378,159.747556 58.9624258,158.92841 L59.4422921,158.447043 C60.5253806,157.33388 83.7487432,138.667213 95.3550023,132.922257 C102.15582,129.555419 109.481238,126.660376 117.136055,124.313709 C125.711293,121.685333 134.252644,119.934906 142.521527,119.104821 C150.703655,118.291145 158.977961,118.218667 167.1262,118.886017 C175.895283,119.605333 184.806699,121.227213 193.601538,123.703795 C198.579135,125.112342 203.371021,126.793026 207.840284,128.706188 C215.126391,131.820034 221.473098,135.170461 227.243694,138.950291 C234.243779,143.539692 239.569753,147.795419 244.003772,152.347897 C246.906014,155.323624 248.870213,157.800205 250.373524,160.369778 C250.95099,161.361231 250.735457,161.953368 249.688968,163.478154 C246.500703,168.144137 242.309329,171.962257 237.00911,176.261743 C228.878493,182.850461 219.508899,188.822427 209.153817,194.005333 C200.878156,198.146188 192.458806,201.358495 184.145189,203.55747 C174.177795,206.195419 165.02509,207.212855 156.124518,206.691829 Z M258.586829,159.930804 L258.594963,159.85012 L258.486518,159.53559 C258.432296,159.376957 258.379429,159.218325 258.326563,159.058325 C258.200496,158.660376 258.056807,158.207726 257.837207,157.76465 C255.75372,153.395419 252.523433,149.857641 249.642879,146.973539 C243.580839,140.905846 236.249999,135.353709 227.235561,129.997128 C219.964365,125.678495 211.965237,121.949265 203.449643,118.914735 C194.965226,115.887043 186.29781,113.735932 177.69546,112.52294 C172.078041,111.732513 166.036334,110.989949 159.939049,110.912 C158.822072,110.896957 157.709162,110.89012 156.600318,110.89012 C150.6657,110.89012 145.848058,111.143111 141.439795,111.679179 C135.903709,112.354735 131.392423,113.074051 127.244426,113.94653 C123.816228,114.668581 120.106075,115.619009 115.562256,116.933196 C108.315461,119.033709 101.154065,121.748239 93.6686921,125.227213 C87.956385,127.880205 82.2372996,130.985846 76.6700366,134.452513 C66.9927319,140.476444 59.2525146,146.555077 53.0115412,153.034393 C51.4065642,154.697299 51.0866534,155.21559 49.3068101,158.102427 L48.7754326,158.968068 C45.9030123,163.613539 51.7305419,169.685333 54.5311179,172.599522 C55.1370508,173.236787 67.8291092,183.117128 74.4293048,187.115761 C83.9642761,192.886701 94.4386472,198.003966 105.573173,202.319863 C114.030479,205.596444 121.914385,208.142769 129.676291,210.102427 C136.414753,211.802257 143.231838,213.052171 149.932344,213.816615 C153.242609,214.196787 156.636918,214.389607 160.012249,214.389607 C166.634134,214.389607 173.514929,213.645675 180.451302,212.178325 C187.620831,210.663111 194.825604,208.428581 202.473643,205.344821 C208.389284,202.959863 214.345591,200.088068 220.181254,196.81012 C228.334916,192.227556 235.377022,187.52465 241.700684,182.430632 C246.690482,178.407385 251.872767,173.920547 255.91232,168.395761 C257.604052,166.172171 258.594963,163.795419 258.868785,161.33388 L258.899962,161.042598 L258.586829,159.930804 Z" id="Fill-7" fill-rule="nonzero"></path>
                <path d="M301.543408,160.639453 C300.24072,168.670906 166.679273,306.548513 157.931879,305.520137 C149.181774,304.489026 14.7961503,165.577573 14.316284,160.639453 C13.8404843,155.702701 149.89344,14.8753505 157.931879,15.7601368 C165.966252,16.642188 302.848807,152.606632 301.543408,160.639453 Z M242.621513,234.471932 L245.691844,231.377231 L255.483016,241.250735 C257.390281,243.17347 260.704612,243.176205 262.613233,241.250735 C264.577432,239.267829 264.577432,236.040478 262.613233,234.057573 L252.820706,224.179966 C252.820706,224.179966 314.943066,165.937231 315.806554,160.639453 C316.668687,155.341675 247.631643,91.8627009 247.631643,91.8627009 L257.696636,81.707487 C259.66219,79.7259489 259.66219,76.4985982 257.696636,74.5143246 C255.788015,72.5915897 252.469618,72.5915897 250.565063,74.5143246 L240.501426,84.6695386 L238.339316,82.4883417 L260.609723,60.0213332 C262.577989,58.0370596 262.577989,54.8083417 260.609723,52.8268036 C258.703814,50.9013333 255.382705,50.9013333 253.479506,52.8268036 L231.209098,75.2938121 L228.137411,72.1963763 L238.02076,62.2257775 C239.983604,60.2442395 239.983604,57.0168888 238.02076,55.0326152 C236.113495,53.1098803 232.79103,53.1098803 230.886476,55.0326152 L221.004483,65.0018462 C221.004483,65.0018462 163.819053,0.867829058 157.931879,1.3697094 C152.040638,1.87158974 92.9411659,66.9300511 92.9411659,66.9300511 L82.7867061,56.6845812 C80.8835071,54.7632134 77.5623985,54.7632134 75.6551329,56.6845812 C73.6909342,58.6688547 73.6909342,61.8962049 75.6551329,63.8791112 L85.8109486,74.1245812 L83.6515499,76.3044103 L61.29032,53.7457775 C59.3830545,51.8230426 56.0578792,51.8257775 54.1601027,53.7430426 C53.2044366,54.7030426 52.6798369,55.9844103 52.6798369,57.3423592 C52.6798369,58.7016754 53.2044366,59.9803076 54.1573915,60.9389404 L76.5186214,83.4989404 L73.4482901,86.5950085 L63.4754741,76.5368888 C61.5709197,74.6155215 58.2498111,74.6127866 56.3439009,76.5368888 C54.3797022,78.5197951 54.3797022,81.7457775 56.3439009,83.7314188 L66.3180723,93.7909058 C66.3180723,93.7909058 2.33589181,155.850393 0.0544932975,160.639453 C-2.23097188,165.42988 68.2294044,229.417573 68.2294044,229.417573 L57.6208335,240.118427 C56.6665228,241.078427 56.1405677,242.35706 56.1405677,243.716376 C56.1405677,245.078427 56.6665228,246.35706 57.6181223,247.315692 C59.5240325,249.23706 62.8437858,249.23706 64.7524067,247.315692 L75.3609775,236.610735 L77.5190204,238.790564 L54.70368,261.810051 C52.7381254,263.795692 52.7381254,267.021675 54.70368,269.003213 C56.6068785,270.927316 59.9306988,270.927316 61.8325419,269.003213 L84.6519494,245.986461 L87.7249915,249.083897 L77.2939985,259.604239 C75.3297997,261.587145 75.3297997,264.815863 77.298065,266.800137 C79.2080418,268.722872 82.5264397,268.720137 84.4296382,266.797402 L94.8552093,256.27706 C94.8552093,256.27706 152.750949,320.558769 157.931879,319.911932 C163.112809,319.260991 226.196257,251.040821 226.196257,251.040821 L236.171784,261.10441 C238.079049,263.02441 241.39338,263.027145 243.302002,261.101675 C245.2662,259.117402 245.2662,255.891419 243.302002,253.905778 L233.326474,243.847658 L235.488584,241.666461 L257.670881,264.041846 C259.579502,265.965949 262.893833,265.963213 264.801098,264.041846 C266.763942,262.057573 266.763942,258.832957 264.801098,256.847316 L242.621513,234.471932 Z" id="Fill-23" fill-rule="nonzero"></path>
            </g>
        </g>
    </g>
</svg>