<?xml version="1.0" encoding="UTF-8"?>
<svg width="90px" height="153px" viewBox="0 0 90 153" version="1.1" xmlns="http://www.w3.org/2000/svg" xmlns:xlink="http://www.w3.org/1999/xlink">
    <!-- Generator: Sketch 52.3 (67297) - http://www.bohemiancoding.com/sketch -->
    <title>humain-avant-tout_sprite</title>
    <desc>Created with Sketch.</desc>
    <defs>
        <polygon id="path-1" points="0 0 87.5628685 0 87.5628685 63.737503 0 63.737503"></polygon>
        <polygon id="path-3" points="0 0 87.5628685 0 87.5628685 63.737503 0 63.737503"></polygon>
    </defs>
    <g id="humain-avant-tout_sprite" stroke="none" stroke-width="1" fill="none" fill-rule="evenodd">
        <g id="paper-plane" transform="translate(0.000000, 2.000000)" fill="#1A1A1A" fill-rule="nonzero">
            <path d="M0.00211241386,10.50279 C0.0314832839,11.005025 0.359458,11.4276981 0.834287066,11.5719042 L9.6259675,14.2720392 L9.94904708,20.4281482 C9.96373251,20.6718068 10.1252723,20.8856296 10.3553441,20.9651916 C10.418981,20.9900548 10.487513,21 10.5511499,21 C10.72248,21 10.8840198,20.9303833 11.0015033,20.7961224 L14.1099203,17.3003675 L18.5155508,20.3983125 C18.7113566,20.5375459 18.9414285,20.6121353 19.1812906,20.6121353 C19.734442,20.6121353 20.2141662,20.2143253 20.3316496,19.6573914 L23.988323,0.726610444 C24.0323793,0.507814972 23.9491618,0.279074251 23.7827269,0.139840769 C23.6113968,-0.00436533795 23.381325,-0.0391737085 23.1757289,0.0453609057 L0.707013295,9.33422323 C0.251764809,9.54307345 -0.0272584562,10.0005549 0.00211241386,10.50279 Z M11.0651401,18.9015525 L10.8644392,15.0179329 L13.1162059,16.5992274 L11.0651401,18.9015525 Z M19.16171,19.3739518 L11.1434625,13.7349958 L22.3876105,2.68582445 L19.16171,19.3739518 Z M21.154034,2.19850726 L10.0371597,13.123363 L1.25526954,10.4282006 L21.154034,2.19850726 Z" id="Shape"></path>
        </g>
        <g id="left-arrow-copy" transform="translate(80.500000, 12.500000) rotate(-180.000000) translate(-80.500000, -12.500000) translate(72.000000, 4.000000)" fill="#1A1A1A" fill-rule="nonzero">
            <path d="M8.08715217,0.723847826 C8.40567391,0.405326087 8.90713043,0.405326087 9.22565217,0.723847826 C9.53341304,1.0316087 9.53341304,1.54382609 9.22565217,1.85086957 L3.45280435,7.62371739 L15.9125658,7.62371739 C16.356631,7.62371739 16.7210658,7.97667391 16.7210658,8.42073913 C16.7210658,8.86480435 16.356631,9.22923913 15.9125658,9.22923913 L3.45280435,9.22923913 L9.22565217,14.9913261 C9.53341304,15.3098478 9.53341304,15.8227826 9.22565217,16.1298261 C8.90713043,16.4483478 8.40567391,16.4483478 8.08715217,16.1298261 L0.947673913,8.99034783 C0.639913043,8.68258696 0.639913043,8.17036957 0.947673913,7.86332609 L8.08715217,0.723847826 Z" id="Shape"></path>
        </g>
        <g id="chat" transform="translate(36.000000, 0.000000)" fill="#1A1A1A" fill-rule="nonzero">
            <path d="M20.4644184,3.51464435 C18.1999833,1.25020921 15.1924519,0 11.9891046,0 C8.78575732,0 5.77822594,1.25020921 3.51379079,3.51464435 C-0.854410042,7.88284519 -1.17072803,14.8619247 2.72048536,19.5916318 C2.18324686,20.6912134 1.55061088,21.4242678 0.832619247,21.7757322 C0.395799163,21.9916318 0.149774059,22.4635983 0.220066946,22.9456067 C0.295380753,23.432636 0.66692887,23.809205 1.15395816,23.8845188 C1.42006695,23.9246862 1.70625941,23.9497908 2.00249372,23.9497908 C3.47362343,23.9497908 5.02006695,23.4426778 6.31044351,22.5539749 C8.04768201,23.4878661 10.0008201,23.9799163 11.9891046,23.9799163 C15.1924519,23.9799163 18.1999833,22.734728 20.4644184,20.4702929 C22.7288536,18.2058577 23.9740418,15.1933054 23.9740418,11.9949791 C23.9740418,8.79665272 22.7288536,5.7790795 20.4644184,3.51464435 Z M19.5054226,19.5062762 C17.4970544,21.5146444 14.8259247,22.6192469 11.9891046,22.6192469 C10.0911967,22.6192469 8.22843515,22.1121339 6.60667782,21.158159 C6.50123849,21.0979079 6.3807364,21.0627615 6.26525523,21.0627615 C6.11964854,21.0627615 5.96902092,21.1129707 5.84851883,21.2033473 C4.31211715,22.3933054 2.76567364,22.5690377 2.08784937,22.5841004 C2.89621757,21.98159 3.57404184,21.0476987 4.14140586,19.7472803 C4.24684519,19.5062762 4.2016569,19.2251046 4.02592469,19.0242678 C0.310443515,14.8267782 0.506259414,8.43012552 4.47278661,4.46359833 C6.48115481,2.45523013 9.15228452,1.35062762 11.9891046,1.35062762 C14.8259247,1.35062762 17.4970544,2.45523013 19.5054226,4.46359833 C23.6527029,8.61589958 23.6527029,15.3640167 19.5054226,19.5062762 Z" id="Shape"></path>
            <path d="M17.0100251,8.0334728 L6.9681841,8.0334728 C6.59161506,8.0334728 6.29035983,8.33472803 6.29035983,8.71129707 C6.29035983,9.08786611 6.59161506,9.38912134 6.9681841,9.38912134 L17.0100251,9.38912134 C17.3865941,9.38912134 17.6878494,9.08786611 17.6878494,8.71129707 C17.6878494,8.33472803 17.3815732,8.0334728 17.0100251,8.0334728 Z" id="Shape"></path>
            <path d="M17.0100251,11.3121339 L6.9681841,11.3121339 C6.59161506,11.3121339 6.29035983,11.6133891 6.29035983,11.9899582 C6.29035983,12.3665272 6.59161506,12.6677824 6.9681841,12.6677824 L17.0100251,12.6677824 C17.3865941,12.6677824 17.6878494,12.3665272 17.6878494,11.9899582 C17.6878494,11.6133891 17.3815732,11.3121339 17.0100251,11.3121339 Z" id="Shape"></path>
            <path d="M17.0100251,14.590795 L6.9681841,14.590795 C6.59161506,14.590795 6.29035983,14.8920502 6.29035983,15.2686192 C6.29035983,15.6451883 6.59161506,15.9464435 6.9681841,15.9464435 L17.0100251,15.9464435 C17.3865941,15.9464435 17.6878494,15.6451883 17.6878494,15.2686192 C17.6878494,14.8920502 17.3815732,14.590795 17.0100251,14.590795 Z" id="Shape"></path>
        </g>
        <g id="Group-3" transform="translate(1.000000, 25.000000)">
            <mask id="mask-2" fill="white">
                <use xlink:href="#path-1"></use>
            </mask>
            <g id="Clip-2"></g>
            <path d="M44.8118851,55.8461091 C47.2321282,56.3261091 49.0008796,58.4395636 49.0008796,60.9501091 C49.0008796,61.5004121 48.9148243,62.0390788 48.7446586,62.5578667 L44.8118851,55.8461091 Z M42.7509348,55.8461091 L38.8176751,62.556897 C38.6470232,62.0381091 38.5614541,61.4994424 38.5614541,60.9501091 C38.5614541,58.4395636 40.3302055,56.3261091 42.7509348,55.8461091 Z M79.877211,59.081503 L44.4662055,0.977260606 C67.7336972,1.34526061 86.5904928,20.4022303 86.5904928,43.6604121 C86.5904928,50.3411394 85.0823381,56.7348364 82.1068685,62.6718061 C81.4252331,61.4446545 80.6745591,60.2359273 79.877211,59.081503 Z M69.5607912,44.0216242 L75.3853215,53.5789576 C73.8747359,52.0075636 72.246979,50.5462303 70.5229569,49.2158061 C70.3741834,47.4504727 70.0518409,45.7113212 69.5607912,44.0216242 Z M64.8953326,59.0635636 L54.8623602,42.521503 C60.1997304,43.9474424 65.150095,46.3678061 69.5870453,49.7219879 C69.6322608,50.380897 69.653653,50.9399273 69.653653,51.4742303 C69.653653,55.3127758 68.822758,59.0068364 67.1838188,62.460897 C66.5162829,61.2822303 65.7437304,60.1355636 64.8953326,59.0635636 Z M57.3462939,62.0138667 L50.4468022,50.6373818 C53.5491669,51.4616242 56.4361503,52.8405333 59.0377414,54.7416242 C59.0970564,55.2967758 59.1272,55.8451394 59.1272,56.3726545 C59.1272,58.5699879 58.669211,60.6873212 57.7644155,62.6722909 C57.6248796,62.4405333 57.4843713,62.2189576 57.3462939,62.0138667 Z M33.5712221,58.3653818 L38.4578961,50.3042909 C41.928305,49.5876848 45.590758,49.5784727 49.1170785,50.3193212 L54.0022939,58.3736242 C51.1828906,56.1059879 47.7061613,54.841503 44.0524597,54.7818667 L44.0485702,54.7818667 L43.5103602,54.7818667 C39.8610343,54.841503 36.3877083,56.1030788 33.5712221,58.3653818 Z M28.5318851,54.6907152 C31.1286144,52.8002909 34.0194873,51.4315636 37.1315757,50.6170182 L30.2836199,61.9139879 C30.118316,62.1559273 29.957874,62.4065939 29.7984044,62.6727758 C28.8936088,60.6863515 28.4351337,58.569503 28.4351337,56.3726545 C28.4351337,55.8305939 28.4677083,55.2652606 28.5318851,54.6907152 Z M28.1118188,51.833503 C27.8915757,52.5918061 27.726758,53.3685333 27.6188243,54.1593212 C26.9765702,54.6422303 26.3547359,55.1561697 25.7576972,55.6967758 L28.1118188,51.833503 Z M43.038758,0.978715152 L7.37396243,59.5004121 C6.69086851,60.5219879 6.04034917,61.5891394 5.44574144,62.6635636 L5.44428287,62.6664727 C2.51743204,56.7978667 0.972327072,50.236897 0.972327072,43.6604121 C0.972327072,20.4327758 19.8028685,1.37677576 43.038758,0.978715152 Z M44.661653,41.0994424 C51.6578961,41.4955636 57.4970122,46.5787152 58.839863,53.420897 C56.062758,51.5348364 53.0031779,50.204897 49.7350232,49.4640485 L44.661653,41.0994424 Z M42.9011669,41.0994424 L37.8409238,49.4465939 C34.5630453,50.1782303 31.5034652,51.4936242 28.7365702,53.3612606 C30.1012994,46.5530182 35.9350674,41.4950788 42.9011669,41.0994424 Z M25.1062055,32.2718061 L43.7524818,1.67398788 L62.3161061,32.1336242 C57.3720619,27.4247758 50.782758,24.7425939 43.9207028,24.7067152 L43.6411448,24.7067152 C36.7022718,24.7425939 30.0662939,27.4742303 25.1062055,32.2718061 Z M42.9035978,25.6953212 L33.3675094,41.3428364 C27.8351779,42.6839273 22.7005481,45.049503 18.0963492,48.377503 C19.6122829,35.7598061 30.1445702,26.1205333 42.9035978,25.6953212 Z M50.6753105,41.625503 C51.6350453,41.7811394 52.5870011,41.9682909 53.5224265,42.1859879 L54.9250785,44.4982303 C53.6663381,43.3200485 52.2350011,42.3518061 50.6753105,41.625503 Z M36.8870232,41.6250182 C35.2738519,42.3741091 33.8021613,43.3782303 32.5171669,44.6053818 L33.9859403,42.1947152 C34.9417856,41.9726545 35.9117304,41.7821091 36.8870232,41.6250182 Z M43.918758,40.1016242 L43.6421171,40.1021091 C40.6384486,40.1113212 37.6279735,40.4298667 34.6850785,41.0480485 L43.7801945,26.1234424 L52.8271779,41.0393212 C49.910537,40.4259879 46.9165923,40.1108364 43.918758,40.1016242 Z M43.7811669,41.5217455 L48.4388464,49.2007758 C46.8961724,48.9297455 45.3316199,48.7930182 43.7811669,48.7930182 C42.2312,48.7930182 40.6695646,48.9273212 39.1307801,49.1930182 L43.7811669,41.5217455 Z M69.4713326,48.4259879 C64.8428243,45.0684121 59.6897193,42.6853818 54.144747,41.3384727 L44.6572773,25.6948364 C57.439642,26.1210182 67.976305,35.7816242 69.4713326,48.4259879 Z M17.9801503,49.6652606 C22.3806365,46.3498667 27.3110674,43.9508364 32.6445481,42.5287758 L22.3271558,59.4577455 C21.6090564,60.412897 20.9536751,61.4170182 20.3726807,62.4473212 C18.7599956,59.0223515 17.9091669,55.2395636 17.9091669,51.4742303 C17.9091669,50.9287758 17.9320177,50.3518061 17.9801503,49.6652606 Z M61.6777414,55.6322909 C61.1166807,55.1290182 60.5400619,54.652897 59.9512884,54.2082909 C59.8535646,53.4829576 59.7081945,52.7678061 59.5146917,52.0657455 L61.6777414,55.6322909 Z M18.0589127,43.8354424 C17.5406365,45.5673212 17.2007912,47.3505939 17.0447249,49.1610182 C15.2944486,50.5074424 13.6409238,51.9949576 12.1065149,53.6017455 L18.0589127,43.8354424 Z M43.7811669,-0.000193939394 C19.6404818,-0.000193939394 -4.86187845e-05,19.5857455 -4.86187845e-05,43.6604121 C-4.86187845e-05,50.5753212 1.67146519,57.4722909 4.83314475,63.6061091 L4.90121105,63.737503 L5.82496796,63.737503 L5.98006188,63.7200485 L6.04861436,63.5920485 C6.12834917,63.4436848 6.20759779,63.2948364 6.28441547,63.1566545 L8.1873547,60.0327758 C10.6139182,56.4065939 13.5631337,53.1905939 16.9581834,50.4667152 C16.944084,50.8216242 16.9367912,51.1547152 16.9367912,51.4742303 C16.9367912,55.6638061 17.9470895,59.8587152 19.8587801,63.6051394 L19.925874,63.737503 L20.8569238,63.737503 L23.1269348,60.0104727 C24.3997746,58.3222303 25.8651448,56.8027152 27.4894983,55.4873212 C27.4715094,55.7922909 27.462758,56.0851394 27.462758,56.3726545 C27.462758,58.8987152 28.0388906,61.3312 29.1751116,63.6036848 L29.2422055,63.737503 L30.3147359,63.737503 L31.0970122,62.4458667 C33.149211,59.4465939 36.2462276,57.2507152 39.7234431,56.2931394 C38.3839956,57.4548364 37.5890785,59.148897 37.5890785,60.9501091 C37.5890785,61.8616242 37.7947359,62.7532606 38.2016751,63.5998061 L38.2682829,63.737503 L39.2518409,63.737503 L43.7811669,56.0099879 L48.3100066,63.737503 L49.294537,63.737503 L49.3606586,63.5998061 C49.7671116,62.7537455 49.9732552,61.8621091 49.9732552,60.9501091 C49.9732552,59.148897 49.1778519,57.4543515 47.8388906,56.2926545 C51.349653,57.2589576 54.4656309,59.4819879 56.512968,62.5137455 L57.255863,63.737503 L58.3211006,63.737503 L58.3881945,63.6036848 C59.5239293,61.3321697 60.0995757,58.8992 60.0995757,56.3726545 C60.0995757,56.1069576 60.0922829,55.833503 60.0762387,55.5464727 C61.5595978,56.7498667 62.9092552,58.1147152 64.0780508,59.5896242 L66.5940729,63.737503 L67.6311116,63.737503 L67.6986917,63.6056242 C69.6410122,59.8131394 70.6260287,55.7316848 70.6260287,51.4742303 C70.6260287,51.1658667 70.6197083,50.8478061 70.6070674,50.5137455 C73.8475094,53.1188364 76.6878188,56.1738667 79.048747,59.5905939 L81.5759514,63.737503 L82.6475094,63.737503 L82.7155757,63.6061091 C85.9317083,57.3879273 87.5628685,50.6771394 87.5628685,43.6604121 C87.5628685,19.5857455 67.9223381,-0.000193939394 43.7811669,-0.000193939394 Z" id="Fill-1" fill="#FFFFFF" mask="url(#mask-2)"></path>
        </g>
        <g id="Group-3-Copy" transform="translate(45.000000, 121.000000) rotate(-180.000000) translate(-45.000000, -121.000000) translate(1.000000, 89.000000)">
            <mask id="mask-4" fill="white">
                <use xlink:href="#path-3"></use>
            </mask>
            <g id="Clip-2"></g>
            <path d="M44.8118851,55.8461091 C47.2321282,56.3261091 49.0008796,58.4395636 49.0008796,60.9501091 C49.0008796,61.5004121 48.9148243,62.0390788 48.7446586,62.5578667 L44.8118851,55.8461091 Z M42.7509348,55.8461091 L38.8176751,62.556897 C38.6470232,62.0381091 38.5614541,61.4994424 38.5614541,60.9501091 C38.5614541,58.4395636 40.3302055,56.3261091 42.7509348,55.8461091 Z M79.877211,59.081503 L44.4662055,0.977260606 C67.7336972,1.34526061 86.5904928,20.4022303 86.5904928,43.6604121 C86.5904928,50.3411394 85.0823381,56.7348364 82.1068685,62.6718061 C81.4252331,61.4446545 80.6745591,60.2359273 79.877211,59.081503 Z M69.5607912,44.0216242 L75.3853215,53.5789576 C73.8747359,52.0075636 72.246979,50.5462303 70.5229569,49.2158061 C70.3741834,47.4504727 70.0518409,45.7113212 69.5607912,44.0216242 Z M64.8953326,59.0635636 L54.8623602,42.521503 C60.1997304,43.9474424 65.150095,46.3678061 69.5870453,49.7219879 C69.6322608,50.380897 69.653653,50.9399273 69.653653,51.4742303 C69.653653,55.3127758 68.822758,59.0068364 67.1838188,62.460897 C66.5162829,61.2822303 65.7437304,60.1355636 64.8953326,59.0635636 Z M57.3462939,62.0138667 L50.4468022,50.6373818 C53.5491669,51.4616242 56.4361503,52.8405333 59.0377414,54.7416242 C59.0970564,55.2967758 59.1272,55.8451394 59.1272,56.3726545 C59.1272,58.5699879 58.669211,60.6873212 57.7644155,62.6722909 C57.6248796,62.4405333 57.4843713,62.2189576 57.3462939,62.0138667 Z M33.5712221,58.3653818 L38.4578961,50.3042909 C41.928305,49.5876848 45.590758,49.5784727 49.1170785,50.3193212 L54.0022939,58.3736242 C51.1828906,56.1059879 47.7061613,54.841503 44.0524597,54.7818667 L44.0485702,54.7818667 L43.5103602,54.7818667 C39.8610343,54.841503 36.3877083,56.1030788 33.5712221,58.3653818 Z M28.5318851,54.6907152 C31.1286144,52.8002909 34.0194873,51.4315636 37.1315757,50.6170182 L30.2836199,61.9139879 C30.118316,62.1559273 29.957874,62.4065939 29.7984044,62.6727758 C28.8936088,60.6863515 28.4351337,58.569503 28.4351337,56.3726545 C28.4351337,55.8305939 28.4677083,55.2652606 28.5318851,54.6907152 Z M28.1118188,51.833503 C27.8915757,52.5918061 27.726758,53.3685333 27.6188243,54.1593212 C26.9765702,54.6422303 26.3547359,55.1561697 25.7576972,55.6967758 L28.1118188,51.833503 Z M43.038758,0.978715152 L7.37396243,59.5004121 C6.69086851,60.5219879 6.04034917,61.5891394 5.44574144,62.6635636 L5.44428287,62.6664727 C2.51743204,56.7978667 0.972327072,50.236897 0.972327072,43.6604121 C0.972327072,20.4327758 19.8028685,1.37677576 43.038758,0.978715152 Z M44.661653,41.0994424 C51.6578961,41.4955636 57.4970122,46.5787152 58.839863,53.420897 C56.062758,51.5348364 53.0031779,50.204897 49.7350232,49.4640485 L44.661653,41.0994424 Z M42.9011669,41.0994424 L37.8409238,49.4465939 C34.5630453,50.1782303 31.5034652,51.4936242 28.7365702,53.3612606 C30.1012994,46.5530182 35.9350674,41.4950788 42.9011669,41.0994424 Z M25.1062055,32.2718061 L43.7524818,1.67398788 L62.3161061,32.1336242 C57.3720619,27.4247758 50.782758,24.7425939 43.9207028,24.7067152 L43.6411448,24.7067152 C36.7022718,24.7425939 30.0662939,27.4742303 25.1062055,32.2718061 Z M42.9035978,25.6953212 L33.3675094,41.3428364 C27.8351779,42.6839273 22.7005481,45.049503 18.0963492,48.377503 C19.6122829,35.7598061 30.1445702,26.1205333 42.9035978,25.6953212 Z M50.6753105,41.625503 C51.6350453,41.7811394 52.5870011,41.9682909 53.5224265,42.1859879 L54.9250785,44.4982303 C53.6663381,43.3200485 52.2350011,42.3518061 50.6753105,41.625503 Z M36.8870232,41.6250182 C35.2738519,42.3741091 33.8021613,43.3782303 32.5171669,44.6053818 L33.9859403,42.1947152 C34.9417856,41.9726545 35.9117304,41.7821091 36.8870232,41.6250182 Z M43.918758,40.1016242 L43.6421171,40.1021091 C40.6384486,40.1113212 37.6279735,40.4298667 34.6850785,41.0480485 L43.7801945,26.1234424 L52.8271779,41.0393212 C49.910537,40.4259879 46.9165923,40.1108364 43.918758,40.1016242 Z M43.7811669,41.5217455 L48.4388464,49.2007758 C46.8961724,48.9297455 45.3316199,48.7930182 43.7811669,48.7930182 C42.2312,48.7930182 40.6695646,48.9273212 39.1307801,49.1930182 L43.7811669,41.5217455 Z M69.4713326,48.4259879 C64.8428243,45.0684121 59.6897193,42.6853818 54.144747,41.3384727 L44.6572773,25.6948364 C57.439642,26.1210182 67.976305,35.7816242 69.4713326,48.4259879 Z M17.9801503,49.6652606 C22.3806365,46.3498667 27.3110674,43.9508364 32.6445481,42.5287758 L22.3271558,59.4577455 C21.6090564,60.412897 20.9536751,61.4170182 20.3726807,62.4473212 C18.7599956,59.0223515 17.9091669,55.2395636 17.9091669,51.4742303 C17.9091669,50.9287758 17.9320177,50.3518061 17.9801503,49.6652606 Z M61.6777414,55.6322909 C61.1166807,55.1290182 60.5400619,54.652897 59.9512884,54.2082909 C59.8535646,53.4829576 59.7081945,52.7678061 59.5146917,52.0657455 L61.6777414,55.6322909 Z M18.0589127,43.8354424 C17.5406365,45.5673212 17.2007912,47.3505939 17.0447249,49.1610182 C15.2944486,50.5074424 13.6409238,51.9949576 12.1065149,53.6017455 L18.0589127,43.8354424 Z M43.7811669,-0.000193939394 C19.6404818,-0.000193939394 -4.86187845e-05,19.5857455 -4.86187845e-05,43.6604121 C-4.86187845e-05,50.5753212 1.67146519,57.4722909 4.83314475,63.6061091 L4.90121105,63.737503 L5.82496796,63.737503 L5.98006188,63.7200485 L6.04861436,63.5920485 C6.12834917,63.4436848 6.20759779,63.2948364 6.28441547,63.1566545 L8.1873547,60.0327758 C10.6139182,56.4065939 13.5631337,53.1905939 16.9581834,50.4667152 C16.944084,50.8216242 16.9367912,51.1547152 16.9367912,51.4742303 C16.9367912,55.6638061 17.9470895,59.8587152 19.8587801,63.6051394 L19.925874,63.737503 L20.8569238,63.737503 L23.1269348,60.0104727 C24.3997746,58.3222303 25.8651448,56.8027152 27.4894983,55.4873212 C27.4715094,55.7922909 27.462758,56.0851394 27.462758,56.3726545 C27.462758,58.8987152 28.0388906,61.3312 29.1751116,63.6036848 L29.2422055,63.737503 L30.3147359,63.737503 L31.0970122,62.4458667 C33.149211,59.4465939 36.2462276,57.2507152 39.7234431,56.2931394 C38.3839956,57.4548364 37.5890785,59.148897 37.5890785,60.9501091 C37.5890785,61.8616242 37.7947359,62.7532606 38.2016751,63.5998061 L38.2682829,63.737503 L39.2518409,63.737503 L43.7811669,56.0099879 L48.3100066,63.737503 L49.294537,63.737503 L49.3606586,63.5998061 C49.7671116,62.7537455 49.9732552,61.8621091 49.9732552,60.9501091 C49.9732552,59.148897 49.1778519,57.4543515 47.8388906,56.2926545 C51.349653,57.2589576 54.4656309,59.4819879 56.512968,62.5137455 L57.255863,63.737503 L58.3211006,63.737503 L58.3881945,63.6036848 C59.5239293,61.3321697 60.0995757,58.8992 60.0995757,56.3726545 C60.0995757,56.1069576 60.0922829,55.833503 60.0762387,55.5464727 C61.5595978,56.7498667 62.9092552,58.1147152 64.0780508,59.5896242 L66.5940729,63.737503 L67.6311116,63.737503 L67.6986917,63.6056242 C69.6410122,59.8131394 70.6260287,55.7316848 70.6260287,51.4742303 C70.6260287,51.1658667 70.6197083,50.8478061 70.6070674,50.5137455 C73.8475094,53.1188364 76.6878188,56.1738667 79.048747,59.5905939 L81.5759514,63.737503 L82.6475094,63.737503 L82.7155757,63.6061091 C85.9317083,57.3879273 87.5628685,50.6771394 87.5628685,43.6604121 C87.5628685,19.5857455 67.9223381,-0.000193939394 43.7811669,-0.000193939394 Z" id="Fill-1" fill="#FFFFFF" mask="url(#mask-4)"></path>
        </g>
    </g>
</svg>