<?xml version="1.0" encoding="UTF-8"?>
<svg width="1021px" height="719px" viewBox="0 0 1021 719" version="1.1" xmlns="http://www.w3.org/2000/svg" xmlns:xlink="http://www.w3.org/1999/xlink">
    <!-- Generator: Sketch 52.3 (67297) - http://www.bohemiancoding.com/sketch -->
    <title>humain-avant-tout_sprite</title>
    <desc>Created with Sketch.</desc>
    <defs>
        <polygon id="path-1" points="0.116027999 0.443267935 114.95705 0.443267935 114.95705 99.6032609 0.116027999 99.6032609"></polygon>
        <polygon id="path-3" points="0.116027999 0.443267935 114.95705 0.443267935 114.95705 99.6032609 0.116027999 99.6032609"></polygon>
        <polygon id="path-5" points="0 0 126.36914 0 126.36914 91.6226606 0 91.6226606"></polygon>
        <polygon id="path-7" points="0 0 126.36914 0 126.36914 91.6226606 0 91.6226606"></polygon>
    </defs>
    <g id="humain-avant-tout_sprite" stroke="none" stroke-width="1" fill="none" fill-rule="evenodd">
        <g id="Group-6-Copy-2" fill="#B6C6F9">
            <path d="M23.0443186,75.3580451 C21.6124581,75.3580451 20.4483884,74.1880451 20.4483884,72.7488901 C20.4483884,71.3097352 21.6124581,70.1397352 23.0443186,70.1397352 C24.4761791,70.1397352 25.6402488,71.3097352 25.6402488,72.7488901 C25.6402488,74.1880451 24.4761791,75.3580451 23.0443186,75.3580451 M23.0443186,69.0411437 C21.0102023,69.0411437 19.3553651,70.7044113 19.3553651,72.7488901 C19.3553651,74.793369 21.0102023,76.4566366 23.0443186,76.4566366 C25.0784349,76.4566366 26.7332721,74.793369 26.7332721,72.7488901 C26.7332721,70.7044113 25.0784349,69.0411437 23.0443186,69.0411437" id="Fill-1"></path>
            <path d="M45.8900349,34.8856028 C46.0408721,34.6219408 45.9501512,34.2868704 45.6878256,34.1363634 C45.423314,33.9858563 45.0921279,34.0748423 44.9423837,34.3396028 L26.7861744,66.1800817 C26.6692209,66.1306451 26.5511744,66.0845042 26.4309419,66.0383634 L41.5572907,24.1809268 C41.6611279,23.895293 41.5146628,23.5799972 41.2304767,23.4767296 C40.9484767,23.373462 40.632593,23.5206732 40.5309419,23.8052085 L25.3881977,65.7087859 C25.2450116,65.6703352 25.1018256,65.6351803 24.9564535,65.6033211 L34.3870581,12.0953211 C34.4384302,11.7965042 34.241686,11.511969 33.9432907,11.4592366 C33.6558256,11.4065042 33.3628953,11.6053493 33.3104302,11.9041662 L23.8776395,65.4275465 C23.7825465,65.4165606 23.6863605,65.4011803 23.5912674,65.3934901 L23.5912674,0.647997183 C23.5912674,0.344785915 23.3464302,0.0987014085 23.0447558,0.0987014085 C22.7419884,0.0987014085 22.4982442,0.344785915 22.4982442,0.647997183 L22.4982442,65.3868986 C22.3583372,65.3923915 22.2217093,65.4088704 22.0839884,65.4198563 L12.6522907,11.9041662 C12.5987326,11.6053493 12.3134535,11.4054056 12.0194302,11.4592366 C11.7210349,11.511969 11.5242907,11.7965042 11.5756628,12.0953211 L20.9997093,65.5670676 C20.8521512,65.5978282 20.7089651,65.6373775 20.563593,65.6747296 L5.43177907,23.8052085 C5.33122093,23.5206732 5.01752326,23.373462 4.73224419,23.4767296 C4.44805814,23.5799972 4.30159302,23.895293 4.40543023,24.1809268 L19.5219419,66.0098 C19.4017093,66.0570394 19.2836628,66.1086732 19.1656163,66.1614056 L1.02033721,34.3396028 C0.870593023,34.0748423 0.536127907,33.9858563 0.274895349,34.1363634 C0.0125697674,34.2868704 -0.0781511628,34.6219408 0.0726860465,34.8856028 L18.1939186,66.6656592 C18.0747791,66.7370676 17.9578256,66.8106732 17.8408721,66.8886732 L4.60873256,50.9228423 C4.41526744,50.6877437 4.07096512,50.6591803 3.83924419,50.8525324 C3.60752326,51.0458845 3.5769186,51.3930394 3.77038372,51.6259408 L17.2878023,67.935631 C17.2878023,67.935631 17.2878023,67.935631 17.2888953,67.935631 L17.3074767,67.9587014 C17.320593,67.9751803 17.3391744,67.9806732 17.3533837,67.9949549 C17.3927326,68.032307 17.4320814,68.067462 17.4779884,68.0905324 C17.506407,68.1048141 17.5348256,68.1114056 17.5643372,68.121293 C17.6058721,68.1344761 17.6452209,68.145462 17.6889419,68.1487577 C17.7020581,68.1498563 17.7140814,68.1564479 17.7261047,68.1564479 C17.7534302,68.1564479 17.7796628,68.1465606 17.8069884,68.1432648 C17.8310349,68.1388704 17.8539884,68.1377718 17.8780349,68.1300817 C17.9228488,68.1179972 17.9632907,68.0949268 18.0048256,68.0707577 C18.0201279,68.0608704 18.0387093,68.0586732 18.0529186,68.0476873 C19.4399651,67.0095183 21.0904302,66.4602225 22.8250581,66.4602225 C24.605593,66.4602225 26.6025465,67.0842225 27.9130814,68.0498845 C27.9196395,68.0553775 27.9283837,68.0531803 27.9360349,68.0575746 C28.0278488,68.1190958 28.130593,68.1564479 28.2366163,68.1564479 C28.3175,68.1564479 28.3972907,68.1366732 28.4705233,68.1015183 C28.4967558,68.0894338 28.5153372,68.0652648 28.5393837,68.0476873 C28.5798256,68.0202225 28.6235465,67.9982507 28.6552442,67.9587014 L42.1923372,51.6259408 C42.3858023,51.3930394 42.3551977,51.0458845 42.1234767,50.8525324 C41.8928488,50.6602789 41.5474535,50.6888423 41.3539884,50.9228423 L28.1295,66.8776873 C28.0136395,66.8040817 27.893407,66.7326732 27.7709884,66.6623634 L45.8900349,34.8856028 Z" id="Fill-3"></path>
        </g>
        <g id="Group-7-Copy" transform="translate(94.000000, 20.500000) rotate(-180.000000) translate(-94.000000, -20.500000) translate(62.000000, 0.000000)" fill="#EBEFF5">
            <path d="M5.48107599,39.2805242 C12.3640228,37.1585637 17.5623763,33.0723237 20.0462328,26.6074113 C17.014545,26.7266333 13.8784162,27.3539913 10.9313448,26.8612389 C4.53530542,25.7920862 0.324789013,20.5011264 0.0138838631,13.9972745 C-0.269944011,8.05347785 3.82597749,2.40581339 9.72737308,0.604021908 C15.7776937,-1.24295859 22.2627013,1.25301297 25.6575147,6.62665898 C28.7230492,11.4796699 28.7477088,16.7614957 27.3237342,21.9293875 C24.6324464,31.6959819 18.3398809,38.1729127 8.2719695,40.6568659 C7.18501028,40.9251156 5.61066009,41.730826 5.48107599,39.2805242" id="Fill-1"></path>
            <path d="M41.2368387,38.505985 C48.2553147,36.4979319 53.272044,32.3878458 55.8138599,26.0557725 C52.8856569,26.2446768 49.9021865,26.9299273 47.0874271,26.5185881 C40.7505825,25.5924846 36.0407328,20.3683352 35.783303,14.7144284 C35.465273,7.72591245 39.2452728,2.29491278 45.6592009,0.526768192 C51.953383,-1.2087904 58.5811087,1.43350901 61.7468647,7.13794771 C65.1375686,13.2466417 64.3725513,19.4951249 61.6280882,25.5339243 C58.071582,33.3578696 51.9873191,38.3893366 43.234707,40.0469722 C42.5647109,40.1740103 41.7739991,39.6970269 41.0390396,39.5010386 C41.1049726,39.1695115 41.1709057,38.8375121 41.2368387,38.505985" id="Fill-4"></path>
        </g>
        <g id="Group-7" transform="translate(142.000000, 0.000000)" fill="#EBEFF5">
            <path d="M5.41401791,39.0426269 C12.2128239,36.9344478 17.3476299,32.8747463 19.8011224,26.4518209 C16.8064955,26.5702687 13.7087045,27.1935522 10.7976597,26.704 C4.47980896,25.641791 0.320764179,20.385194 0.0136597015,13.9235821 C-0.266698507,8.01838806 3.77915224,2.40740299 9.60840597,0.617313433 C15.5847642,-1.21767164 21.9904955,1.26208955 25.343809,6.60083582 C28.3718687,11.4223284 28.3962269,16.6698507 26.9896597,21.8041791 C24.3312716,31.5073433 18.1156299,37.942209 8.17079403,40.4100299 C7.09712239,40.6765373 5.54201791,41.4770149 5.41401791,39.0426269" id="Fill-1"></path>
            <path d="M41.4924418,38.9423761 C48.4068299,36.9115701 53.3491582,32.7549134 55.8532776,26.3510925 C52.9685015,26.5421373 50.0292776,27.2351522 47.2562627,26.8191522 C41.013397,25.8825552 36.373397,20.5992119 36.1197851,14.8812418 C35.8064716,7.8135403 39.5304119,2.32100299 45.8492179,0.532823881 C52.0500537,-1.2224 58.5794866,1.44983881 61.6982925,7.21891343 C65.0387104,13.3968239 64.2850388,19.7161075 61.5812776,25.8233313 C58.0775164,33.7359284 52.0834866,38.824406 43.4606806,40.5008239 C42.8006209,40.6293015 42.0216358,40.1469134 41.2975761,39.9487045 C41.3625313,39.6134209 41.4274866,39.2776597 41.4924418,38.9423761" id="Fill-4"></path>
        </g>
        <g id="Group-32" transform="translate(0.000000, 109.000000)">
            <path d="M68.2292078,1.2930375 C68.98772,1.2930375 69.6045541,1.91004293 69.6045541,2.66876576 C69.6045541,3.42748859 68.98772,4.04449402 68.2292078,4.04449402 C67.4706956,4.04449402 66.8538615,3.42748859 66.8538615,2.66876576 C66.8538615,1.91004293 67.4706956,1.2930375 68.2292078,1.2930375 M68.2292078,5.33733098 C69.70012,5.33733098 70.8970322,4.14008641 70.8970322,2.66876576 C70.8970322,1.19677663 69.70012,0.000200543478 68.2292078,0.000200543478 C66.7582956,0.000200543478 65.5613834,1.19677663 65.5613834,2.66876576 C65.5613834,4.14008641 66.7582956,5.33733098 68.2292078,5.33733098" id="Fill-1" fill="#FFFFFF"></path>
            <path d="M39.4628834,42.2019685 C39.4989712,42.2019685 39.5363956,42.1992946 39.5731517,42.1926098 C39.9246737,42.1324467 40.160581,41.7975391 40.1004346,41.4459196 L38.3749029,31.4174087 C38.3147566,31.0657891 37.9786054,30.8258054 37.6290883,30.8899793 C37.276898,30.9501424 37.0409907,31.28505 37.1018054,31.6366696 L38.8266688,41.6651804 C38.8808005,41.9800337 39.1541322,42.2019685 39.4628834,42.2019685" id="Fill-3" fill="#FFFFFF"></path>
            <path d="M25.3064395,69.7980212 L27.6327663,77.8124071 C27.7149663,78.0951734 27.9729273,78.2790049 28.2536102,78.2790049 C28.3130883,78.2790049 28.3739029,78.2703147 28.4340493,78.2529342 C28.7762151,78.153331 28.9740298,77.7943582 28.8744541,77.4520973 L26.5481273,69.4377114 C26.4478834,69.0947821 26.0896785,68.8969125 25.7468444,68.9971842 C25.4040102,69.0967875 25.2068639,69.4550918 25.3064395,69.7980212" id="Fill-5" fill="#FFFFFF"></path>
            <path d="M24.1950688,65.9696462 C24.2772688,66.2524125 24.5352298,66.436244 24.8152444,66.436244 C24.8753907,66.436244 24.9355371,66.4275538 24.9956834,66.4101734 C25.3385176,66.3105701 25.5356639,65.9522658 25.4367566,65.6093364 L23.1097615,57.5949505 C23.0101859,57.2520212 22.651981,57.0548201 22.3091468,57.1544234 C21.9663127,57.2540266 21.7691663,57.612331 21.868742,57.9552603 L24.1950688,65.9696462 Z" id="Fill-7" fill="#FFFFFF"></path>
            <path d="M13.4626224,88.8286614 C13.5675444,89.0733245 13.8061249,89.2203897 14.0567346,89.2203897 C14.1422761,89.2203897 14.2284859,89.2030092 14.3113541,89.1675799 C14.6394859,89.0271995 14.7911883,88.6468353 14.6501785,88.3186125 L10.4740176,78.5882429 C10.3330078,78.2600201 9.95141268,78.1082755 9.62528585,78.2493245 C9.29715415,78.3903734 9.14545171,78.7707375 9.28646146,79.0982918 L13.4626224,88.8286614 Z" id="Fill-9" fill="#FFFFFF"></path>
            <path d="M6.52875171,107.420579 C6.33895659,107.118427 5.94065415,107.027514 5.63791756,107.217362 C5.33584927,107.40721 5.24429317,107.806291 5.43475659,108.108443 L8.86109317,113.562558 C8.98405902,113.757753 9.19390293,113.86471 9.40909317,113.86471 C9.52671268,113.86471 9.64566878,113.832623 9.75259561,113.765775 C10.0546639,113.575259 10.1455517,113.176846 9.95575659,112.874025 L6.52875171,107.420579 Z" id="Fill-11" fill="#FFFFFF"></path>
            <path d="M1.1935039,98.9299696 C1.00437707,98.6284859 0.605406341,98.5369043 0.302669756,98.7267522 C0.000601463415,98.9166 -0.0909546341,99.3156815 0.0995087805,99.6178337 L3.52584537,105.071948 C3.64881122,105.267143 3.85865512,105.3741 4.07384537,105.3741 C4.19146488,105.3741 4.31042098,105.342013 4.4173478,105.275165 C4.7194161,105.084649 4.8103039,104.686236 4.62050878,104.383415 L1.1935039,98.9299696 Z" id="Fill-13" fill="#FFFFFF"></path>
            <path d="M96.8853976,42.1924761 C96.9221537,42.1991609 96.9589098,42.2018348 96.9956659,42.2018348 C97.3044171,42.2018348 97.5777488,41.9799 97.6318805,41.6650467 L99.3567439,31.6365359 C99.4175585,31.2849163 99.1816512,30.9500087 98.829461,30.8898457 C98.4772707,30.8256717 98.1437927,31.0656554 98.082978,31.417275 L96.3581146,41.4457859 C96.2973,41.7974054 96.5338756,42.132313 96.8853976,42.1924761" id="Fill-15" fill="#FFFFFF"></path>
            <path d="M108.024567,78.2529342 C108.084713,78.2703147 108.145528,78.2790049 108.205006,78.2790049 C108.48502,78.2790049 108.74365,78.0951734 108.825181,77.8124071 L111.152177,69.7980212 C111.251084,69.4550918 111.053938,69.0967875 110.711772,68.9971842 C110.367601,68.8969125 110.010064,69.0941136 109.910489,69.4377114 L107.584162,77.4520973 C107.484586,77.7943582 107.681733,78.153331 108.024567,78.2529342" id="Fill-17" fill="#FFFFFF"></path>
            <path d="M111.462465,66.4103071 C111.522611,66.4276875 111.583426,66.4363777 111.642904,66.4363777 C111.922919,66.4363777 112.181548,66.2525462 112.26308,65.9697799 L114.590075,57.955394 C114.688982,57.6124647 114.491836,57.2541603 114.14967,57.1545571 C113.805499,57.0542853 113.447962,57.2514864 113.348387,57.5950842 L111.02206,65.6094701 C110.922484,65.951731 111.119631,66.3107038 111.462465,66.4103071" id="Fill-19" fill="#FFFFFF"></path>
            <path d="M122.146928,89.1676467 C122.230464,89.2030761 122.316674,89.2204565 122.401547,89.2204565 C122.652157,89.2204565 122.890738,89.0733913 122.99566,88.8287283 L127.17182,79.0983587 C127.31283,78.7708043 127.161128,78.3904402 126.832996,78.2493913 C126.506201,78.1090109 126.125274,78.2607554 125.984264,78.5883098 L121.808103,88.3186793 C121.667094,88.6462337 121.818796,89.0265978 122.146928,89.1676467" id="Fill-21" fill="#FFFFFF"></path>
            <g id="Group-25" transform="translate(10.692683, 22.972255)">
                <mask id="mask-2" fill="white">
                    <use xlink:href="#path-1"></use>
                </mask>
                <g id="Clip-24"></g>
                <path d="M97.3934337,97.3164636 L90.4859605,81.1820723 L93.6710434,70.2090016 L102.450404,85.5345342 L97.3934337,97.3164636 Z M84.6504288,96.6446429 L77.6520678,72.6770234 L79.8841654,59.7031973 L89.1152922,81.2649636 L84.6504288,96.6446429 Z M72.5543312,94.690681 L59.6228678,15.5395125 L76.32818,72.7525614 L72.5543312,94.690681 Z M58.4720678,83.6139962 L61.4666873,78.4359636 C61.5796288,78.2400995 61.582302,77.9987788 61.472702,77.8002408 L58.0704239,71.6355342 C57.958819,71.4329853 57.7476385,71.305306 57.5164093,71.3012951 C57.2958727,71.3033005 57.0693215,71.4176103 56.9503654,71.6154799 L53.2627263,77.7801864 C53.1370873,77.9907571 53.1404288,78.2541375 53.2727507,78.4606973 L56.5627556,83.6166701 C51.4416288,83.9388766 46.9934727,86.7785723 44.445941,90.9124418 L57.3820824,11.7318603 C57.433541,11.7331973 57.4843312,11.7398821 57.536458,11.7398821 C57.5885849,11.7398821 57.6393751,11.7331973 57.6908337,11.7318603 L70.6276434,90.9124418 C68.0727605,86.7685451 63.6092337,83.9241701 58.4720678,83.6139962 Z M57.509058,82.696844 L54.5765898,78.1017245 L57.4823263,73.2445614 L60.1648532,78.1050668 L57.509058,82.696844 Z M38.7447361,72.7525614 L55.4507166,15.5395125 L42.5192532,94.690681 L38.7447361,72.7525614 Z M30.4224873,96.6446429 L25.9576239,81.2649636 L35.1887507,59.7031973 L37.4208483,72.6770234 L30.4224873,96.6446429 Z M17.6794824,97.3164636 L12.6225117,85.5345342 L21.4018727,70.2090016 L24.5876239,81.1820723 L17.6794824,97.3164636 Z M33.3943849,49.2735995 L34.7857702,57.3608495 L25.3895751,79.3083277 L22.29538,68.6494418 L33.3943849,49.2735995 Z M54.1188093,15.4880397 L38.2461898,69.8506973 L36.1243605,57.5186103 L54.1188093,15.4880397 Z M52.6077995,15.7333712 L35.72138,55.175594 L34.4028385,47.5128277 L52.6077995,15.7333712 Z M53.1825312,6.09190924 C53.1825312,3.69006685 55.1359507,1.73610489 57.536458,1.73610489 C59.9369654,1.73610489 61.8903849,3.69006685 61.8903849,6.09190924 C61.8903849,8.49308315 59.9369654,10.4470451 57.536458,10.4470451 C55.1359507,10.4470451 53.1825312,8.49308315 53.1825312,6.09190924 Z M78.9485556,57.5186103 L76.8273946,69.8506973 L60.9541068,15.4880397 L78.9485556,57.5186103 Z M79.3515361,55.175594 L62.4651166,15.7333712 L80.6700776,47.5128277 L79.3515361,55.175594 Z M92.7775361,68.6494418 L89.683341,79.3083277 L80.2871459,57.3608495 L81.6785312,49.2735995 L92.7775361,68.6494418 Z M114.654765,92.9553114 C114.352029,92.7654636 113.953726,92.8570451 113.763263,93.1591973 L110.909653,97.7015071 L103.89258,85.4523114 L110.876239,69.1802136 C111.017248,68.8526592 110.865546,68.4722951 110.537414,68.3312462 C110.208614,68.1908658 109.829692,68.3419418 109.688682,68.6701647 L103.088624,84.0485071 L94.1722629,68.4829908 L97.2076483,58.0253168 C97.3072239,57.6823875 97.1100776,57.3240832 96.7672434,57.2244799 C96.423741,57.1248766 96.0662044,57.3220777 95.9666288,57.6650071 L93.2787556,66.923431 L82.0220337,47.2735125 L86.1453995,23.304556 C86.2062141,22.9529364 85.9703068,22.6180288 85.6181166,22.5578658 C85.2659263,22.4936918 84.9324483,22.7330071 84.872302,23.0852951 L81.01358,45.5134092 L60.9868532,10.5526647 C62.3200971,9.5185288 63.1828629,7.90549076 63.1828629,6.09190924 C63.1828629,2.97746902 60.6500337,0.443267935 57.536458,0.443267935 C54.4228824,0.443267935 51.8900532,2.97746902 51.8900532,6.09190924 C51.8900532,7.90549076 52.752819,9.5185288 54.0860629,10.5526647 L34.0593361,45.5134092 L30.2006141,23.0852951 C30.1404678,22.7330071 29.8043166,22.4943603 29.4547995,22.5578658 C29.1026093,22.6180288 28.866702,22.9529364 28.9275166,23.304556 L33.0508824,47.2735125 L21.7941605,66.923431 L19.1062873,57.6650071 C19.0067117,57.3220777 18.6485068,57.1248766 18.3056727,57.2244799 C17.9628385,57.3240832 17.7656922,57.6823875 17.8652678,58.0253168 L20.9013215,68.4829908 L11.9849605,84.0485071 L5.38423366,68.6701647 C5.2432239,68.3419418 4.86229707,68.1901973 4.53550195,68.3312462 C4.20737024,68.4722951 4.0556678,68.8526592 4.19667756,69.1802136 L11.1803361,85.4523114 L4.16393122,97.7015071 L1.30965317,93.1591973 C1.11985805,92.8570451 0.72155561,92.7654636 0.418150732,92.9553114 C0.116750732,93.1458277 0.0251946341,93.5449092 0.214989756,93.8470614 L3.64199463,99.3011755 C3.76028244,99.4890179 3.96745317,99.6033277 4.18932634,99.6033277 L4.2026922,99.6033277 C4.42924341,99.5979799 4.63708244,99.4749799 4.7500239,99.2784473 L11.8185556,86.9383386 L17.0867068,99.2115995 C17.1882873,99.4489092 17.4215215,99.6033277 17.6801507,99.6033277 L17.680819,99.6033277 C17.93878,99.6033277 18.1726824,99.4489092 18.2742629,99.210931 L25.1556727,83.1387082 L29.7996385,99.1373984 C29.8798337,99.4134799 30.1324483,99.6033277 30.4198141,99.6033277 L30.4204824,99.6033277 C30.7078483,99.6033277 30.9604629,99.4141484 31.040658,99.1380668 L37.9200629,75.5788875 L41.8984093,98.7075668 C41.9311556,98.8967462 42.0494434,99.0471538 42.2044873,99.1420777 C42.2853507,99.4067951 42.5219263,99.6033277 42.813302,99.6033277 C43.1701702,99.6033277 43.459541,99.3138766 43.459541,98.9569092 C43.459541,91.1925342 49.7742385,84.8754147 57.536458,84.8754147 C65.2986776,84.8754147 71.6133751,91.1925342 71.6133751,98.9569092 C71.6133751,99.3138766 71.9027459,99.6033277 72.2596141,99.6033277 C72.5509898,99.6033277 72.7882337,99.4067951 72.8684288,99.1420777 C73.0234727,99.0471538 73.1417605,98.8967462 73.1745068,98.7075668 L77.1528532,75.5788875 L84.032258,99.1380668 C84.1124532,99.4141484 84.3650678,99.6033277 84.6524337,99.6033277 L84.653102,99.6033277 C84.9404678,99.6033277 85.1930824,99.4134799 85.2732776,99.1373984 L89.9172434,83.1387082 L96.7986532,99.210931 C96.9002337,99.4489092 97.1341361,99.6033277 97.3927654,99.6033277 C97.6513946,99.6033277 97.8846288,99.4489092 97.9868776,99.2115995 L103.25436,86.9383386 L110.322892,99.2784473 C110.435834,99.4749799 110.643673,99.5979799 110.870224,99.6033277 L110.88359,99.6033277 C111.105463,99.6033277 111.312634,99.4890179 111.430921,99.3011755 L114.857926,93.8470614 C115.047721,93.5449092 114.956834,93.1458277 114.654765,92.9553114 Z" id="Fill-23" fill="#FFFFFF" mask="url(#mask-2)"></path>
            </g>
            <path d="M130.820765,107.217295 C130.518697,107.027447 130.119726,107.11836 129.929931,107.420513 L126.502926,112.873958 C126.313131,113.176779 126.404019,113.575192 126.706087,113.765708 C126.813014,113.832556 126.93197,113.864643 127.04959,113.864643 C127.264112,113.864643 127.474624,113.757686 127.596921,113.562491 L131.023926,108.108377 C131.213721,107.806224 131.122834,107.407143 130.820765,107.217295" id="Fill-26" fill="#FFFFFF"></path>
            <path d="M136.15608,98.7266853 C135.854012,98.5368375 135.455041,98.628419 135.265246,98.9299027 L131.838241,104.383348 C131.648446,104.686169 131.739334,105.084582 132.041402,105.275098 C132.148329,105.341946 132.267285,105.374033 132.384904,105.374033 C132.599426,105.374033 132.809939,105.267077 132.932236,105.071881 L136.359241,99.6177668 C136.549036,99.3156147 136.458148,98.9165332 136.15608,98.7266853" id="Fill-28" fill="#FFFFFF"></path>
            <path d="M68.1377185,11.1623168 L69.9307478,14.4111212 L68.1564307,17.4787679 L66.1963283,14.4071103 L68.1377185,11.1623168 Z M67.6391722,19.0704147 C67.75746,19.2562516 67.9632941,19.368556 68.1831624,19.368556 L68.1978649,19.368556 C68.4230795,19.3638766 68.6302502,19.2415451 68.7431917,19.0463495 L71.232582,14.7420179 C71.3455234,14.5461538 71.3481966,14.3041647 71.2385966,14.1056266 L68.7264844,9.55328967 C68.6142112,9.35074076 68.4030307,9.22306141 68.1718015,9.21905054 C67.9499283,9.23242011 67.7247137,9.33536576 67.6057576,9.5339038 L64.8824649,14.0862408 C64.7561576,14.2968114 64.7601673,14.5595234 64.891821,14.7660832 L67.6391722,19.0704147 Z" id="Fill-30" fill="#FFFFFF"></path>
        </g>
        <g id="Group-32-Copy" transform="translate(68.500000, 309.500000) rotate(-180.000000) translate(-68.500000, -309.500000) translate(0.000000, 248.000000)">
            <path d="M68.2292078,1.2930375 C68.98772,1.2930375 69.6045541,1.91004293 69.6045541,2.66876576 C69.6045541,3.42748859 68.98772,4.04449402 68.2292078,4.04449402 C67.4706956,4.04449402 66.8538615,3.42748859 66.8538615,2.66876576 C66.8538615,1.91004293 67.4706956,1.2930375 68.2292078,1.2930375 M68.2292078,5.33733098 C69.70012,5.33733098 70.8970322,4.14008641 70.8970322,2.66876576 C70.8970322,1.19677663 69.70012,0.000200543478 68.2292078,0.000200543478 C66.7582956,0.000200543478 65.5613834,1.19677663 65.5613834,2.66876576 C65.5613834,4.14008641 66.7582956,5.33733098 68.2292078,5.33733098" id="Fill-1" fill="#FFFFFF"></path>
            <path d="M39.4628834,42.2019685 C39.4989712,42.2019685 39.5363956,42.1992946 39.5731517,42.1926098 C39.9246737,42.1324467 40.160581,41.7975391 40.1004346,41.4459196 L38.3749029,31.4174087 C38.3147566,31.0657891 37.9786054,30.8258054 37.6290883,30.8899793 C37.276898,30.9501424 37.0409907,31.28505 37.1018054,31.6366696 L38.8266688,41.6651804 C38.8808005,41.9800337 39.1541322,42.2019685 39.4628834,42.2019685" id="Fill-3" fill="#FFFFFF"></path>
            <path d="M25.3064395,69.7980212 L27.6327663,77.8124071 C27.7149663,78.0951734 27.9729273,78.2790049 28.2536102,78.2790049 C28.3130883,78.2790049 28.3739029,78.2703147 28.4340493,78.2529342 C28.7762151,78.153331 28.9740298,77.7943582 28.8744541,77.4520973 L26.5481273,69.4377114 C26.4478834,69.0947821 26.0896785,68.8969125 25.7468444,68.9971842 C25.4040102,69.0967875 25.2068639,69.4550918 25.3064395,69.7980212" id="Fill-5" fill="#FFFFFF"></path>
            <path d="M24.1950688,65.9696462 C24.2772688,66.2524125 24.5352298,66.436244 24.8152444,66.436244 C24.8753907,66.436244 24.9355371,66.4275538 24.9956834,66.4101734 C25.3385176,66.3105701 25.5356639,65.9522658 25.4367566,65.6093364 L23.1097615,57.5949505 C23.0101859,57.2520212 22.651981,57.0548201 22.3091468,57.1544234 C21.9663127,57.2540266 21.7691663,57.612331 21.868742,57.9552603 L24.1950688,65.9696462 Z" id="Fill-7" fill="#FFFFFF"></path>
            <path d="M13.4626224,88.8286614 C13.5675444,89.0733245 13.8061249,89.2203897 14.0567346,89.2203897 C14.1422761,89.2203897 14.2284859,89.2030092 14.3113541,89.1675799 C14.6394859,89.0271995 14.7911883,88.6468353 14.6501785,88.3186125 L10.4740176,78.5882429 C10.3330078,78.2600201 9.95141268,78.1082755 9.62528585,78.2493245 C9.29715415,78.3903734 9.14545171,78.7707375 9.28646146,79.0982918 L13.4626224,88.8286614 Z" id="Fill-9" fill="#FFFFFF"></path>
            <path d="M6.52875171,107.420579 C6.33895659,107.118427 5.94065415,107.027514 5.63791756,107.217362 C5.33584927,107.40721 5.24429317,107.806291 5.43475659,108.108443 L8.86109317,113.562558 C8.98405902,113.757753 9.19390293,113.86471 9.40909317,113.86471 C9.52671268,113.86471 9.64566878,113.832623 9.75259561,113.765775 C10.0546639,113.575259 10.1455517,113.176846 9.95575659,112.874025 L6.52875171,107.420579 Z" id="Fill-11" fill="#FFFFFF"></path>
            <path d="M1.1935039,98.9299696 C1.00437707,98.6284859 0.605406341,98.5369043 0.302669756,98.7267522 C0.000601463415,98.9166 -0.0909546341,99.3156815 0.0995087805,99.6178337 L3.52584537,105.071948 C3.64881122,105.267143 3.85865512,105.3741 4.07384537,105.3741 C4.19146488,105.3741 4.31042098,105.342013 4.4173478,105.275165 C4.7194161,105.084649 4.8103039,104.686236 4.62050878,104.383415 L1.1935039,98.9299696 Z" id="Fill-13" fill="#FFFFFF"></path>
            <path d="M96.8853976,42.1924761 C96.9221537,42.1991609 96.9589098,42.2018348 96.9956659,42.2018348 C97.3044171,42.2018348 97.5777488,41.9799 97.6318805,41.6650467 L99.3567439,31.6365359 C99.4175585,31.2849163 99.1816512,30.9500087 98.829461,30.8898457 C98.4772707,30.8256717 98.1437927,31.0656554 98.082978,31.417275 L96.3581146,41.4457859 C96.2973,41.7974054 96.5338756,42.132313 96.8853976,42.1924761" id="Fill-15" fill="#FFFFFF"></path>
            <path d="M108.024567,78.2529342 C108.084713,78.2703147 108.145528,78.2790049 108.205006,78.2790049 C108.48502,78.2790049 108.74365,78.0951734 108.825181,77.8124071 L111.152177,69.7980212 C111.251084,69.4550918 111.053938,69.0967875 110.711772,68.9971842 C110.367601,68.8969125 110.010064,69.0941136 109.910489,69.4377114 L107.584162,77.4520973 C107.484586,77.7943582 107.681733,78.153331 108.024567,78.2529342" id="Fill-17" fill="#FFFFFF"></path>
            <path d="M111.462465,66.4103071 C111.522611,66.4276875 111.583426,66.4363777 111.642904,66.4363777 C111.922919,66.4363777 112.181548,66.2525462 112.26308,65.9697799 L114.590075,57.955394 C114.688982,57.6124647 114.491836,57.2541603 114.14967,57.1545571 C113.805499,57.0542853 113.447962,57.2514864 113.348387,57.5950842 L111.02206,65.6094701 C110.922484,65.951731 111.119631,66.3107038 111.462465,66.4103071" id="Fill-19" fill="#FFFFFF"></path>
            <path d="M122.146928,89.1676467 C122.230464,89.2030761 122.316674,89.2204565 122.401547,89.2204565 C122.652157,89.2204565 122.890738,89.0733913 122.99566,88.8287283 L127.17182,79.0983587 C127.31283,78.7708043 127.161128,78.3904402 126.832996,78.2493913 C126.506201,78.1090109 126.125274,78.2607554 125.984264,78.5883098 L121.808103,88.3186793 C121.667094,88.6462337 121.818796,89.0265978 122.146928,89.1676467" id="Fill-21" fill="#FFFFFF"></path>
            <g id="Group-25" transform="translate(10.692683, 22.972255)">
                <mask id="mask-4" fill="white">
                    <use xlink:href="#path-3"></use>
                </mask>
                <g id="Clip-24"></g>
                <path d="M97.3934337,97.3164636 L90.4859605,81.1820723 L93.6710434,70.2090016 L102.450404,85.5345342 L97.3934337,97.3164636 Z M84.6504288,96.6446429 L77.6520678,72.6770234 L79.8841654,59.7031973 L89.1152922,81.2649636 L84.6504288,96.6446429 Z M72.5543312,94.690681 L59.6228678,15.5395125 L76.32818,72.7525614 L72.5543312,94.690681 Z M58.4720678,83.6139962 L61.4666873,78.4359636 C61.5796288,78.2400995 61.582302,77.9987788 61.472702,77.8002408 L58.0704239,71.6355342 C57.958819,71.4329853 57.7476385,71.305306 57.5164093,71.3012951 C57.2958727,71.3033005 57.0693215,71.4176103 56.9503654,71.6154799 L53.2627263,77.7801864 C53.1370873,77.9907571 53.1404288,78.2541375 53.2727507,78.4606973 L56.5627556,83.6166701 C51.4416288,83.9388766 46.9934727,86.7785723 44.445941,90.9124418 L57.3820824,11.7318603 C57.433541,11.7331973 57.4843312,11.7398821 57.536458,11.7398821 C57.5885849,11.7398821 57.6393751,11.7331973 57.6908337,11.7318603 L70.6276434,90.9124418 C68.0727605,86.7685451 63.6092337,83.9241701 58.4720678,83.6139962 Z M57.509058,82.696844 L54.5765898,78.1017245 L57.4823263,73.2445614 L60.1648532,78.1050668 L57.509058,82.696844 Z M38.7447361,72.7525614 L55.4507166,15.5395125 L42.5192532,94.690681 L38.7447361,72.7525614 Z M30.4224873,96.6446429 L25.9576239,81.2649636 L35.1887507,59.7031973 L37.4208483,72.6770234 L30.4224873,96.6446429 Z M17.6794824,97.3164636 L12.6225117,85.5345342 L21.4018727,70.2090016 L24.5876239,81.1820723 L17.6794824,97.3164636 Z M33.3943849,49.2735995 L34.7857702,57.3608495 L25.3895751,79.3083277 L22.29538,68.6494418 L33.3943849,49.2735995 Z M54.1188093,15.4880397 L38.2461898,69.8506973 L36.1243605,57.5186103 L54.1188093,15.4880397 Z M52.6077995,15.7333712 L35.72138,55.175594 L34.4028385,47.5128277 L52.6077995,15.7333712 Z M53.1825312,6.09190924 C53.1825312,3.69006685 55.1359507,1.73610489 57.536458,1.73610489 C59.9369654,1.73610489 61.8903849,3.69006685 61.8903849,6.09190924 C61.8903849,8.49308315 59.9369654,10.4470451 57.536458,10.4470451 C55.1359507,10.4470451 53.1825312,8.49308315 53.1825312,6.09190924 Z M78.9485556,57.5186103 L76.8273946,69.8506973 L60.9541068,15.4880397 L78.9485556,57.5186103 Z M79.3515361,55.175594 L62.4651166,15.7333712 L80.6700776,47.5128277 L79.3515361,55.175594 Z M92.7775361,68.6494418 L89.683341,79.3083277 L80.2871459,57.3608495 L81.6785312,49.2735995 L92.7775361,68.6494418 Z M114.654765,92.9553114 C114.352029,92.7654636 113.953726,92.8570451 113.763263,93.1591973 L110.909653,97.7015071 L103.89258,85.4523114 L110.876239,69.1802136 C111.017248,68.8526592 110.865546,68.4722951 110.537414,68.3312462 C110.208614,68.1908658 109.829692,68.3419418 109.688682,68.6701647 L103.088624,84.0485071 L94.1722629,68.4829908 L97.2076483,58.0253168 C97.3072239,57.6823875 97.1100776,57.3240832 96.7672434,57.2244799 C96.423741,57.1248766 96.0662044,57.3220777 95.9666288,57.6650071 L93.2787556,66.923431 L82.0220337,47.2735125 L86.1453995,23.304556 C86.2062141,22.9529364 85.9703068,22.6180288 85.6181166,22.5578658 C85.2659263,22.4936918 84.9324483,22.7330071 84.872302,23.0852951 L81.01358,45.5134092 L60.9868532,10.5526647 C62.3200971,9.5185288 63.1828629,7.90549076 63.1828629,6.09190924 C63.1828629,2.97746902 60.6500337,0.443267935 57.536458,0.443267935 C54.4228824,0.443267935 51.8900532,2.97746902 51.8900532,6.09190924 C51.8900532,7.90549076 52.752819,9.5185288 54.0860629,10.5526647 L34.0593361,45.5134092 L30.2006141,23.0852951 C30.1404678,22.7330071 29.8043166,22.4943603 29.4547995,22.5578658 C29.1026093,22.6180288 28.866702,22.9529364 28.9275166,23.304556 L33.0508824,47.2735125 L21.7941605,66.923431 L19.1062873,57.6650071 C19.0067117,57.3220777 18.6485068,57.1248766 18.3056727,57.2244799 C17.9628385,57.3240832 17.7656922,57.6823875 17.8652678,58.0253168 L20.9013215,68.4829908 L11.9849605,84.0485071 L5.38423366,68.6701647 C5.2432239,68.3419418 4.86229707,68.1901973 4.53550195,68.3312462 C4.20737024,68.4722951 4.0556678,68.8526592 4.19667756,69.1802136 L11.1803361,85.4523114 L4.16393122,97.7015071 L1.30965317,93.1591973 C1.11985805,92.8570451 0.72155561,92.7654636 0.418150732,92.9553114 C0.116750732,93.1458277 0.0251946341,93.5449092 0.214989756,93.8470614 L3.64199463,99.3011755 C3.76028244,99.4890179 3.96745317,99.6033277 4.18932634,99.6033277 L4.2026922,99.6033277 C4.42924341,99.5979799 4.63708244,99.4749799 4.7500239,99.2784473 L11.8185556,86.9383386 L17.0867068,99.2115995 C17.1882873,99.4489092 17.4215215,99.6033277 17.6801507,99.6033277 L17.680819,99.6033277 C17.93878,99.6033277 18.1726824,99.4489092 18.2742629,99.210931 L25.1556727,83.1387082 L29.7996385,99.1373984 C29.8798337,99.4134799 30.1324483,99.6033277 30.4198141,99.6033277 L30.4204824,99.6033277 C30.7078483,99.6033277 30.9604629,99.4141484 31.040658,99.1380668 L37.9200629,75.5788875 L41.8984093,98.7075668 C41.9311556,98.8967462 42.0494434,99.0471538 42.2044873,99.1420777 C42.2853507,99.4067951 42.5219263,99.6033277 42.813302,99.6033277 C43.1701702,99.6033277 43.459541,99.3138766 43.459541,98.9569092 C43.459541,91.1925342 49.7742385,84.8754147 57.536458,84.8754147 C65.2986776,84.8754147 71.6133751,91.1925342 71.6133751,98.9569092 C71.6133751,99.3138766 71.9027459,99.6033277 72.2596141,99.6033277 C72.5509898,99.6033277 72.7882337,99.4067951 72.8684288,99.1420777 C73.0234727,99.0471538 73.1417605,98.8967462 73.1745068,98.7075668 L77.1528532,75.5788875 L84.032258,99.1380668 C84.1124532,99.4141484 84.3650678,99.6033277 84.6524337,99.6033277 L84.653102,99.6033277 C84.9404678,99.6033277 85.1930824,99.4134799 85.2732776,99.1373984 L89.9172434,83.1387082 L96.7986532,99.210931 C96.9002337,99.4489092 97.1341361,99.6033277 97.3927654,99.6033277 C97.6513946,99.6033277 97.8846288,99.4489092 97.9868776,99.2115995 L103.25436,86.9383386 L110.322892,99.2784473 C110.435834,99.4749799 110.643673,99.5979799 110.870224,99.6033277 L110.88359,99.6033277 C111.105463,99.6033277 111.312634,99.4890179 111.430921,99.3011755 L114.857926,93.8470614 C115.047721,93.5449092 114.956834,93.1458277 114.654765,92.9553114 Z" id="Fill-23" fill="#FFFFFF" mask="url(#mask-4)"></path>
            </g>
            <path d="M130.820765,107.217295 C130.518697,107.027447 130.119726,107.11836 129.929931,107.420513 L126.502926,112.873958 C126.313131,113.176779 126.404019,113.575192 126.706087,113.765708 C126.813014,113.832556 126.93197,113.864643 127.04959,113.864643 C127.264112,113.864643 127.474624,113.757686 127.596921,113.562491 L131.023926,108.108377 C131.213721,107.806224 131.122834,107.407143 130.820765,107.217295" id="Fill-26" fill="#FFFFFF"></path>
            <path d="M136.15608,98.7266853 C135.854012,98.5368375 135.455041,98.628419 135.265246,98.9299027 L131.838241,104.383348 C131.648446,104.686169 131.739334,105.084582 132.041402,105.275098 C132.148329,105.341946 132.267285,105.374033 132.384904,105.374033 C132.599426,105.374033 132.809939,105.267077 132.932236,105.071881 L136.359241,99.6177668 C136.549036,99.3156147 136.458148,98.9165332 136.15608,98.7266853" id="Fill-28" fill="#FFFFFF"></path>
            <path d="M68.1377185,11.1623168 L69.9307478,14.4111212 L68.1564307,17.4787679 L66.1963283,14.4071103 L68.1377185,11.1623168 Z M67.6391722,19.0704147 C67.75746,19.2562516 67.9632941,19.368556 68.1831624,19.368556 L68.1978649,19.368556 C68.4230795,19.3638766 68.6302502,19.2415451 68.7431917,19.0463495 L71.232582,14.7420179 C71.3455234,14.5461538 71.3481966,14.3041647 71.2385966,14.1056266 L68.7264844,9.55328967 C68.6142112,9.35074076 68.4030307,9.22306141 68.1718015,9.21905054 C67.9499283,9.23242011 67.7247137,9.33536576 67.6057576,9.5339038 L64.8824649,14.0862408 C64.7561576,14.2968114 64.7601673,14.5595234 64.891821,14.7660832 L67.6391722,19.0704147 Z" id="Fill-30" fill="#FFFFFF"></path>
        </g>
        <g id="Group-3" transform="translate(0.000000, 387.000000)">
            <mask id="mask-6" fill="white">
                <use xlink:href="#path-5"></use>
            </mask>
            <g id="Clip-2"></g>
            <path d="M64.6716978,80.2787818 C68.1645486,80.9687818 70.7171785,84.0068727 70.7171785,87.6157818 C70.7171785,88.4068424 70.5929851,89.1811758 70.347405,89.9269333 L64.6716978,80.2787818 Z M61.6973718,80.2787818 L56.020963,89.9255394 C55.7746812,89.1797818 55.6511895,88.4054485 55.6511895,87.6157818 C55.6511895,84.0068727 58.2038193,80.9687818 61.6973718,80.2787818 Z M115.277339,84.9296606 L64.1728193,1.40481212 C97.7520403,1.93381212 124.965825,29.3282061 124.965825,62.7618424 C124.965825,72.3653879 122.789283,81.5563273 118.49514,90.0907212 C117.511416,88.3266909 116.428057,86.5891455 115.277339,84.9296606 Z M100.388869,63.2810848 L108.794725,77.0197515 C106.614676,74.7608727 104.265527,72.6602061 101.777449,70.7477212 C101.562742,68.2100545 101.097543,65.7100242 100.388869,63.2810848 Z M93.6557641,84.9038727 L79.1763608,61.1246606 C86.8791564,63.1744485 94.0234326,66.6537212 100.426759,71.4753576 C100.492013,72.4225394 100.522886,73.2261455 100.522886,73.9942061 C100.522886,79.5121152 99.323753,84.8223273 96.9584657,89.7875394 C95.9950901,88.0932061 94.8801564,86.4448727 93.6557641,84.9038727 Z M82.7611287,89.1449333 L72.8039077,72.7912364 C77.281184,73.9760848 81.447626,75.9582667 85.202195,78.6910848 C85.2877972,79.4891152 85.3313,80.2773879 85.3313,81.0356909 C85.3313,84.1943576 84.6703387,87.2380242 83.3645541,90.0914182 C83.1631785,89.7582667 82.9603994,89.4397515 82.7611287,89.1449333 Z M48.4493773,83.9002364 L55.5017365,72.3124182 C60.5101674,71.282297 65.795753,71.2690545 70.8848746,72.3340242 L77.9351287,83.9120848 C73.8662171,80.6523576 68.8486646,78.8346606 63.5757088,78.7489333 L63.5700956,78.7489333 L62.7933608,78.7489333 C57.5267199,78.8346606 52.514079,80.6481758 48.4493773,83.9002364 Z M41.1766978,78.617903 C44.9242503,75.9004182 49.0963055,73.9328727 53.5876149,72.7619636 L43.7047696,89.0013576 C43.4662061,89.3491455 43.2346591,89.7094788 43.0045155,90.0921152 C41.6987309,87.2366303 41.037068,84.1936606 41.037068,81.0356909 C41.037068,80.2564788 41.084079,79.4438121 41.1766978,78.617903 Z M40.5704657,74.5106606 C40.2526149,75.6007212 40.014753,76.7172667 39.8589851,77.8540242 C38.9320956,78.5482061 38.0346757,79.2869939 37.1730403,80.0641152 L40.5704657,74.5106606 Z M62.112753,1.40690303 L10.6419685,85.5318424 C9.65613978,87.0003576 8.7173221,88.5343879 7.85919503,90.0788727 L7.85709006,90.0830545 C3.63311215,81.6469333 1.40324475,72.2155394 1.40324475,62.7618424 C1.40324475,29.3721152 28.5791398,1.97911515 62.112753,1.40690303 Z M64.4548856,59.0804485 C74.5517365,59.6498727 82.9786425,66.956903 84.9166204,76.7925394 C80.908753,74.0813273 76.4932227,72.1695394 71.7766812,71.1045697 L64.4548856,59.0804485 Z M61.914184,59.0804485 L54.6113331,71.0794788 C49.8807586,72.1312061 45.4652282,74.0220848 41.4720956,76.7068121 C43.4416481,66.9199636 51.8608359,59.6491758 61.914184,59.0804485 Z M36.2328193,46.3907212 L63.1427862,2.40635758 L89.9334713,46.1920848 C82.7983166,39.4231152 73.288753,35.5674788 63.3855597,35.515903 L62.9821066,35.515903 C52.9680514,35.5674788 43.3911287,39.4942061 36.2328193,46.3907212 Z M61.9176923,36.9370242 L48.1553829,59.4303273 C40.1712227,61.3581455 32.7610182,64.7586606 26.1163221,69.5426606 C28.3040901,51.4047212 43.5040956,37.5482667 61.9176923,36.9370242 Z M73.1336867,59.8366606 C74.5187586,60.0603879 75.8926039,60.3294182 77.2425928,60.6423576 L79.2668746,63.9662061 C77.4502834,62.2725697 75.3846039,60.8807212 73.1336867,59.8366606 Z M53.2346812,59.8359636 C50.9065818,60.9127818 48.7826646,62.3562061 46.928184,64.1202364 L49.0478912,60.654903 C50.4273497,60.3356909 51.8271564,60.0617818 53.2346812,59.8359636 Z M63.382753,57.6460848 L62.9835099,57.6467818 C58.6486702,57.6600242 54.3040072,58.1179333 50.0568746,59.0065697 L63.1827807,37.5524485 L76.2392227,58.9940242 C72.0299796,58.1123576 67.7091729,57.6593273 63.382753,57.6460848 Z M63.184184,59.6875091 L69.9060624,70.7261152 C67.6797033,70.3365091 65.4217696,70.1399636 63.184184,70.1399636 C60.9473,70.1399636 58.6935762,70.3330242 56.4728304,70.7149636 L63.184184,59.6875091 Z M100.259764,69.6123576 C93.5799851,64.7858424 86.1431177,61.3602364 78.1407144,59.4240545 L64.4485707,36.9363273 C82.895847,37.5489636 98.1021674,51.4360848 100.259764,69.6123576 Z M25.948626,71.3938121 C32.2993276,66.6279333 39.4148359,63.1793273 47.1120182,61.1351152 L32.2221453,85.4705091 C31.1857972,86.8435394 30.239963,88.2869636 29.4014823,89.7680242 C27.0740845,84.8446303 25.846184,79.4068727 25.846184,73.9942061 C25.846184,73.2101152 25.8791619,72.3807212 25.948626,71.3938121 Z M89.012195,79.9714182 C88.2024823,79.2479636 87.3703166,78.5635394 86.5206094,77.9244182 C86.3795762,76.8817515 86.1697807,75.8537212 85.890521,74.8445091 L89.012195,79.9714182 Z M26.0622945,63.0134485 C25.3143276,65.5030242 24.8238691,68.0664788 24.598637,70.6689636 C22.0726702,72.6044485 19.6863331,74.7427515 17.4719022,77.0525091 L26.0622945,63.0134485 Z M63.184184,-0.000278787879 C28.3447862,-0.000278787879 -7.01657459e-05,28.1545091 -7.01657459e-05,62.7618424 C-7.01657459e-05,72.7020242 2.41222818,82.6164182 6.97510663,91.4337818 L7.07333867,91.6226606 L8.40648785,91.6226606 L8.63031657,91.5975697 L8.72925028,91.4135697 C8.8443221,91.200297 8.95869227,90.9863273 9.06955414,90.7876909 L11.8158414,86.2971152 C15.3178138,81.0844788 19.574068,76.4614788 24.473742,72.545903 C24.4533939,73.0560848 24.4428691,73.534903 24.4428691,73.9942061 C24.4428691,80.0167212 25.9009133,86.046903 28.6598304,91.4323879 L28.7566591,91.6226606 L30.1003331,91.6226606 L33.3763718,86.2650545 C35.213311,83.8382061 37.3281066,81.653903 39.6723442,79.7630242 C39.6463829,80.2014182 39.633753,80.6223879 39.633753,81.0356909 C39.633753,84.666903 40.4652171,88.1636 42.1049906,91.430297 L42.2018193,91.6226606 L43.7496757,91.6226606 L44.8786425,89.7659333 C47.8403387,85.4544788 52.3098967,82.297903 57.3281508,80.9213879 C55.3950845,82.5913273 54.2478746,85.0265394 54.2478746,87.6157818 C54.2478746,88.9260848 54.5446757,90.2078121 55.131963,91.4247212 L55.2280901,91.6226606 L56.6475431,91.6226606 L63.184184,80.5143576 L69.7201232,91.6226606 L71.1409796,91.6226606 L71.236405,91.4247212 C71.8229906,90.2085091 72.1204934,88.9267818 72.1204934,87.6157818 C72.1204934,85.0265394 70.9725818,82.5906303 69.0402171,80.9206909 C74.1068856,82.3097515 78.6038083,85.5053576 81.5584878,89.8635091 L82.6306204,91.6226606 L84.1679519,91.6226606 L84.2647807,91.430297 C85.9038525,88.1649939 86.7346149,84.6676 86.7346149,81.0356909 C86.7346149,80.6537515 86.7240901,80.2606606 86.7009354,79.8480545 C88.8416923,81.5779333 90.7894934,83.539903 92.4762779,85.6600848 L96.1073552,91.6226606 L97.6039906,91.6226606 L97.701521,91.4330848 C100.504643,85.9813879 101.926201,80.114297 101.926201,73.9942061 C101.926201,73.5509333 101.917079,73.0937212 101.898836,72.6135091 C106.575383,76.3583273 110.674466,80.7499333 114.081714,85.6614788 L117.72893,91.6226606 L119.275383,91.6226606 L119.373615,91.4337818 C124.015079,82.4951455 126.36914,72.8483879 126.36914,62.7618424 C126.36914,28.1545091 98.0242834,-0.000278787879 63.184184,-0.000278787879 Z" id="Fill-1" fill="#FFFFFF" mask="url(#mask-6)"></path>
        </g>
        <g id="Group-3-Copy" transform="translate(63.500000, 541.000000) rotate(-180.000000) translate(-63.500000, -541.000000) translate(0.000000, 495.000000)">
            <mask id="mask-8" fill="white">
                <use xlink:href="#path-7"></use>
            </mask>
            <g id="Clip-2"></g>
            <path d="M64.6716978,80.2787818 C68.1645486,80.9687818 70.7171785,84.0068727 70.7171785,87.6157818 C70.7171785,88.4068424 70.5929851,89.1811758 70.347405,89.9269333 L64.6716978,80.2787818 Z M61.6973718,80.2787818 L56.020963,89.9255394 C55.7746812,89.1797818 55.6511895,88.4054485 55.6511895,87.6157818 C55.6511895,84.0068727 58.2038193,80.9687818 61.6973718,80.2787818 Z M115.277339,84.9296606 L64.1728193,1.40481212 C97.7520403,1.93381212 124.965825,29.3282061 124.965825,62.7618424 C124.965825,72.3653879 122.789283,81.5563273 118.49514,90.0907212 C117.511416,88.3266909 116.428057,86.5891455 115.277339,84.9296606 Z M100.388869,63.2810848 L108.794725,77.0197515 C106.614676,74.7608727 104.265527,72.6602061 101.777449,70.7477212 C101.562742,68.2100545 101.097543,65.7100242 100.388869,63.2810848 Z M93.6557641,84.9038727 L79.1763608,61.1246606 C86.8791564,63.1744485 94.0234326,66.6537212 100.426759,71.4753576 C100.492013,72.4225394 100.522886,73.2261455 100.522886,73.9942061 C100.522886,79.5121152 99.323753,84.8223273 96.9584657,89.7875394 C95.9950901,88.0932061 94.8801564,86.4448727 93.6557641,84.9038727 Z M82.7611287,89.1449333 L72.8039077,72.7912364 C77.281184,73.9760848 81.447626,75.9582667 85.202195,78.6910848 C85.2877972,79.4891152 85.3313,80.2773879 85.3313,81.0356909 C85.3313,84.1943576 84.6703387,87.2380242 83.3645541,90.0914182 C83.1631785,89.7582667 82.9603994,89.4397515 82.7611287,89.1449333 Z M48.4493773,83.9002364 L55.5017365,72.3124182 C60.5101674,71.282297 65.795753,71.2690545 70.8848746,72.3340242 L77.9351287,83.9120848 C73.8662171,80.6523576 68.8486646,78.8346606 63.5757088,78.7489333 L63.5700956,78.7489333 L62.7933608,78.7489333 C57.5267199,78.8346606 52.514079,80.6481758 48.4493773,83.9002364 Z M41.1766978,78.617903 C44.9242503,75.9004182 49.0963055,73.9328727 53.5876149,72.7619636 L43.7047696,89.0013576 C43.4662061,89.3491455 43.2346591,89.7094788 43.0045155,90.0921152 C41.6987309,87.2366303 41.037068,84.1936606 41.037068,81.0356909 C41.037068,80.2564788 41.084079,79.4438121 41.1766978,78.617903 Z M40.5704657,74.5106606 C40.2526149,75.6007212 40.014753,76.7172667 39.8589851,77.8540242 C38.9320956,78.5482061 38.0346757,79.2869939 37.1730403,80.0641152 L40.5704657,74.5106606 Z M62.112753,1.40690303 L10.6419685,85.5318424 C9.65613978,87.0003576 8.7173221,88.5343879 7.85919503,90.0788727 L7.85709006,90.0830545 C3.63311215,81.6469333 1.40324475,72.2155394 1.40324475,62.7618424 C1.40324475,29.3721152 28.5791398,1.97911515 62.112753,1.40690303 Z M64.4548856,59.0804485 C74.5517365,59.6498727 82.9786425,66.956903 84.9166204,76.7925394 C80.908753,74.0813273 76.4932227,72.1695394 71.7766812,71.1045697 L64.4548856,59.0804485 Z M61.914184,59.0804485 L54.6113331,71.0794788 C49.8807586,72.1312061 45.4652282,74.0220848 41.4720956,76.7068121 C43.4416481,66.9199636 51.8608359,59.6491758 61.914184,59.0804485 Z M36.2328193,46.3907212 L63.1427862,2.40635758 L89.9334713,46.1920848 C82.7983166,39.4231152 73.288753,35.5674788 63.3855597,35.515903 L62.9821066,35.515903 C52.9680514,35.5674788 43.3911287,39.4942061 36.2328193,46.3907212 Z M61.9176923,36.9370242 L48.1553829,59.4303273 C40.1712227,61.3581455 32.7610182,64.7586606 26.1163221,69.5426606 C28.3040901,51.4047212 43.5040956,37.5482667 61.9176923,36.9370242 Z M73.1336867,59.8366606 C74.5187586,60.0603879 75.8926039,60.3294182 77.2425928,60.6423576 L79.2668746,63.9662061 C77.4502834,62.2725697 75.3846039,60.8807212 73.1336867,59.8366606 Z M53.2346812,59.8359636 C50.9065818,60.9127818 48.7826646,62.3562061 46.928184,64.1202364 L49.0478912,60.654903 C50.4273497,60.3356909 51.8271564,60.0617818 53.2346812,59.8359636 Z M63.382753,57.6460848 L62.9835099,57.6467818 C58.6486702,57.6600242 54.3040072,58.1179333 50.0568746,59.0065697 L63.1827807,37.5524485 L76.2392227,58.9940242 C72.0299796,58.1123576 67.7091729,57.6593273 63.382753,57.6460848 Z M63.184184,59.6875091 L69.9060624,70.7261152 C67.6797033,70.3365091 65.4217696,70.1399636 63.184184,70.1399636 C60.9473,70.1399636 58.6935762,70.3330242 56.4728304,70.7149636 L63.184184,59.6875091 Z M100.259764,69.6123576 C93.5799851,64.7858424 86.1431177,61.3602364 78.1407144,59.4240545 L64.4485707,36.9363273 C82.895847,37.5489636 98.1021674,51.4360848 100.259764,69.6123576 Z M25.948626,71.3938121 C32.2993276,66.6279333 39.4148359,63.1793273 47.1120182,61.1351152 L32.2221453,85.4705091 C31.1857972,86.8435394 30.239963,88.2869636 29.4014823,89.7680242 C27.0740845,84.8446303 25.846184,79.4068727 25.846184,73.9942061 C25.846184,73.2101152 25.8791619,72.3807212 25.948626,71.3938121 Z M89.012195,79.9714182 C88.2024823,79.2479636 87.3703166,78.5635394 86.5206094,77.9244182 C86.3795762,76.8817515 86.1697807,75.8537212 85.890521,74.8445091 L89.012195,79.9714182 Z M26.0622945,63.0134485 C25.3143276,65.5030242 24.8238691,68.0664788 24.598637,70.6689636 C22.0726702,72.6044485 19.6863331,74.7427515 17.4719022,77.0525091 L26.0622945,63.0134485 Z M63.184184,-0.000278787879 C28.3447862,-0.000278787879 -7.01657459e-05,28.1545091 -7.01657459e-05,62.7618424 C-7.01657459e-05,72.7020242 2.41222818,82.6164182 6.97510663,91.4337818 L7.07333867,91.6226606 L8.40648785,91.6226606 L8.63031657,91.5975697 L8.72925028,91.4135697 C8.8443221,91.200297 8.95869227,90.9863273 9.06955414,90.7876909 L11.8158414,86.2971152 C15.3178138,81.0844788 19.574068,76.4614788 24.473742,72.545903 C24.4533939,73.0560848 24.4428691,73.534903 24.4428691,73.9942061 C24.4428691,80.0167212 25.9009133,86.046903 28.6598304,91.4323879 L28.7566591,91.6226606 L30.1003331,91.6226606 L33.3763718,86.2650545 C35.213311,83.8382061 37.3281066,81.653903 39.6723442,79.7630242 C39.6463829,80.2014182 39.633753,80.6223879 39.633753,81.0356909 C39.633753,84.666903 40.4652171,88.1636 42.1049906,91.430297 L42.2018193,91.6226606 L43.7496757,91.6226606 L44.8786425,89.7659333 C47.8403387,85.4544788 52.3098967,82.297903 57.3281508,80.9213879 C55.3950845,82.5913273 54.2478746,85.0265394 54.2478746,87.6157818 C54.2478746,88.9260848 54.5446757,90.2078121 55.131963,91.4247212 L55.2280901,91.6226606 L56.6475431,91.6226606 L63.184184,80.5143576 L69.7201232,91.6226606 L71.1409796,91.6226606 L71.236405,91.4247212 C71.8229906,90.2085091 72.1204934,88.9267818 72.1204934,87.6157818 C72.1204934,85.0265394 70.9725818,82.5906303 69.0402171,80.9206909 C74.1068856,82.3097515 78.6038083,85.5053576 81.5584878,89.8635091 L82.6306204,91.6226606 L84.1679519,91.6226606 L84.2647807,91.430297 C85.9038525,88.1649939 86.7346149,84.6676 86.7346149,81.0356909 C86.7346149,80.6537515 86.7240901,80.2606606 86.7009354,79.8480545 C88.8416923,81.5779333 90.7894934,83.539903 92.4762779,85.6600848 L96.1073552,91.6226606 L97.6039906,91.6226606 L97.701521,91.4330848 C100.504643,85.9813879 101.926201,80.114297 101.926201,73.9942061 C101.926201,73.5509333 101.917079,73.0937212 101.898836,72.6135091 C106.575383,76.3583273 110.674466,80.7499333 114.081714,85.6614788 L117.72893,91.6226606 L119.275383,91.6226606 L119.373615,91.4337818 C124.015079,82.4951455 126.36914,72.8483879 126.36914,62.7618424 C126.36914,28.1545091 98.0242834,-0.000278787879 63.184184,-0.000278787879 Z" id="Fill-1" fill="#FFFFFF" mask="url(#mask-8)"></path>
        </g>
        <g id="Group-7-Copy" transform="translate(289.000000, 43.000000) rotate(-180.000000) translate(-289.000000, -43.000000) translate(222.000000, 0.000000)" fill="#EBEFF5">
            <path d="M11.3356,81.7455 C25.5706,77.3315 36.3216,68.8315 41.4586,55.3835 C35.1886,55.6315 28.7026,56.9365 22.6076,55.9115 C9.3796,53.6875 0.6716,42.6815 0.0286,29.1525 C-0.5584,16.7885 7.9126,5.0405 20.1176,1.2925 C32.6306,-2.5495 46.0426,2.6425 53.0636,13.8205 C59.4036,23.9155 59.4546,34.9025 56.5096,45.6525 C50.9436,65.9685 37.9296,79.4415 17.1076,84.6085 C14.8596,85.1665 11.6036,86.8425 11.3356,81.7455" id="Fill-1"></path>
            <path d="M86.8748,81.5356 C101.3518,77.2836 111.6998,68.5806 116.9428,55.1726 C110.9028,55.5726 104.7488,57.0236 98.9428,56.1526 C85.8718,54.1916 76.1568,43.1296 75.6258,31.1576 C74.9698,16.3596 82.7668,4.8596 95.9968,1.1156 C108.9798,-2.5594 122.6508,3.0356 129.1808,15.1146 C136.1748,28.0496 134.5968,41.2806 128.9358,54.0676 C121.5998,70.6346 109.0498,81.2886 90.9958,84.7986 C89.6138,85.0676 87.9828,84.0576 86.4668,83.6426 C86.6028,82.9406 86.7388,82.2376 86.8748,81.5356" id="Fill-4"></path>
        </g>
        <g id="Group-7" transform="translate(372.000000, 0.000000)" fill="#EBEFF5">
            <path d="M11.3356,81.7455 C25.5706,77.3315 36.3216,68.8315 41.4586,55.3835 C35.1886,55.6315 28.7026,56.9365 22.6076,55.9115 C9.3796,53.6875 0.6716,42.6815 0.0286,29.1525 C-0.5584,16.7885 7.9126,5.0405 20.1176,1.2925 C32.6306,-2.5495 46.0426,2.6425 53.0636,13.8205 C59.4036,23.9155 59.4546,34.9025 56.5096,45.6525 C50.9436,65.9685 37.9296,79.4415 17.1076,84.6085 C14.8596,85.1665 11.6036,86.8425 11.3356,81.7455" id="Fill-1"></path>
            <path d="M86.8748,81.5356 C101.3518,77.2836 111.6998,68.5806 116.9428,55.1726 C110.9028,55.5726 104.7488,57.0236 98.9428,56.1526 C85.8718,54.1916 76.1568,43.1296 75.6258,31.1576 C74.9698,16.3596 82.7668,4.8596 95.9968,1.1156 C108.9798,-2.5594 122.6508,3.0356 129.1808,15.1146 C136.1748,28.0496 134.5968,41.2806 128.9358,54.0676 C121.5998,70.6346 109.0498,81.2886 90.9958,84.7986 C89.6138,85.0676 87.9828,84.0576 86.4668,83.6426 C86.6028,82.9406 86.7388,82.2376 86.8748,81.5356" id="Fill-4"></path>
        </g>
        <g id="language" transform="translate(63.000000, 68.000000)" fill="#000000" fill-rule="nonzero">
            <path d="M12.5,0 C5.59651693,0 0,5.59651693 0,12.5 C0,19.4034831 5.59651693,25 12.5,25 C19.4034831,25 25,19.4034831 25,12.5 C24.9922689,5.59977214 19.4002279,0.00773114583 12.5,0 Z M23.3107503,16.879069 L19.7558594,17.4924723 C20.1627604,16.0001628 20.382487,14.4630941 20.4099528,12.9166667 L24.1562907,12.9166667 C24.1092936,14.2769369 23.8230387,15.6182861 23.3107503,16.879069 Z M0.843709323,12.9166667 L4.59004719,12.9166667 C4.61751302,14.4630941 4.83723958,16.0001628 5.24414062,17.4924723 L1.68924969,16.879069 C1.17696125,15.6182861 0.890706354,14.2769369 0.843709323,12.9166667 Z M1.68924969,8.12093099 L5.24414062,7.50752766 C4.83723958,8.99983724 4.61751302,10.5369059 4.59004719,12.0833333 L0.843709323,12.0833333 C0.890706354,10.7230631 1.17696125,9.38171385 1.68924969,8.12093099 Z M12.9166667,6.69006349 C14.4138591,6.70918781 15.9073893,6.84549969 17.3834229,7.09798177 L18.8541667,7.35168458 C19.3060303,8.88936359 19.5491536,10.4807536 19.5770264,12.0833333 L12.9166667,12.0833333 L12.9166667,6.69006349 Z M17.5254313,6.27665203 C16.0026042,6.0164388 14.4614665,5.87585448 12.9166667,5.85673016 L12.9166667,0.856730156 C15.3053792,1.08622234 17.3803711,3.27331542 18.5563151,6.45629885 L17.5254313,6.27665203 Z M12.0833333,5.85673016 C10.5385335,5.87585448 8.99780271,6.0164388 7.47497557,6.27665203 L6.4436849,6.45507813 C7.61962891,3.27128094 9.69462078,1.08337401 12.0833333,0.854899063 L12.0833333,5.85673016 Z M7.61698406,7.09798177 C9.09281411,6.84549969 10.5861409,6.70918781 12.0833333,6.69006349 L12.0833333,12.0833333 L5.42297365,12.0833333 C5.45084635,10.4807536 5.69396974,8.88936359 6.14583333,7.35168458 L7.61698406,7.09798177 Z M5.42297365,12.9166667 L12.0833333,12.9166667 L12.0833333,18.3099365 C10.5861409,18.2908122 9.09261068,18.1545003 7.61657714,17.9020182 L6.14583333,17.6483154 C5.69396974,16.1106364 5.45084635,14.5192464 5.42297365,12.9166667 Z M7.4745687,18.723348 C8.99739583,18.9839681 10.5383301,19.1251628 12.0833333,19.1455078 L12.0833333,24.1455078 C9.69462078,23.9158122 7.61962891,21.7287191 6.4436849,18.5457357 L7.4745687,18.723348 Z M12.9166667,19.1455078 C14.4614665,19.1251628 16.0021973,18.9839681 17.5250244,18.723348 L18.5563151,18.5449219 C17.3803711,21.7287191 15.3053792,23.916626 12.9166667,24.1451009 L12.9166667,19.1455078 Z M17.3830159,17.9020182 C15.9071859,18.1545003 14.4138591,18.2908122 12.9166667,18.3099365 L12.9166667,12.9166667 L19.5770264,12.9166667 C19.5491536,14.5192464 19.3060303,16.1106364 18.8541667,17.6483154 L17.3830159,17.9020182 Z M20.4099528,12.0833333 C20.382487,10.5369059 20.1627604,8.99983724 19.7558594,7.50752766 L23.3107503,8.12093099 C23.8230387,9.38171385 24.1092936,10.7230631 24.1562907,12.0833333 L20.4099528,12.0833333 Z M22.8892008,7.20255531 L19.4816081,6.61458333 C18.8690185,4.61608885 17.7229818,2.82246906 16.1665853,1.42700198 C19.076945,2.39827474 21.4904785,4.47163901 22.8892008,7.20255531 Z M8.83341469,1.42700198 C7.27701823,2.82246906 6.13098146,4.61608885 5.51839193,6.61458333 L2.11079917,7.20255531 C3.50952146,4.47163901 5.923055,2.39827474 8.83341469,1.42700198 Z M2.11079917,17.7974447 L5.51839193,18.3854167 C6.13098146,20.3839111 7.27701823,22.1775309 8.83341469,23.572998 C5.923055,22.6017253 3.50952146,20.528361 2.11079917,17.7974447 Z M16.1665853,23.572998 C17.7229818,22.1775309 18.8690185,20.3839111 19.4816081,18.3854167 L22.8892008,17.7974447 C21.4904785,20.528361 19.076945,22.6017253 16.1665853,23.572998 Z" id="Shape"></path>
        </g>
        <g id="icon-facebook" transform="translate(104.000000, 68.000000)">
            <polygon id="Clip-2" points="0 0 10 0 10 23 0 23"></polygon>
            <path d="M10,7.44762591 L6.593567,7.44762591 L6.593567,5.06003964 C6.593567,4.16435695 7.15030128,3.95444539 7.54171264,3.95444539 L9.94347789,3.95444539 L9.94347789,0.0129730746 L6.63396419,0 C2.96121531,0 2.12611389,2.93966267 2.12611389,4.81985758 L2.12611389,7.44762591 L0,7.44762591 L0,11.5071172 L2.12611389,11.5071172 L2.12611389,23 L6.593567,23 L6.593567,11.5071172 L9.60858864,11.5071172 L10,7.44762591 Z" id="Fill-1" fill="#000000"></path>
        </g>
    </g>
</svg>