<?xml version="1.0" encoding="UTF-8"?>
<svg width="89px" height="24px" viewBox="0 0 89 24" version="1.1" xmlns="http://www.w3.org/2000/svg" xmlns:xlink="http://www.w3.org/1999/xlink">
    <!-- Generator: Sketch 52.3 (67297) - http://www.bohemiancoding.com/sketch -->
    <title>humain-avant-tout_sprite</title>
    <desc>Created with Sketch.</desc>
    <g id="humain-avant-tout_sprite" stroke="none" stroke-width="1" fill="none" fill-rule="evenodd">
        <g id="paper-plane" transform="translate(0.000000, 2.000000)" fill="#1A1A1A" fill-rule="nonzero">
            <path d="M0.00211241386,10.50279 C0.0314832839,11.005025 0.359458,11.4276981 0.834287066,11.5719042 L9.6259675,14.2720392 L9.94904708,20.4281482 C9.96373251,20.6718068 10.1252723,20.8856296 10.3553441,20.9651916 C10.418981,20.9900548 10.487513,21 10.5511499,21 C10.72248,21 10.8840198,20.9303833 11.0015033,20.7961224 L14.1099203,17.3003675 L18.5155508,20.3983125 C18.7113566,20.5375459 18.9414285,20.6121353 19.1812906,20.6121353 C19.734442,20.6121353 20.2141662,20.2143253 20.3316496,19.6573914 L23.988323,0.726610444 C24.0323793,0.507814972 23.9491618,0.279074251 23.7827269,0.139840769 C23.6113968,-0.00436533795 23.381325,-0.0391737085 23.1757289,0.0453609057 L0.707013295,9.33422323 C0.251764809,9.54307345 -0.0272584562,10.0005549 0.00211241386,10.50279 Z M11.0651401,18.9015525 L10.8644392,15.0179329 L13.1162059,16.5992274 L11.0651401,18.9015525 Z M19.16171,19.3739518 L11.1434625,13.7349958 L22.3876105,2.68582445 L19.16171,19.3739518 Z M21.154034,2.19850726 L10.0371597,13.123363 L1.25526954,10.4282006 L21.154034,2.19850726 Z" id="Shape"></path>
        </g>
        <g id="left-arrow-copy" transform="translate(80.500000, 12.500000) rotate(-180.000000) translate(-80.500000, -12.500000) translate(72.000000, 4.000000)" fill="#1A1A1A" fill-rule="nonzero">
            <path d="M8.08715217,0.723847826 C8.40567391,0.405326087 8.90713043,0.405326087 9.22565217,0.723847826 C9.53341304,1.0316087 9.53341304,1.54382609 9.22565217,1.85086957 L3.45280435,7.62371739 L15.9125658,7.62371739 C16.356631,7.62371739 16.7210658,7.97667391 16.7210658,8.42073913 C16.7210658,8.86480435 16.356631,9.22923913 15.9125658,9.22923913 L3.45280435,9.22923913 L9.22565217,14.9913261 C9.53341304,15.3098478 9.53341304,15.8227826 9.22565217,16.1298261 C8.90713043,16.4483478 8.40567391,16.4483478 8.08715217,16.1298261 L0.947673913,8.99034783 C0.639913043,8.68258696 0.639913043,8.17036957 0.947673913,7.86332609 L8.08715217,0.723847826 Z" id="Shape"></path>
        </g>
        <g id="chat" transform="translate(36.000000, 0.000000)" fill="#1A1A1A" fill-rule="nonzero">
            <path d="M20.4644184,3.51464435 C18.1999833,1.25020921 15.1924519,0 11.9891046,0 C8.78575732,0 5.77822594,1.25020921 3.51379079,3.51464435 C-0.854410042,7.88284519 -1.17072803,14.8619247 2.72048536,19.5916318 C2.18324686,20.6912134 1.55061088,21.4242678 0.832619247,21.7757322 C0.395799163,21.9916318 0.149774059,22.4635983 0.220066946,22.9456067 C0.295380753,23.432636 0.66692887,23.809205 1.15395816,23.8845188 C1.42006695,23.9246862 1.70625941,23.9497908 2.00249372,23.9497908 C3.47362343,23.9497908 5.02006695,23.4426778 6.31044351,22.5539749 C8.04768201,23.4878661 10.0008201,23.9799163 11.9891046,23.9799163 C15.1924519,23.9799163 18.1999833,22.734728 20.4644184,20.4702929 C22.7288536,18.2058577 23.9740418,15.1933054 23.9740418,11.9949791 C23.9740418,8.79665272 22.7288536,5.7790795 20.4644184,3.51464435 Z M19.5054226,19.5062762 C17.4970544,21.5146444 14.8259247,22.6192469 11.9891046,22.6192469 C10.0911967,22.6192469 8.22843515,22.1121339 6.60667782,21.158159 C6.50123849,21.0979079 6.3807364,21.0627615 6.26525523,21.0627615 C6.11964854,21.0627615 5.96902092,21.1129707 5.84851883,21.2033473 C4.31211715,22.3933054 2.76567364,22.5690377 2.08784937,22.5841004 C2.89621757,21.98159 3.57404184,21.0476987 4.14140586,19.7472803 C4.24684519,19.5062762 4.2016569,19.2251046 4.02592469,19.0242678 C0.310443515,14.8267782 0.506259414,8.43012552 4.47278661,4.46359833 C6.48115481,2.45523013 9.15228452,1.35062762 11.9891046,1.35062762 C14.8259247,1.35062762 17.4970544,2.45523013 19.5054226,4.46359833 C23.6527029,8.61589958 23.6527029,15.3640167 19.5054226,19.5062762 Z" id="Shape"></path>
            <path d="M17.0100251,8.0334728 L6.9681841,8.0334728 C6.59161506,8.0334728 6.29035983,8.33472803 6.29035983,8.71129707 C6.29035983,9.08786611 6.59161506,9.38912134 6.9681841,9.38912134 L17.0100251,9.38912134 C17.3865941,9.38912134 17.6878494,9.08786611 17.6878494,8.71129707 C17.6878494,8.33472803 17.3815732,8.0334728 17.0100251,8.0334728 Z" id="Shape"></path>
            <path d="M17.0100251,11.3121339 L6.9681841,11.3121339 C6.59161506,11.3121339 6.29035983,11.6133891 6.29035983,11.9899582 C6.29035983,12.3665272 6.59161506,12.6677824 6.9681841,12.6677824 L17.0100251,12.6677824 C17.3865941,12.6677824 17.6878494,12.3665272 17.6878494,11.9899582 C17.6878494,11.6133891 17.3815732,11.3121339 17.0100251,11.3121339 Z" id="Shape"></path>
            <path d="M17.0100251,14.590795 L6.9681841,14.590795 C6.59161506,14.590795 6.29035983,14.8920502 6.29035983,15.2686192 C6.29035983,15.6451883 6.59161506,15.9464435 6.9681841,15.9464435 L17.0100251,15.9464435 C17.3865941,15.9464435 17.6878494,15.6451883 17.6878494,15.2686192 C17.6878494,14.8920502 17.3815732,14.590795 17.0100251,14.590795 Z" id="Shape"></path>
        </g>
    </g>
</svg>