<?xml version="1.0" encoding="UTF-8"?>
<svg width="213px" height="62px" viewBox="0 0 213 62" version="1.1" xmlns="http://www.w3.org/2000/svg" xmlns:xlink="http://www.w3.org/1999/xlink">
    <!-- Generator: Sketch 52.3 (67297) - http://www.bohemiancoding.com/sketch -->
    <title>Group 58 Copy</title>
    <desc>Created with Sketch.</desc>
    <g id="Page-1" stroke="none" stroke-width="1" fill="none" fill-rule="evenodd">
        <g id="témoignages_single" transform="translate(-73.000000, -57.000000)" fill="#000000">
            <g id="Group-58-Copy" transform="translate(73.000000, 57.000000)">
                <path d="M34.075325,37.8720111 C34.2266049,37.7662932 34.3521462,37.680712 34.4755864,37.5919513 C34.6079564,37.4960368 34.733235,37.389259 34.8711203,37.3018231 C35.0389465,37.1961051 35.0231882,37.0909171 34.9028996,36.9600282 C34.7424274,36.7864812 34.5830057,36.6121393 34.4354027,36.428259 C34.1992905,36.1323017 34.2037554,35.8238915 34.4354027,35.6267632 C34.6849095,35.4150624 34.9885199,35.4550709 35.2511586,35.7369855 C35.3974483,35.8956949 35.551092,36.0485752 35.6805729,36.2205325 C35.7533238,36.3193615 35.7761734,36.3673188 35.8657332,36.2364299 C36.1556863,35.8130282 36.4114964,35.3731991 36.6103139,34.8983957 C36.979584,34.0197974 37.1545014,33.1011906 37.2009884,32.1518487 C37.2540414,31.0721479 37.1510871,30.0086094 36.7584422,29.0033615 C36.2449835,27.6881137 35.3974483,26.6227205 34.2460402,25.7963188 C33.3338959,25.1408145 32.3408589,24.6524983 31.2566863,24.4331137 C29.6493374,24.1058915 28.0711413,24.3213017 26.5509884,24.9500453 C24.9268306,25.6219769 23.8859933,26.8434299 23.2698429,28.4694726 C22.9341906,29.3552248 22.7561216,30.2759513 22.6610464,31.2184043 C22.5814668,32.0090368 22.5452227,32.8060282 22.736161,33.576259 C23.0828441,34.9760282 23.8970242,36.0732162 25.0376641,36.9290282 C26.2578836,37.8444556 27.629383,38.3960966 29.1188072,38.6721821 C29.6209724,38.7649171 30.1234002,38.8311564 30.6536678,38.7853188 C30.5578047,38.6366778 30.476912,38.5079085 30.3949687,38.3804641 C30.3054089,38.2418915 30.2074446,38.108353 30.1265519,37.965541 C29.9364015,37.6309 30.0010106,37.3227547 30.2859736,37.1563615 C30.5289144,37.0151393 30.8721832,37.1168829 31.0515655,37.3966778 C31.2506456,37.7069427 31.4421092,38.0222419 31.6298959,38.3396607 C31.7664681,38.5728231 31.898838,38.721994 32.227399,38.6274043 C32.4711277,38.5566607 32.7009366,38.4313359 32.9619995,38.4059 C33.104875,38.3918573 33.0836012,38.2927632 33.0239822,38.1748573 C32.8459132,37.8282932 32.6260846,37.5034556 32.4916136,37.135165 C32.3834064,36.837088 32.4792695,36.5848487 32.7581919,36.4441564 C32.9943041,36.3257205 33.3089453,36.4261393 33.4476185,36.6789085 C33.6593053,37.066541 33.8596986,37.4602675 34.075325,37.8720111 M29.9245827,23.2431906 C31.688727,23.2299427 33.2973891,23.848353 34.7697418,24.8843359 C35.810579,25.6169427 36.6460328,26.5411137 37.2624459,27.6608231 C38.0075519,29.0129 38.310637,30.4770538 38.2546949,32.0119513 C38.2079453,33.3126265 37.9560747,34.5730282 37.3698651,35.7499684 C36.719309,37.0556778 35.7688195,38.0762932 34.5223361,38.8136692 C33.7764422,39.2548231 32.969616,39.5560795 32.1236567,39.7147889 C31.3226086,39.8655496 30.5094792,39.8912504 29.6924101,39.8059342 C28.6011462,39.6925325 27.5490155,39.4270453 26.5478367,38.9903957 C24.6746974,38.1737974 23.1109465,36.992088 22.1825186,35.0912846 C21.570833,33.8390966 21.4749699,32.5076863 21.6167948,31.1519 C21.727891,30.091541 21.9269711,29.0468145 22.3146259,28.0444812 C22.9218466,26.4759342 23.8770636,25.2142077 25.3478404,24.3716436 C26.7524323,23.5669684 28.2767874,23.2757803 29.9245827,23.2431906" id="Fill-1"></path>
                <path d="M30.6143508,33.1043436 C30.6130376,33.4877368 30.3806023,33.6819504 30.0441621,33.5998137 C29.9609057,33.5799419 29.9159945,33.554241 29.917045,33.4620359 C29.9178329,33.3565829 29.9569661,33.3112752 30.0662238,33.3261128 C30.2529599,33.3512838 30.3672078,33.2863692 30.3498736,33.0738735 C30.3412065,32.9644462 30.3346406,32.866412 30.500103,32.8812496 C30.681849,32.8966171 30.5888748,33.0304205 30.6143508,33.1043436" id="Fill-3"></path>
                <path d="M29.4078673,32.5477744 C29.4118069,32.183988 29.7078007,31.9932188 30.0145628,32.1180137 C30.1043852,32.1548427 30.1043852,32.2184325 30.1051731,32.2907658 C30.1083248,32.4121162 30.0190276,32.3811162 29.9533679,32.3789966 C29.8215233,32.3752872 29.7127909,32.3808513 29.6857391,32.555988 C29.6702434,32.649253 29.8005122,32.8326034 29.5607231,32.8246547 C29.3248735,32.8172359 29.4785171,32.6097744 29.4078673,32.5477744" id="Fill-5"></path>
                <path d="M30.2491254,40.0465419 C29.2526741,39.9879863 28.2165644,39.8568325 27.1709996,39.6559949 C25.2232709,39.282935 23.2135594,38.6849265 21.0270921,37.8285846 C18.4847493,36.8328752 16.1438504,35.6395077 14.0687419,34.2821316 C13.1334855,33.6706103 11.301843,31.9587214 11.160806,31.7467556 L11.1392697,31.6948239 L11.1130058,31.6685932 C11.0715089,31.5973197 11.0058492,31.3962171 11.0029602,31.315935 C11.0701957,31.1476872 11.2661242,30.9510889 11.42397,30.7923795 L11.5169441,30.6991145 C11.7267925,30.4834393 16.226319,26.8667726 18.4750317,25.7536872 C19.7926901,25.1013624 21.2119898,24.5404479 22.6951106,24.0857812 C24.3565631,23.5765333 26.0114497,23.237388 27.6135459,23.076559 C29.1988332,22.9189094 30.8019799,22.9048667 32.3807012,23.0341658 C34.0797111,23.1735333 35.806298,23.4877726 37.510298,23.9676103 C38.4747074,24.2405162 39.4031353,24.5661487 40.2690551,24.9368239 C41.6807382,25.5401316 42.9104127,26.1892769 44.0284657,26.9216188 C45.3847321,27.8108154 46.4166396,28.6353624 47.2757308,29.5174051 C47.8380403,30.0939521 48.2186038,30.5737897 48.5098702,31.0716444 C48.6217543,31.2637385 48.5799947,31.378465 48.3772376,31.6738923 C47.7595113,32.5779265 46.9474324,33.3176872 45.920515,34.1507128 C44.345208,35.4272769 42.5298492,36.5843453 40.523552,37.5885333 C38.9201427,38.3908239 37.2888936,39.0132085 35.6781303,39.4392598 C33.7469478,39.9503624 31.9736112,40.1474906 30.2491254,40.0465419 Z M50.1011982,30.9865932 L50.102774,30.9709607 L50.0817629,30.9100205 C50.0712573,30.8792855 50.0610144,30.8485504 50.0507715,30.8175504 C50.0263461,30.7404479 49.9985064,30.652747 49.9559589,30.5669009 C49.5522832,29.7203624 48.9264152,29.0349179 48.3683079,28.4761231 C47.1937875,27.3005077 45.7734374,26.2247812 44.0268899,25.1869436 C42.6180958,24.3502085 41.0682647,23.6276701 39.4183683,23.0397299 C37.7745126,22.4531145 36.0952006,22.0363368 34.4284953,21.8013197 C33.3401205,21.6481744 32.1695397,21.5043026 30.9881908,21.4892 C30.7717764,21.4862855 30.5561501,21.4849607 30.3413116,21.4849607 C29.1914793,21.4849607 28.2580613,21.5339778 27.4039602,21.637841 C26.3313436,21.7687299 25.457282,21.9080974 24.6536075,22.0771402 C23.9893942,22.2170376 23.270552,22.4011829 22.3901871,22.6558068 C20.9861205,23.0627812 19.5986001,23.5887214 18.1483091,24.2627726 C17.0415496,24.7767897 15.9334768,25.3785077 14.8548196,26.0501744 C12.9798418,27.2173111 11.4801747,28.3950462 10.2709861,29.6504137 C9.96002182,29.9726017 9.89803909,30.0730205 9.55319445,30.6323453 L9.45024007,30.8000632 C8.89370863,31.7001231 10.0227925,32.8765333 10.5654041,33.4411573 C10.6828036,33.5646274 13.1418899,35.4789436 14.4206778,36.2536786 C16.2680785,37.3717983 18.2974879,38.3632684 20.4548023,39.1994735 C22.0934053,39.8343111 23.6209121,40.3276615 25.1247814,40.7073453 C26.4303584,41.0366872 27.7511686,41.2788581 29.0493917,41.4269692 C29.6907555,41.5006274 30.3484028,41.5379863 31.0023732,41.5379863 C32.2853634,41.5379863 33.6185175,41.3938496 34.9624398,41.1095504 C36.351536,40.8159778 37.7474608,40.3830376 39.2292684,39.785559 C40.3754238,39.3234735 41.5294583,38.7670632 42.660118,38.1319607 C44.2398899,37.2440889 45.604298,36.3329009 46.8295076,35.345935 C47.7962808,34.5664308 48.8003486,33.697106 49.583012,32.6266786 C49.9107851,32.1958581 50.102774,31.7353624 50.155827,31.2584393 L50.1618677,31.2020034 L50.1011982,30.9865932 Z" id="Fill-7"></path>
                <path d="M33.679581,30.9743256 C33.5353924,29.8350094 33.0085391,28.9413085 32.0661914,28.2948128 C31.4116957,27.8449154 30.6865502,27.7134966 29.9062506,27.7248897 C29.241512,27.7352231 28.6201088,27.8820094 28.0522838,28.2126761 C26.769819,28.9595906 26.1539312,30.1256675 26.086433,31.5890265 C26.0318042,32.7776248 26.3335761,33.8454026 27.3108547,34.6145735 C28.0824873,35.2226504 28.9956821,35.3704966 29.9411815,35.3832145 C31.2312629,35.4224282 32.2923233,34.9714709 33.0127413,33.8660692 C33.5810915,32.9919752 33.8127388,32.025941 33.679581,30.9743256" id="Fill-9"></path>
                <path d="M14.2909868,25.1413974 C14.1515256,25.1413974 14.0146909,25.0711838 13.9335355,24.9442692 C13.8077316,24.7455513 13.8652494,24.4811239 14.0622285,24.3536795 L14.242136,24.2376282 C14.4393777,24.1112436 14.7012285,24.1700641 14.8270324,24.3695769 C14.9525737,24.5685598 14.8942679,24.8324573 14.6962383,24.9596368 L14.5186946,25.0735684 C14.4480448,25.119406 14.3689905,25.1413974 14.2909868,25.1413974" id="Fill-11"></path>
                <path d="M32.4843647,19.8777034 C32.4746471,19.8777034 32.4657174,19.8771735 32.4557371,19.8763786 C32.3186397,19.8673701 32.1797038,19.8594214 32.0412932,19.8527974 C31.8072821,19.8411393 31.6273746,19.6408316 31.6378801,19.4052846 C31.6491736,19.1694726 31.8503549,18.9922162 32.0820022,18.9991051 C32.2267162,19.006259 32.3695916,19.0144726 32.5116792,19.0240111 C32.7454276,19.0399085 32.9224461,19.2431308 32.9064252,19.4786778 C32.8922427,19.7044214 32.7055065,19.8777034 32.4843647,19.8777034 M28.2571946,19.9513615 C28.0415682,19.9513615 27.8579837,19.7868231 27.8359221,19.5663786 C27.8133351,19.3316265 27.9824745,19.1220453 28.2156977,19.098994 C28.3585731,19.0844214 28.5022365,19.0711735 28.6445867,19.0595154 C28.8835879,19.0385838 29.0826681,19.2155752 29.1013154,19.4508573 C29.1202254,19.6861393 28.9463586,19.892541 28.713398,19.911353 C28.5755127,19.9224812 28.4381527,19.9351991 28.2994794,19.9489769 C28.2852969,19.9508316 28.2708518,19.9513615 28.2571946,19.9513615 M36.2527051,20.4126521 C36.2227642,20.4126521 36.1925608,20.4092077 36.1623573,20.4025838 C36.0268358,20.3734385 35.8918395,20.3442932 35.7544794,20.3167376 C35.5257211,20.270635 35.3773302,20.0454214 35.4227667,19.8135838 C35.4687285,19.582806 35.6919714,19.4323103 35.9209924,19.4786778 C36.0625546,19.5072932 36.203329,19.5369684 36.3422649,19.5674385 C36.5712858,19.6180453 36.7159998,19.8453786 36.666361,20.0756265 C36.6225004,20.2761991 36.447583,20.4126521 36.2527051,20.4126521 M24.5061884,20.599447 C24.3152501,20.599447 24.1421711,20.4680282 24.0948962,20.2724897 C24.039742,20.0438316 24.1792032,19.8125239 24.4066483,19.756353 C24.5461095,19.7221735 24.6863586,19.6890538 24.8252945,19.6575239 C25.0545781,19.6045325 25.2796594,19.749994 25.3316619,19.979712 C25.3834017,20.2096949 25.2402636,20.4386179 25.0122932,20.4908145 C24.8772969,20.5212846 24.7425633,20.5538744 24.606779,20.587259 C24.5728986,20.5954726 24.5392809,20.599447 24.5061884,20.599447 M39.9007568,21.5042761 C39.8511181,21.5042761 39.8001662,21.4950026 39.7513154,21.4759256 C39.6226224,21.4269085 39.4926163,21.3784214 39.3610343,21.3307291 C39.1406804,21.2512419 39.0256446,21.0064214 39.1052242,20.7841222 C39.1845411,20.5618231 39.4269566,20.4465667 39.6473105,20.5260538 C39.78362,20.5761308 39.9183536,20.6259427 40.0515115,20.6770795 C40.2702895,20.7610709 40.3803351,21.0080111 40.2973413,21.2281906 C40.2332575,21.3985581 40.0722599,21.5042761 39.9007568,21.5042761 M20.8741576,21.7459171 C20.7037051,21.7459171 20.5429702,21.6415239 20.478361,21.4711564 C20.3945793,21.2512419 20.5040996,21.0035068 20.7228777,20.9195154 C20.8568234,20.8673188 20.9907692,20.8172419 21.1244523,20.7676949 C21.3440182,20.686353 21.5874843,20.8000197 21.6675891,21.0215239 C21.7487445,21.2427632 21.6358099,21.4883786 21.4159813,21.5699855 C21.2862377,21.6179427 21.1562316,21.6674897 21.0251748,21.7175667 C20.9755361,21.7371735 20.9245842,21.7459171 20.8741576,21.7459171 M43.3536681,23.1199855 C43.2832809,23.1199855 43.2136816,23.1027632 43.1480219,23.0661991 C43.028784,22.9996949 42.9079702,22.9323957 42.7824289,22.8650966 C42.5765201,22.7535496 42.4985164,22.4944214 42.6093499,22.2864299 C42.7188703,22.0787034 42.9754683,22.0000111 43.1816397,22.1112932 C43.3121711,22.1809769 43.4374498,22.2506607 43.5593142,22.3195496 C43.7633845,22.4342761 43.8377112,22.6944641 43.7245139,22.9006009 C43.6462476,23.0410282 43.5025842,23.1199855 43.3536681,23.1199855 M17.4031243,23.3224128 C17.2497433,23.3224128 17.1021403,23.2378915 17.026763,23.0911051 C16.9188185,22.880994 17.0004991,22.6234556 17.2082464,22.5145581 C17.3358888,22.4483188 17.4624806,22.3834043 17.5890725,22.3192846 C17.7986582,22.2127718 18.0526298,22.2978231 18.1576853,22.5084641 C18.2632661,22.719635 18.1786964,22.9758487 17.9704239,23.0820966 C17.8459332,23.1451564 17.7222303,23.2092761 17.5974769,23.2739256 C17.5349689,23.3067803 17.468784,23.3224128 17.4031243,23.3224128" id="Fill-13"></path>
                <path d="M46.3424179,25.1408675 C46.244191,25.1408675 46.1441256,25.1061581 46.0640208,25.0356795 C46.0611318,25.0325 46.0101799,24.9882521 45.91563,24.9106197 C45.7336213,24.7622436 45.7044684,24.493047 45.852334,24.3096966 C45.9994117,24.1266111 46.26599,24.0979957 46.4474734,24.2461068 C46.5627718,24.3404316 46.6221281,24.3923632 46.6221281,24.3923632 C46.7975708,24.5473632 46.8151676,24.8170897 46.6609986,24.995141 C46.5774795,25.0913205 46.4611306,25.1408675 46.3424179,25.1408675" id="Fill-15"></path>
                <path d="M50.8275255,35.6620556 C50.6972567,35.6620556 50.5696143,35.6021752 50.4863578,35.4893034 C50.3474219,35.299594 50.3865551,35.0319872 50.5751297,34.8912949 L50.7434811,34.7649103 C50.9312678,34.6234231 51.1967956,34.6615769 51.3359941,34.8510214 C51.4767684,35.0396709 51.4378979,35.3075427 51.2511618,35.4490299 L51.0793961,35.5780641 C51.0029682,35.6345 50.9152469,35.6620556 50.8275255,35.6620556" id="Fill-17"></path>
                <path d="M47.5430182,37.9328188 C47.4025065,37.9328188 47.2643586,37.8620752 47.1845164,37.7325111 C47.0595004,37.5329983 47.119382,37.2688359 47.3174116,37.1435111 C47.4408518,37.0656137 47.5640293,36.9869214 47.6874695,36.9069043 C47.8841859,36.7802547 48.1457741,36.8369556 48.2728912,37.0356735 C48.3994831,37.2343915 48.3417026,37.4985538 48.1449862,37.6265282 C48.018657,37.7076051 47.8933783,37.7881521 47.7675744,37.8676393 C47.6979751,37.9118872 47.6199714,37.9328188 47.5430182,37.9328188 M14.1852747,39.0570325 C14.1056952,39.0570325 14.0261157,39.0347761 13.9546779,38.9878786 C13.8257223,38.9033573 13.7007063,38.8196308 13.5796298,38.7364342 C13.3855398,38.6044855 13.3351132,38.3384684 13.4664326,38.1431949 C13.5972266,37.9481863 13.8609159,37.8965197 14.0544806,38.0292632 C14.1716175,38.1095453 14.2924313,38.1900923 14.4169221,38.2716991 C14.6128506,38.4007333 14.6680047,38.6651607 14.5406249,38.8630838 C14.4592069,38.9886735 14.323948,39.0570325 14.1852747,39.0570325 M44.0835411,39.9178786 C43.9293721,39.9178786 43.780456,39.8325624 43.7056039,39.6836564 C43.5992353,39.4732803 43.6824917,39.2162718 43.8912895,39.109494 C44.0199825,39.0432547 44.1502513,38.9756906 44.2799948,38.9070667 C44.487742,38.7976393 44.7425016,38.8781863 44.8514967,39.0877675 C44.9602291,39.2968188 44.8801243,39.5551521 44.6729023,39.6643145 C44.5394819,39.7347932 44.4073746,39.8034171 44.2750047,39.8712462 C44.2127593,39.903306 44.1478875,39.9178786 44.0835411,39.9178786 M17.6626113,41.0100325 C17.6024671,41.0100325 17.5412723,40.9973145 17.4832291,40.969759 C17.3458691,40.9048444 17.2108727,40.8394 17.0774523,40.7739556 C16.8676039,40.6700923 16.7804079,40.4138786 16.8838875,40.2019128 C16.9865793,39.990212 17.2400256,39.9027761 17.4511872,40.0063744 C17.5796175,40.070494 17.7104116,40.1335538 17.8430441,40.1963487 C18.0547309,40.2965026 18.1458666,40.5508615 18.0463265,40.7646821 C17.9743635,40.9196821 17.8217704,41.0100325 17.6626113,41.0100325 M40.4494091,41.5547846 C40.2794819,41.5547846 40.1179591,41.4503915 40.0536126,41.2805538 C39.9698308,41.0601094 40.0788259,40.8123744 40.2973413,40.7283829 C40.4328629,40.6761863 40.5689097,40.622135 40.7052192,40.5675538 C40.9216335,40.4803829 41.1687766,40.5871607 41.2543968,40.8070752 C41.3413302,41.0259299 41.2354868,41.2744598 41.0180219,41.3616308 C40.8785608,41.4178017 40.7398875,41.4726479 40.6014769,41.5261692 C40.5507877,41.5457761 40.4995731,41.5547846 40.4494091,41.5547846 M21.3734338,42.4606735 C21.3324621,42.4606735 21.2907026,42.4540496 21.2492057,42.4413316 C21.105017,42.3965538 20.9618789,42.3509812 20.8205793,42.3046137 C20.5978617,42.2317504 20.4765226,41.9903744 20.5490109,41.7662205 C20.6209739,41.5423316 20.8594498,41.4193915 21.0826927,41.4914598 C21.2200528,41.5370325 21.3584634,41.5812803 21.4979245,41.6244684 C21.7214301,41.6936222 21.8469714,41.9328786 21.77816,42.1586222 C21.722218,42.3425026 21.5546545,42.4606735 21.3734338,42.4606735 M36.6579566,42.7730581 C36.4688567,42.7730581 36.2963031,42.6442889 36.2479776,42.4508701 C36.1904597,42.2216821 36.3275571,41.9895795 36.5542143,41.9312889 C36.6942007,41.8955197 36.8355004,41.8584256 36.9770626,41.8205368 C37.2026693,41.7593316 37.4348419,41.8947248 37.4955115,42.122853 C37.556181,42.3509812 37.4219726,42.5846735 37.1955781,42.6458786 C37.0506015,42.6850923 36.9061502,42.7229812 36.7624868,42.7600752 C36.7275559,42.7690838 36.6926249,42.7730581 36.6579566,42.7730581 M25.2505065,43.3644427 C25.2281822,43.3644427 25.2061206,43.362588 25.1843216,43.3596735 C25.0351428,43.3360923 24.8875398,43.3111863 24.7407248,43.2857504 C24.5103906,43.2457419 24.3559591,43.0245026 24.3953549,42.7918701 C24.4355386,42.5589726 24.6558925,42.4052974 24.8851761,42.4437162 C25.0272636,42.4683573 25.170927,42.4922034 25.3151157,42.5149897 C25.5465004,42.5515538 25.7046089,42.7701436 25.6681021,43.0038359 C25.6352723,43.214212 25.4548395,43.3644427 25.2505065,43.3644427 M32.7443771,43.5030154 C32.5332155,43.5030154 32.3498937,43.3416564 32.324943,43.1238615 C32.2981539,42.8891094 32.4649295,42.6774085 32.6973647,42.6509128 C32.8407655,42.6344855 32.9844289,42.6159385 33.1296681,42.5971265 C33.3605275,42.5666564 33.5735275,42.7298701 33.6047815,42.9640923 C33.6360355,43.1983145 33.4724116,43.4131949 33.240239,43.443665 C33.0913228,43.4638017 32.942144,43.4823487 32.7940158,43.4998359 C32.7772069,43.5019556 32.7614486,43.5030154 32.7443771,43.5030154 M29.2142501,43.6935197 L29.2095226,43.6935197 C29.0598185,43.6924598 28.9101144,43.6898103 28.7611983,43.6855709 C28.5274498,43.6800068 28.3428148,43.4834085 28.3478049,43.2475966 C28.3538456,43.0112547 28.5468851,42.8138615 28.7827346,42.8310838 C28.9266607,42.8345282 29.0726878,42.8377077 29.217927,42.8387675 C29.4516755,42.8414171 29.6399874,43.034306 29.6378863,43.2706479 C29.6352599,43.505135 29.4466853,43.6935197 29.2142501,43.6935197" id="Fill-19"></path>
                <path d="M11.0264663,36.6057274 C10.9219361,36.6057274 10.8179312,36.5673085 10.7362506,36.4894111 C10.6288313,36.3876675 10.5739398,36.3317615 10.5739398,36.3317615 C10.4097906,36.1637786 10.4116291,35.8935222 10.5776168,35.7279239 C10.7443924,35.5617957 11.0122838,35.5625906 11.176433,35.7308385 C11.1793221,35.733753 11.2268597,35.7817103 11.3164195,35.8670265 C11.4871346,36.0283855 11.4947512,36.2991718 11.3350668,36.4708641 C11.2515477,36.5604197 11.1391383,36.6057274 11.0264663,36.6057274" id="Fill-21"></path>
                <path d="M58.4240353,31.123894 C58.1716395,32.679988 32.2941092,59.3937744 30.5993016,59.1945265 C28.9039687,58.9947487 2.86675413,32.0806547 2.77378002,31.123894 C2.68159383,30.1673983 29.041854,2.88209915 30.5993016,3.0535265 C32.1559613,3.22442393 58.6769564,29.567535 58.4240353,31.123894 Z M47.0079181,45.4289368 L47.6027948,44.8293385 L49.4998343,46.7423299 C49.869367,47.1148598 50.5115186,47.1153897 50.8813139,46.7423299 C51.2618774,46.3581419 51.2618774,45.7328427 50.8813139,45.3486547 L48.9840118,43.4348684 C48.9840118,43.4348684 61.020219,32.1503385 61.1875199,31.123894 C61.3545581,30.0974496 47.9786308,17.7983983 47.9786308,17.7983983 L49.9287233,15.8308256 C50.3095494,15.4469026 50.3095494,14.8216034 49.9287233,14.4371504 C49.558928,14.0646205 48.9159884,14.0646205 48.546981,14.4371504 L46.5971512,16.4047231 L46.1782424,15.9821162 L50.4931339,11.6291333 C50.8744853,11.2446803 50.8744853,10.6191162 50.4931339,10.2351932 C50.1238639,9.86213333 49.480399,9.86213333 49.1116543,10.2351932 L44.7967628,14.5881761 L44.2016234,13.9880479 L46.1165223,12.0562444 C46.4968232,11.6723214 46.4968232,11.0470222 46.1165223,10.6625692 C45.7469896,10.2900393 45.1032621,10.2900393 44.7342547,10.6625692 L42.8196185,12.5941077 C42.8196185,12.5941077 31.7399416,0.16814188 30.5993016,0.265381197 C29.4578737,0.362620513 18.0073509,12.9676974 18.0073509,12.9676974 L16.0399243,10.9826376 C15.6711795,10.6103726 15.0277147,10.6103726 14.658182,10.9826376 C14.2776185,11.3670906 14.2776185,11.9923897 14.658182,12.3765778 L16.6258713,14.3616376 L16.2074878,14.7839795 L11.8749995,10.4132444 C11.5054668,10.0407145 10.8612141,10.0412444 10.4935199,10.4127145 C10.3083596,10.5987145 10.2067184,10.8469795 10.2067184,11.1100821 C10.2067184,11.3734496 10.3083596,11.6211846 10.4929946,11.8069197 L14.8254829,16.1779197 L14.2306062,16.7777829 L12.2983731,14.8290222 C11.9293657,14.4567573 11.2859009,14.4562274 10.9166308,14.8290222 C10.5360673,15.2132103 10.5360673,15.8382444 10.9166308,16.2229624 L12.8491265,18.171988 C12.8491265,18.171988 0.452579038,30.1960137 0.0105580764,31.123894 C-0.432250801,32.0520393 13.2194471,44.4496547 13.2194471,44.4496547 L11.1640365,46.5229453 C10.9791388,46.7089453 10.877235,46.9566803 10.877235,47.2200479 C10.877235,47.4839453 10.9791388,47.7316803 11.1635112,47.9174154 C11.5327813,48.2896803 12.1759835,48.2896803 12.5457788,47.9174154 L14.6011894,45.8433299 L15.0193102,46.2656718 L10.598838,50.7256974 C10.2180118,51.1104154 10.2180118,51.7354496 10.598838,52.1193726 C10.9675827,52.4921675 11.6115729,52.4921675 11.980055,52.1193726 L16.4013152,47.6598769 L16.9967171,48.2600051 L14.9757122,50.2983214 C14.5951487,50.6825094 14.5951487,51.3080735 14.9765001,51.6925265 C15.3465581,52.0650564 15.9894977,52.0645265 16.3582424,51.6919966 L18.3781968,49.6536803 C18.3781968,49.6536803 29.5954964,62.1082615 30.5993016,61.9829368 C31.6031068,61.8568171 43.8255248,48.639159 43.8255248,48.639159 L45.7582831,50.5889795 C46.1278158,50.9609795 46.7699674,50.9615094 47.1397628,50.5884496 C47.5203263,50.2039966 47.5203263,49.5789624 47.1397628,49.1942444 L45.2070044,47.2454838 L45.6259132,46.8228769 L49.9237332,51.1581077 C50.2935285,51.5309026 50.9356801,51.5303726 51.3052128,51.1581077 C51.6855137,50.7736547 51.6855137,50.1488855 51.3052128,49.7641675 L47.0079181,45.4289368 Z" id="Fill-23"></path>
                <path d="M27.0800216,30.6322658 C27.088426,30.3797615 27.295648,30.0875137 27.4871116,29.806394 C27.7321535,29.4455222 28.0339254,29.1604282 28.3924273,28.9911205 C28.5339895,28.9238214 28.6710869,28.9055393 28.7769303,29.0618641 C28.8835617,29.2184538 28.820791,29.3776932 28.7490906,29.5271291 C28.4355,30.1791889 28.0383903,30.7234111 27.5112744,31.0977957 C27.2488983,31.2835308 27.082648,31.1648299 27.0800216,30.6322658" id="Fill-26"></path>
                <path d="M162.973234,26.2177863 C162.973234,26.5736239 162.767325,27.2561538 162.355245,28.2645812 C160.914934,31.2805897 159.498786,32.7887265 158.106801,32.7887265 L157.813433,32.7887265 C156.959332,32.5317179 156.533332,31.9037692 156.533332,30.9048803 C156.533332,30.2917692 156.763929,29.6489829 157.224597,28.9765214 C158.391239,26.8703761 160.00279,25.8373077 162.06214,25.8770513 C162.669361,25.9059316 162.973234,25.9019573 162.973234,25.8616838 L162.973234,26.2177863 Z M102.16633,10.4711111 C103.391539,8.72080342 104.052864,7.84591453 104.151091,7.84591453 C104.17289,7.84591453 104.187072,7.84167521 104.195477,7.83346154 L104.195477,7.84591453 C103.891341,9.01278632 103.411237,10.298359 102.754378,11.7026325 C101.372373,14.6688291 99.8383002,17.2399744 98.1521597,19.4150085 C97.2182164,20.8282906 96.5579427,21.7593504 96.1692374,22.2105726 C96.6774433,20.8115983 97.5780314,18.7388376 98.873103,15.9891111 C98.873103,15.5537863 99.9706702,13.7147179 102.16633,10.4711111 Z M163.708359,29.7925897 L163.826022,29.8662479 C164.9924,32.2696752 166.888914,33.4707265 169.515827,33.4707265 L169.750888,33.4707265 C169.986213,33.4707265 170.319764,33.4513846 170.751017,33.4113761 C171.952851,33.1008462 173.01969,32.6787692 173.956522,32.1480598 C173.925531,32.3775128 173.909773,32.5862991 173.909773,32.7720342 C173.909773,34.5620855 174.856322,35.4571111 176.747059,35.4571111 C179.217438,35.4571111 182.256431,33.7913248 185.862986,30.4586923 C186.05051,30.3267436 186.228579,30.193735 186.398244,30.0583419 C186.083077,31.2596581 185.76686,32.5531795 185.450118,33.9397009 C185.57776,34.6317692 185.901856,34.9780684 186.421093,34.9780684 L186.539018,34.9780684 C186.793515,34.9780684 187.102378,34.7947179 187.465345,34.428812 C189.876631,30.9684701 191.366318,28.9110769 191.934668,28.2587521 C192.875702,27.0033846 193.781806,26.3751709 194.65508,26.3751709 L194.934264,26.3751709 C195.149891,26.3953077 195.350284,26.5034103 195.536232,26.7013333 C195.693816,26.9586068 196.203597,28.427 197.065315,31.1065128 C197.937801,33.4898034 199.604506,34.6810513 202.064906,34.6810513 C202.908239,34.6810513 204.035221,34.4388803 205.446379,33.9548034 C206.377696,33.7862906 207.632059,32.9214701 209.209729,31.3587521 C211.239139,29.0252735 212.489036,26.939265 212.95916,25.0996667 L212.95916,24.9958034 C212.95916,24.6397009 212.754039,24.3381795 212.342221,24.0909744 L212.003943,24.0909744 C211.542749,24.0909744 211.111234,24.4669487 210.709922,25.2183675 C210.454637,26.3953077 209.460549,28.0168462 207.725821,30.0835128 C205.921493,31.942453 204.093264,32.8716581 202.241136,32.8716581 L202.183093,32.8716581 C201.241796,32.8716581 200.496165,32.6045812 199.947512,32.0706923 C199.497087,31.9721282 198.811337,30.3898034 197.889213,27.3242479 C197.360258,25.4849145 196.320734,24.5655128 194.771954,24.5655128 L194.537155,24.5655128 C193.174322,24.5655128 191.881089,25.302359 190.655617,26.7755214 C189.758443,27.9657094 189.114978,28.7931709 188.724172,29.2584359 C189.123645,27.5166068 189.47847,26.1915556 189.788647,25.2922906 L189.788647,24.8026496 C189.679914,24.5355726 189.42568,24.3183077 189.023318,24.1503248 C188.660876,24.1503248 188.313142,24.3728889 187.979591,24.8180171 C187.863242,25.1478889 187.746105,25.4907436 187.630019,25.8463162 C186.816627,26.7808205 186.054975,27.5873504 185.347951,28.2637863 C184.83817,28.5404017 184.534559,28.8021795 184.43712,29.0496496 C181.193007,31.9967692 178.669049,33.4694017 176.865246,33.4694017 C176.208387,33.4694017 175.880088,33.2571709 175.880088,32.8321795 C175.880088,31.9880256 176.154546,31.0466325 176.698996,30.0109145 C176.779626,29.9094359 176.843972,29.8103419 176.897813,29.7141624 C177.321187,29.2571111 177.766359,28.3194274 178.232281,26.8984615 L178.232281,26.4835385 C178.232281,25.9697863 177.923155,25.6483932 177.305166,25.519359 L177.203262,25.519359 C176.771747,25.5392308 176.55612,25.5789744 176.55612,25.6380598 C176.519088,25.6380598 175.952051,26.7744615 174.857898,29.0398462 C172.9451,30.7461709 171.182532,31.6019829 169.57492,31.6019829 C167.721742,31.6019829 166.428509,30.7368974 165.693383,29.0061966 C165.29102,27.0386239 165.031533,25.9207692 164.914396,25.6539573 C164.453203,24.6357265 163.645064,24.1214444 162.48814,24.111906 L161.69392,24.0814359 C159.968647,24.111906 158.454272,24.7496581 157.151584,25.9954872 C155.823682,27.4151282 155.019483,28.8315897 154.735045,30.2446068 C154.350279,30.3911282 153.969978,30.596735 153.667944,30.8460598 C152.188237,32.3290256 150.624486,33.0703761 148.977742,33.0703761 L148.801511,33.0703761 C148.213463,33.0703761 147.287136,32.6207436 146.022268,31.7212137 C145.483596,31.2562137 145.027655,30.6831111 144.655234,30.0003162 C143.880975,28.606641 142.890827,27.9092735 141.685315,27.9092735 C140.812304,27.9092735 139.915918,28.3045897 138.994581,29.0952222 C138.655515,29.6389145 138.411786,30.0101197 138.257092,30.2167863 C137.790383,28.6402906 136.934443,27.8499231 135.686909,27.8499231 L135.098861,27.8499231 C134.569119,27.8499231 133.848964,28.1511795 132.937345,28.7542222 C132.513446,29.1365556 132.221654,29.4176752 132.057505,29.6031453 C132.167551,29.2751282 132.351398,28.7886667 132.613774,28.1315726 C133.37779,26.628735 133.760454,25.7880256 133.760454,25.6099744 L133.760454,25.4319231 C133.760454,25.1452393 133.495977,24.942547 132.967023,24.8241111 C132.407865,24.8241111 131.908326,25.3089829 131.467093,26.2779316 C131.424546,26.3637778 131.384099,26.449359 131.342077,26.5344103 L131.046871,26.5344103 C130.184628,27.5338291 129.380428,28.3888462 128.63611,29.1007863 C128.125803,29.3779316 127.82193,29.6397094 127.724491,29.8871795 C124.490358,32.8340342 121.94644,34.3066667 120.093523,34.3066667 C119.47606,34.3066667 119.167459,34.0949658 119.167459,33.6691795 C119.167459,32.2847778 119.902585,30.6876154 121.373099,28.8782222 C122.333306,27.8894017 122.81341,27.2317778 122.81341,26.9058803 L122.81341,26.7869145 C122.81341,26.2628291 122.523982,25.9615726 121.94644,25.8820855 L121.343158,25.8820855 C120.480916,26.8809744 119.676453,27.7359915 118.932398,28.4481966 C118.422879,28.7250769 118.118743,28.9868547 118.020779,29.2343248 C114.785858,32.1811795 112.242727,33.6543419 110.390073,33.6543419 C109.77261,33.6543419 109.464009,33.4415812 109.464009,33.0163248 C109.464009,32.55 109.548579,32.053735 109.714304,31.5293846 C110.069917,30.913094 110.377467,30.3071368 110.635378,29.7125726 C111.012264,29.2086239 111.40596,28.3326752 111.816202,27.0836667 L111.816202,26.6682137 C111.816202,26.1539316 111.507601,25.8330684 110.889875,25.7042991 L110.787183,25.7042991 C110.355668,25.7241709 110.140041,25.7636496 110.140041,25.823265 C110.101171,25.823265 109.483707,27.0635299 108.287125,29.5459145 C108.098813,30.0816581 107.94517,30.5689145 107.82383,31.0116581 C107.602951,31.3759744 107.365001,31.737906 107.106301,32.0969231 C105.939923,33.2735983 104.895671,33.8620684 103.974335,33.8620684 L103.622136,33.8620684 C103.376832,33.8620684 103.151488,33.8125214 102.945316,33.7136923 C102.318135,33.4466154 101.695944,32.6061709 101.078218,31.1918291 C100.166599,28.7401795 99.0346258,27.5136923 97.6817737,27.5136923 C96.6430376,27.5136923 95.6187466,28.1215043 94.6089007,29.338188 C94.0636628,30.4388205 93.6234803,31.1918291 93.2862522,31.6038376 C93.4133693,30.0538376 93.5701646,29.0109658 93.7563755,28.4776068 C93.7563755,28.1318376 94.8447503,26.629265 97.0201868,23.9688291 C99.2258268,21.2201624 100.823195,19.0294957 101.813343,17.3981538 C104.79298,12.275735 106.282666,8.73087179 106.282666,6.76329915 C106.282666,6.02168376 105.851414,5.60146154 104.989171,5.50236752 L104.856801,5.50236752 C104.337039,5.50236752 103.744263,5.79382051 103.077686,6.37778632 C102.362258,7.07965812 101.387081,8.34058974 100.152154,10.1600513 C98.5348243,12.275735 96.0888699,17.2598462 92.8153409,25.1107949 C91.8154753,27.0985043 91.3156739,29.9269231 91.3156739,33.5952564 C91.3553323,34.2971282 91.433336,35.0188718 91.5512608,35.7604872 C91.6494877,37.2042393 92.0854679,37.9259829 92.8594642,37.9259829 C93.153357,37.8274188 93.4233496,37.6692393 93.6683915,37.4509145 L94.2123163,34.4550427 C95.4375259,31.0731282 96.5153952,29.3827009 97.4469747,29.3827009 L97.5058058,29.3827009 C97.5252411,29.3827009 97.5691017,29.4028376 97.6376504,29.4417863 C97.8438218,29.4417863 98.2753372,30.0601966 98.9314088,31.2956923 C99.9706702,34.2131368 101.534158,35.6714615 103.622136,35.6714615 C105.173281,35.6714615 106.531648,35.1759915 107.698552,34.1874359 C108.073863,35.1558547 108.969723,35.6423162 110.390073,35.6423162 C112.448373,35.6423162 114.751715,34.6034188 117.300098,32.5269487 C117.231812,32.7842222 117.197406,33.145359 117.197406,33.6095641 C117.197406,35.3996154 118.143431,36.2943761 120.035218,36.2943761 C122.504809,36.2943761 125.543277,34.6283248 129.15062,31.2956923 C129.17557,31.2784701 129.199208,31.260453 129.224158,31.2429658 C128.680759,32.5704017 128.182008,33.8962479 127.732633,35.2212991 C127.732633,35.8248718 128.041496,36.1658718 128.659223,36.2448291 L128.746944,36.2448291 C129.031644,36.2448291 129.437946,35.9631795 129.967163,35.3993504 C132.623229,31.533359 134.412061,29.5999658 135.333923,29.5999658 L135.392491,29.5999658 C135.42217,29.5999658 135.436615,29.6397094 135.436615,29.7184017 C135.828997,29.7184017 136.122627,30.4949915 136.319343,32.0471111 C136.407065,34.0949658 136.833327,35.1177009 137.598131,35.1177009 L137.892024,35.0586154 C138.176199,35.0586154 138.651838,34.2867949 139.318678,32.7442137 C140.033318,30.727359 140.803112,29.7184017 141.626484,29.7184017 L141.743883,29.7184017 C142.037776,29.7184017 142.66522,30.4849231 143.626215,32.0179658 C145.458645,33.926453 147.22279,34.8805641 148.919173,34.8805641 L149.742546,34.8805641 C151.195726,34.8805641 152.902089,34.0533675 154.85901,32.4066581 C155.55369,33.8665726 156.557232,34.5981197 157.871477,34.5981197 L157.93057,34.5981197 C159.674491,34.5981197 161.287356,33.5947265 162.767325,31.5871453 C163.423922,30.3905983 163.7383,29.7925897 163.708359,29.7925897 Z" id="Fill-28"></path>
                <path d="M179.215547,22.9917197 C179.715611,22.9424376 180.034192,22.8679846 180.171815,22.7688906 C181.082646,22.413053 181.538849,21.8399504 181.538849,21.0485231 C181.44141,20.3466513 181.14174,19.9953179 180.641676,19.9953179 C180.406614,19.9953179 180.200705,20.0202239 180.023949,20.0700359 C178.621984,20.3861299 177.921264,20.9401556 177.921264,21.7305231 C177.921264,22.3934462 178.352779,22.8131385 179.215547,22.9917197" id="Fill-30"></path>
                <path d="M141.708742,50.0005624 L141.763126,50.1146104 C141.751246,50.0391064 141.733558,50.0005624 141.708742,50.0005624" id="Fill-32"></path>
                <path d="M148.394825,38.8801108 L148.326713,38.7386068 C148.344665,38.7845428 148.361297,38.8296868 148.377401,38.8801108 L148.394825,38.8801108 Z" id="Fill-34"></path>
                <path d="M147.007163,41.0952427 L147.001648,41.0952427 C147.004537,41.0952427 147.005588,41.0923282 147.008214,41.0915333 C147.007163,41.0923282 147.007163,41.0939179 147.007163,41.0952427 Z M146.000207,44.2394906 C145.913273,44.4737128 145.597319,44.590559 145.051555,44.590559 C145.002179,44.590559 144.973552,44.5977128 144.961733,44.6104308 C145.217806,43.7270632 145.889898,42.5975504 146.97197,41.2234821 C146.629752,42.4716957 146.305393,43.4790632 146.000207,44.2394906 Z M145.391147,45.8912342 C144.828313,47.1844906 144.314591,48.2649863 143.850509,49.1313966 C143.49831,49.7453026 143.240662,50.1583709 143.073098,50.3796103 L143.101726,50.4397556 C143.083866,50.4397556 143.068896,50.4267726 143.055764,50.4021316 C143.038167,50.4251829 143.021096,50.4458496 143.005863,50.4638667 L143.005863,50.3615932 L143.005863,50.238388 L143.021096,50.2707128 C143.011378,50.1962598 143.005863,50.0984906 143.005863,49.9747556 C143.005863,49.4594137 143.446833,48.1507897 144.329299,46.0486188 C144.329299,45.8790462 144.61899,45.7733282 145.199684,45.7325248 L145.365409,45.7325248 C145.382743,45.7325248 145.391147,45.7531915 145.391147,45.7939949 L145.391147,45.8912342 Z M119.782822,53.3752171 C119.782822,53.5861231 119.660695,53.9901829 119.417491,54.5873966 C118.563916,56.3734735 117.725573,57.2658496 116.901412,57.2658496 L116.727546,57.2658496 C116.222229,57.1140291 115.970358,56.742294 115.970358,56.1509094 C115.970358,55.787653 116.106142,55.4074393 116.379024,55.0089436 C117.069764,53.7617897 118.024456,53.1500034 119.243099,53.1730547 C119.602652,53.1908068 119.782822,53.1881573 119.782822,53.1643111 L119.782822,53.3752171 Z M94.0570968,52.4865504 C94.0570968,52.6974564 93.9352324,53.1012513 93.6912411,53.698465 C92.8381905,55.4845419 91.9998477,56.3774479 91.1751621,56.3774479 L91.0012953,56.3774479 C90.4965037,56.2248325 90.2438453,55.8530974 90.2438453,55.2622427 C90.2438453,54.8987214 90.3804174,54.5182427 90.653299,54.1202769 C91.3437762,52.873388 92.2984679,52.2613368 93.5173742,52.284388 C93.8769266,52.3024051 94.0570968,52.2989607 94.0570968,52.2756444 L94.0570968,52.4865504 Z M153.487774,42.8691316 L153.234853,42.8691316 C150.095532,43.8060205 148.148329,44.2747299 147.393768,44.2747299 C147.300268,44.2686359 147.253781,44.2720803 147.253781,44.2834735 C147.253781,44.2720803 147.260084,44.2575077 147.271378,44.2394906 C147.95634,42.3304735 148.298821,40.969388 148.298821,40.1557043 L148.32666,40.2155846 C148.152531,39.7386615 147.919308,39.4970205 147.628829,39.4970205 L147.3851,39.4970205 C146.914715,39.4970205 146.223975,40.1557043 145.313144,41.4733368 C145.20231,41.7420034 145.066263,41.9441658 144.90369,42.0787641 C144.770007,42.4067812 144.488721,42.9078154 144.059306,43.5810718 C143.716826,44.441653 143.398245,44.8719436 143.101726,44.8719436 L142.648674,44.8719436 C142.56174,44.8719436 141.900416,44.9071829 140.664176,44.9771316 C140.380001,44.9540803 140.214276,44.9418923 140.167526,44.9418923 C139.79668,45.1119949 139.610994,45.2669949 139.610994,45.4076872 L139.610994,45.4781658 C139.610994,45.6885419 139.871795,45.855465 140.394183,45.9784051 L141.290306,45.9784051 C141.494114,45.9784051 141.728913,45.9900632 141.996279,46.0133795 C142.123659,45.9900632 142.393652,45.967012 142.806257,45.9434308 C142.904221,45.960653 142.953335,45.9468752 142.953335,45.8994479 L142.953335,45.9696615 C142.953335,46.0753795 142.944668,46.1572513 142.927596,46.2155419 C142.178813,48.1711915 141.804816,49.5004821 141.804816,50.2028838 L141.762793,50.1149179 C141.781178,50.2370632 141.783805,50.4559179 141.769622,50.7738667 C141.769622,50.8382513 141.772511,50.8732256 141.778289,50.8790547 C141.772511,50.8854137 141.769622,50.9346957 141.769622,51.0282256 L141.769622,51.7221487 C141.769622,51.7361915 141.770673,51.7475846 141.770673,51.7605675 C141.770673,51.7616274 141.769885,51.7621573 141.769622,51.7621573 L141.769622,51.7221487 L141.674022,51.7221487 L141.724448,51.8291915 C141.693457,51.8782085 141.662728,51.931465 141.63305,51.9881658 C141.48177,52.6844735 140.892934,53.6449436 139.865229,54.8687812 C138.79734,55.9694137 137.715006,56.5199949 136.618226,56.5199949 L136.583558,56.5199949 C136.025976,56.5199949 135.585268,56.3618154 135.260121,56.0457214 C134.993281,55.9871658 134.586716,55.050012 134.040953,53.2350547 C133.727887,52.1458154 133.112525,51.6018581 132.195653,51.6018581 L132.056454,51.6018581 C131.249628,51.6018581 130.483248,52.0379778 129.75784,52.9102171 C129.224946,53.6187128 128.846221,54.1043795 128.614574,54.3791402 C128.851474,53.3484564 129.061322,52.5641829 129.244382,52.0316188 L129.244382,51.7425504 C129.18056,51.5843709 129.029543,51.4553368 128.791592,51.3554479 C128.577017,51.3554479 128.370845,51.4876615 128.173866,51.7507641 C127.875771,52.5925333 127.578202,53.5763197 127.280369,54.6954991 C127.245701,54.702653 127.212083,54.7100718 127.174001,54.7188154 C125.903617,55.9484821 124.742229,56.5634479 123.692199,56.5634479 C122.595157,56.5634479 121.828777,56.0510205 121.393585,55.0264308 C121.155897,53.8619436 121.001728,53.1998154 120.932129,53.0416359 C120.659247,52.4388581 120.180719,52.1338923 119.49602,52.1283282 L119.025897,52.1103111 C118.073044,52.1275333 117.230761,52.4600547 116.495636,53.1033709 L116.49511,53.0487897 C114.510612,53.921294 112.917183,54.3574137 111.715874,54.3574137 L111.541482,54.3574137 C110.868338,54.3574137 110.264795,54.2636188 109.731113,54.0760291 C109.428816,54.0760291 109.144903,53.9244735 108.877537,53.6192427 C108.610959,52.8466274 108.303146,52.4600547 107.95515,52.4600547 L107.815426,52.4600547 C107.507613,52.4600547 107.206104,52.873388 106.910636,53.6987299 C106.49803,55.0629949 105.946752,56.4010291 105.255749,57.7128325 C104.623315,59.029935 104.144787,59.7270376 103.819641,59.8022855 L103.776043,59.8022855 C103.74689,59.8022855 103.674927,59.2114308 103.558315,58.0283966 L103.611105,58.0283966 C103.395742,56.494559 103.256806,55.6570291 103.192722,55.5168667 C103.192722,55.1011487 102.925881,54.3746359 102.391674,53.338653 C101.771059,52.4314393 101.147029,51.9280205 100.520636,51.8286615 L100.293978,51.8286615 C100.079403,51.8286615 99.9139402,51.9420632 99.7978539,52.1704564 L99.7978539,52.3903709 C99.9197182,52.5890889 100.122475,52.7623709 100.40665,52.9083624 C100.701068,53.0601829 100.998113,53.4152256 101.299359,53.9705761 C100.086494,55.1051231 98.9750068,55.6745162 97.9656862,55.6745162 C96.8689069,55.6745162 96.1030524,55.1620889 95.6673348,54.1374991 C95.4293841,52.972747 95.2757404,52.3111487 95.2064038,52.1527043 C94.9335222,51.5496615 94.4544692,51.2454906 93.7695074,51.2396615 L93.300172,51.2224393 C92.2782448,51.2396615 91.3810709,51.6172256 90.609701,52.3546017 C89.6466048,53.3852855 89.1468033,54.4127897 89.112135,55.4373795 C89.112135,55.6368923 89.1531067,55.8615761 89.2339994,56.1138154 C89.6466048,57.0038068 90.2469969,57.4486701 91.0362263,57.4486701 L91.0708946,57.4486701 C92.1038527,57.4486701 93.058807,56.854106 93.9352324,55.6660376 C94.3239377,54.9578068 94.5093607,54.6027641 94.4922891,54.6027641 L94.5618884,54.646747 C95.2523656,56.0700974 96.375934,56.7809778 97.9310179,56.7809778 L98.0707417,56.7809778 C98.2096776,56.7809778 98.4066566,56.7695846 98.6627293,56.7460034 C99.8404014,56.4415675 100.80376,55.9588154 101.552806,55.2972171 C101.647356,55.2291231 101.730875,55.1636786 101.809404,55.0987641 C101.815182,55.1125419 101.820435,55.1249949 101.826213,55.1395675 C102.011898,55.7132 102.183139,56.9012684 102.339671,58.7050974 C102.426867,60.1978667 102.835796,60.9445162 103.567507,60.9445162 L103.706443,60.9445162 C104.217013,60.9445162 104.69344,60.6724051 105.134147,60.127653 C105.534409,59.9400632 106.370388,58.4210632 107.641559,55.5695932 C107.856135,54.8200291 107.972221,54.4453795 107.989555,54.4453795 C107.977999,54.4453795 108.013193,54.4657812 108.094348,54.5065846 C108.529278,55.0751829 109.817784,55.3586872 111.95934,55.3586872 C112.878838,55.3586872 113.983759,55.1477812 115.270163,54.7294137 C115.002272,55.2622427 114.856507,55.7948068 114.838385,56.3263111 C114.838385,56.525559 114.878832,56.7507726 114.959987,57.0024821 C115.37233,57.8924735 115.972722,58.3376017 116.761951,58.3376017 L116.796882,58.3376017 C117.82984,58.3376017 118.785057,57.7433026 119.660695,56.5547043 C120.049925,55.8462085 120.235611,55.4919607 120.218277,55.4919607 L120.288401,55.5359436 C120.978879,56.9587641 122.101659,57.6701744 123.657268,57.6701744 L123.796467,57.6701744 C123.93514,57.6701744 124.132644,57.6582513 124.388454,57.634935 C125.338681,57.3893197 126.146295,57.0257983 126.816812,56.5478154 C126.770062,56.7467983 126.723838,56.9463111 126.676038,57.1519179 C126.752203,57.5620718 126.943141,57.7668838 127.250691,57.7668838 L127.320553,57.7668838 C127.471308,57.7668838 127.654367,57.6587812 127.869205,57.4417812 C129.296647,55.3931316 130.178588,54.1748581 130.515028,53.7880205 C131.072347,53.0448154 131.609443,52.6736103 132.125791,52.6736103 L132.291779,52.6736103 C132.419158,52.6844735 132.538134,52.7488581 132.648179,52.8662342 C132.741154,53.0191145 133.042925,53.8884393 133.553495,55.4744735 C134.069843,56.8853709 135.056839,57.591747 136.513433,57.591747 C137.01271,57.591747 137.680075,57.4481402 138.516316,57.1609265 C139.06707,57.0618325 139.810337,56.5486103 140.744543,55.6239094 C141.355966,54.9209778 141.84605,54.2562 142.218734,53.6287812 C142.514203,54.4512085 142.900544,55.1199607 143.380385,55.6305333 C144.157796,56.854106 145.214129,57.4661573 146.549384,57.4661573 L147.106966,57.4661573 C147.935854,57.4661573 148.853251,57.1876872 149.857056,56.6320718 C150.373666,56.3451231 150.269924,54.9543624 149.526131,55.4106188 C148.661525,56.0902342 147.762512,56.4293795 146.827518,56.4293795 L146.722988,56.4293795 C146.125485,56.4293795 145.547943,56.2160889 144.990886,55.7887128 C144.10842,54.7641231 143.542696,53.8712171 143.293452,53.1099949 L143.215186,52.6969265 L143.215186,52.5742513 C143.215186,52.3577812 143.493583,51.8601915 144.050377,51.0809521 C145.019776,49.4125162 145.794298,47.8964308 146.374992,46.5316359 C146.561203,45.812012 146.861924,45.4511402 147.280045,45.4511402 C147.99416,45.4511402 149.543465,45.1090803 151.929276,44.4239009 C153.386133,44.1433111 154.114167,43.815294 154.114167,43.4403795 C154.114167,43.0948752 153.905895,42.9049009 153.487774,42.8691316 Z" id="Fill-36"></path>
                <path d="M143.05597,50.4016568 C143.061778,50.3947928 143.067586,50.3866088 143.07313,50.3792168 L143.021122,50.2707128 C143.029042,50.3301128 143.041186,50.3739368 143.05597,50.4016568" id="Fill-38"></path>
                <path d="M171.789417,38.413839 L171.722097,38.272335 C171.738729,38.318271 171.756681,38.363943 171.771729,38.413839 L171.789417,38.413839 Z" id="Fill-40"></path>
                <path d="M166.416532,49.8039111 C166.424188,49.8638391 166.43554,49.9076631 166.450852,49.9353831 C166.455868,49.9285191 166.462204,49.9203351 166.467484,49.9124151 L166.416532,49.8039111 Z" id="Fill-42"></path>
                <path d="M165.103575,49.5345556 L165.157695,49.6483396 C165.146079,49.5730996 165.128127,49.5345556 165.103575,49.5345556" id="Fill-44"></path>
                <polygon id="Fill-46" points="165.164873 51.4573364 165.164873 51.2561684 165.068513 51.2561684"></polygon>
                <polygon id="Fill-48" points="198.455088 51.4573364 198.455088 51.2561684 198.35952 51.2561684"></polygon>
                <path d="M205.080428,38.413839 L205.012316,38.272335 C205.030004,38.318271 205.0469,38.363943 205.06274,38.413839 L205.080428,38.413839 Z" id="Fill-50"></path>
                <path d="M199.740778,49.9353831 C199.74685,49.9285191 199.752394,49.9203351 199.75873,49.9124151 L199.70725,49.8039111 C199.714114,49.8638391 199.726786,49.9076631 199.740778,49.9353831" id="Fill-52"></path>
                <path d="M198.394083,49.5345556 L198.448731,49.6483396 C198.437379,49.5730996 198.418635,49.5345556 198.394083,49.5345556" id="Fill-54"></path>
                <path d="M199.786515,49.9736427 C199.769181,49.9736427 199.753948,49.9603949 199.740553,49.9357538 C199.723219,49.9585402 199.707198,49.9792068 199.690652,49.9972239 L199.690652,49.8946855 L199.690652,49.7714803 L199.707198,49.8038051 C199.696692,49.7293521 199.690652,49.6318479 199.690652,49.5086427 C199.690652,48.9933009 200.132673,47.684412 201.014613,45.582506 C201.014613,45.4124034 201.304304,45.3072154 201.885261,45.266147 L202.050723,45.266147 C202.068583,45.266147 202.076462,45.2868137 202.076462,45.3278821 L202.076462,45.4243265 C201.512839,46.7189077 200.999643,47.7986085 200.535823,48.6650188 C200.183625,49.2797197 199.925451,49.6922581 199.758675,49.9127026 L199.786515,49.9736427 Z M203.657547,40.7573692 C203.315066,42.005053 202.99097,43.0124205 202.685521,43.7733778 C202.598325,44.0070701 202.282371,44.1244462 201.736345,44.1244462 C201.686969,44.1244462 201.658341,44.1316 201.646522,44.144053 C201.90312,43.2609504 202.574425,42.1306427 203.657547,40.7573692 Z M203.69274,40.6251556 L203.69274,40.6293949 L203.687488,40.6293949 C203.690902,40.6293949 203.690902,40.6259504 203.69274,40.6251556 Z M178.162419,53.5834205 L178.127488,53.5834205 C178.045544,53.5834205 177.917639,53.5336085 177.74456,53.4342496 C177.262618,53.164788 177.021779,52.8897624 177.021779,52.6081128 C177.021779,52.1926598 177.253426,51.9618821 177.718034,51.9147197 C178.123811,51.9147197 178.327356,52.1751726 178.327356,52.6960786 C178.234644,53.2879932 178.179227,53.5834205 178.162419,53.5834205 Z M177.613241,54.6633863 C177.028082,55.4892581 176.444236,55.9017966 175.864067,55.9017966 C175.736687,55.9017966 175.640299,55.8845744 175.577003,55.8496 C175.193288,55.6850615 175.00235,55.3485658 175.00235,54.839053 C175.009178,54.7820872 175.015482,54.7312154 175.020734,54.6821983 C175.058554,54.6440444 175.094536,54.6069504 175.132618,54.5669419 C175.479301,54.0545145 175.768992,53.6006427 176.005892,53.1997624 C176.202083,53.5977282 176.47943,53.9106427 176.838457,54.1369162 C177.366886,54.4000188 177.6311,54.5407111 177.6311,54.5581983 L177.613241,54.6633863 Z M166.45057,49.9357538 C166.432973,49.9585402 166.416427,49.9792068 166.400406,49.9972239 L166.400406,49.8946855 L166.400406,49.7714803 L166.416427,49.8038051 C166.405396,49.7293521 166.400406,49.6318479 166.400406,49.5086427 C166.400406,48.9933009 166.842427,47.684412 167.724368,45.582506 C167.724368,45.4124034 168.014059,45.3072154 168.594227,45.266147 L168.75969,45.266147 C168.777287,45.266147 168.786216,45.2868137 168.786216,45.3278821 L168.786216,45.4243265 C168.222594,46.7189077 167.708347,47.7986085 167.245578,48.6650188 C166.892591,49.2797197 166.634417,49.6922581 166.467379,49.9127026 L166.496269,49.9736427 C166.478673,49.9736427 166.463702,49.9603949 166.45057,49.9357538 Z M170.366251,40.7573692 C170.02377,42.005053 169.699936,43.0124205 169.395276,43.7733778 C169.30808,44.0070701 168.992125,44.1244462 168.446362,44.1244462 C168.396986,44.1244462 168.367833,44.1316 168.355489,44.144053 C168.612612,43.2609504 169.284442,42.1306427 170.366251,40.7573692 Z M170.402495,40.6251556 C170.402495,40.6264803 170.402495,40.6275402 170.401445,40.6293949 L170.396454,40.6293949 C170.399869,40.6293949 170.400657,40.6259504 170.402495,40.6251556 Z M200.735428,50.6148393 C201.705091,48.9461385 202.479612,47.4295231 203.059781,46.0655231 C203.245467,45.3453692 203.547239,44.9852923 203.965622,44.9852923 C204.679474,44.9852923 206.22878,44.6427026 208.61459,43.9575231 C210.07171,43.6764034 210.799744,43.3489162 210.799744,42.9737368 C210.799744,42.6282325 210.590158,42.4382581 210.173088,42.4030188 L209.920167,42.4030188 C206.780846,43.3404376 204.833643,43.8083521 204.079082,43.8083521 C203.985583,43.802788 203.939096,43.8057026 203.939096,43.8173607 C203.939096,43.8057026 203.945136,43.7906 203.956692,43.7733778 C204.641654,41.8643607 204.985186,40.5032752 204.985186,39.6890615 L205.0125,39.7492068 C204.83732,39.2722838 204.604622,39.0303778 204.314144,39.0303778 L204.070415,39.0303778 C203.600292,39.0303778 202.909289,39.6890615 201.997933,41.006694 C201.887887,41.2758906 201.751578,41.477788 201.58953,41.6129162 C201.455846,41.9406684 201.174035,42.4414376 200.744621,43.114694 C200.401877,43.9752752 200.083297,44.4055658 199.786515,44.4055658 L199.333988,44.4055658 C199.246792,44.4055658 198.585731,44.4405402 197.349753,44.5110188 C197.065315,44.4877026 196.899853,44.4757795 196.852315,44.4757795 C196.481732,44.646147 196.296046,44.8006171 196.296046,44.9418393 L196.296046,45.0112581 C196.296046,45.2221641 196.557372,45.3890872 197.079498,45.5122923 L197.975883,45.5122923 C198.179166,45.5122923 198.413965,45.5242154 198.680806,45.5475316 C198.808448,45.5242154 199.078966,45.5006342 199.490784,45.477053 C199.589273,45.4945402 199.638912,45.4799675 199.638912,45.4330701 L199.638912,45.5032838 C199.638912,45.6084718 199.629719,45.6911385 199.613173,45.749694 C198.863865,47.7048137 198.489867,49.0341043 198.489867,49.736506 L198.448371,49.6485402 C198.467018,49.7706855 198.468594,49.9898051 198.454674,50.3072239 C198.454674,50.3721385 198.457563,50.4073778 198.463341,50.412412 C198.457563,50.4193009 198.454674,50.4685829 198.454674,50.5621128 L198.454674,51.2563009 C198.454674,51.3985829 198.464391,51.5127795 198.481726,51.6018051 C198.085141,52.0461385 197.70983,52.4390701 197.357632,52.7750359 C197.056648,52.9390444 196.875953,53.0943094 196.81896,53.2408308 C194.903273,54.9853094 193.39704,55.8583436 192.299998,55.8583436 C191.934668,55.8583436 191.751609,55.731959 191.751609,55.4802496 C191.751609,54.6604718 192.186538,53.7151043 193.057186,52.6430872 C193.625798,52.0577966 193.911287,51.6685744 193.911287,51.4754205 L193.911287,51.4052068 C193.911287,51.0954718 193.739521,50.9166256 193.39704,50.8697282 L193.039851,50.8697282 C192.529019,51.4608479 192.053643,51.9669162 191.61241,52.3889932 C191.310375,52.5524718 191.130205,52.7080017 191.07295,52.854788 C189.157263,54.5990017 187.65103,55.4717709 186.554251,55.4717709 C186.18892,55.4717709 186.005599,55.3459162 186.005599,55.0939419 C186.005599,54.5611128 186.18892,53.9641641 186.554251,53.3023009 C186.820829,53.0564205 187.102378,52.482788 187.398372,51.5806085 L187.398372,51.3352581 C187.398372,51.0305573 187.2161,50.840053 186.849982,50.7640103 L186.789313,50.7640103 C186.534553,50.7759333 186.406385,50.7989846 186.406385,50.8344889 C186.397456,50.8344889 186.327856,50.9616684 186.20179,51.2123179 C186.151888,51.2396085 186.102512,51.2666342 186.049722,51.2997538 C183.860891,52.9862068 181.858271,53.8293009 180.042124,53.8293009 L179.520261,53.8293009 C179.409427,53.8293009 179.354798,53.7937966 179.354798,53.7241128 C179.447773,53.3317111 179.494522,52.9711043 179.494522,52.6430872 C179.494522,52.3799846 179.441732,52.1160872 179.33799,51.8529846 C179.047248,51.1566769 178.434775,50.8079932 177.500569,50.8079932 C177.151785,50.8079932 176.726047,50.895694 176.220731,51.0713607 C176.18186,51.0970615 176.145616,51.1243521 176.108846,51.1508479 L176.107008,51.1508479 C176.003003,51.1508479 175.886917,51.1916513 175.759537,51.2735231 C175.693352,51.3458564 175.612985,51.4592581 175.519748,51.6081641 C174.701891,52.3195744 174.201301,53.1253094 174.01798,54.0248393 C173.686004,54.3907453 173.320674,54.6988906 172.9212,54.944506 C172.056594,55.6238564 171.156793,55.9635316 170.222588,55.9635316 L170.118057,55.9635316 C169.520554,55.9635316 168.942749,55.7497111 168.38543,55.322335 C167.502438,54.2980103 166.937502,53.4048393 166.688521,52.6430872 L166.609992,52.2305487 L166.609992,52.1078735 C166.609992,51.8916684 166.888126,51.3938137 167.445446,50.6148393 C168.414583,48.9461385 169.189367,47.4295231 169.769273,46.0655231 C169.955484,45.3453692 170.256993,44.9852923 170.675114,44.9852923 C171.389229,44.9852923 172.938797,44.6427026 175.323557,43.9575231 C176.780414,43.6764034 177.509499,43.3489162 177.509499,42.9737368 C177.509499,42.6282325 177.299913,42.4382581 176.88258,42.4030188 L176.629922,42.4030188 C173.489813,43.3404376 171.54261,43.8083521 170.788049,43.8083521 C170.6956,43.802788 170.649113,43.8057026 170.649113,43.8173607 C170.649113,43.8057026 170.655154,43.7906 170.666447,43.7733778 C171.351146,41.8643607 171.69389,40.5032752 171.69389,39.6890615 L171.721992,39.7492068 C171.546812,39.2722838 171.314377,39.0303778 171.022848,39.0303778 L170.779382,39.0303778 C170.309258,39.0303778 169.619044,39.6890615 168.70795,41.006694 C168.597117,41.2758906 168.461332,41.477788 168.298496,41.6129162 C168.164551,41.9406684 167.883527,42.4414376 167.454113,43.114694 C167.111632,43.9752752 166.793051,44.4055658 166.496269,44.4055658 L166.043743,44.4055658 C165.956809,44.4055658 165.294697,44.4405402 164.058457,44.5110188 C163.774282,44.4877026 163.608557,44.4757795 163.562332,44.4757795 C163.191486,44.646147 163.005801,44.8006171 163.005801,44.9418393 L163.005801,45.0112581 C163.005801,45.2221641 163.266338,45.3890872 163.789252,45.5122923 L164.685375,45.5122923 C164.888658,45.5122923 165.123719,45.5242154 165.39056,45.5475316 C165.518203,45.5242154 165.788721,45.5006342 166.200538,45.477053 C166.299028,45.4945402 166.348404,45.4799675 166.348404,45.4330701 L166.348404,45.5032838 C166.348404,45.6084718 166.339474,45.6911385 166.32214,45.749694 C165.57362,47.7048137 165.198834,49.0341043 165.198834,49.736506 L165.157337,49.6485402 C165.175985,49.7706855 165.178611,49.9898051 165.164428,50.3072239 C165.164428,50.3721385 165.166792,50.4073778 165.172308,50.412412 C165.166792,50.4193009 165.164428,50.4685829 165.164428,50.5621128 L165.164428,51.2563009 C165.164428,51.4203094 165.176773,51.5464291 165.20041,51.6388991 C164.743681,52.5924803 164.222343,53.3974205 163.251631,53.933694 C162.476584,54.3616 160.413819,54.4683778 160.366544,53.1796256 C160.340018,52.4562923 159.224591,52.4536427 159.250855,53.1796256 C159.310211,54.7934803 160.963522,55.4113607 162.359447,55.359959 C163.802384,55.3077624 164.863182,54.3260957 165.616167,53.1698222 C165.91111,53.9888051 166.296401,54.6554376 166.775192,55.1644205 C167.552602,56.3882581 168.60841,56.9997795 169.943665,56.9997795 L170.501247,56.9997795 C171.331186,56.9997795 172.247795,56.7215744 173.252125,56.165694 C173.48456,56.0363949 173.739583,55.8551641 174.016404,55.6270359 C174.324479,56.4746342 174.856848,56.903335 175.620076,56.903335 L175.933666,56.903335 C176.838457,56.903335 177.662617,56.4523778 178.405622,55.5507282 C178.684544,55.1172581 178.881786,54.901053 178.997084,54.901053 C179.085331,54.901053 179.206933,54.9124462 179.363465,54.9360274 C181.428594,54.9360274 183.387879,54.3724632 185.237906,53.2490444 C184.973954,54.0346427 184.83922,54.6387453 184.83922,55.0584376 C184.83922,56.1187966 185.410722,56.6481812 186.554251,56.6481812 C187.77342,56.6481812 189.136777,56.0337453 190.6459,54.8038137 C190.605453,54.956694 190.58523,55.1699846 190.58523,55.4452752 C190.58523,56.5048393 191.145176,57.0350188 192.264542,57.0350188 C193.728227,57.0350188 195.526515,56.0483179 197.663081,54.0749162 C198.138457,53.7421299 198.51902,53.3902667 198.803195,53.0211812 C198.817378,53.0068735 198.828671,52.9941556 198.842591,52.9806427 C199.145676,53.8862667 199.551716,54.6170188 200.065437,55.1644205 C200.84311,56.3882581 201.899443,56.9997795 203.234961,56.9997795 L203.792281,56.9997795 C204.621168,56.9997795 205.538828,56.7215744 206.542371,56.165694 C207.058981,55.8787453 207.6859,55.3459162 208.422864,54.5669419 C209.299552,53.2728906 209.825092,52.3360017 209.998696,51.7565402 C209.998696,51.4282581 209.816687,51.2266256 209.450044,51.1508479 L209.398041,51.1508479 C209.293248,51.1508479 209.177162,51.1916513 209.049782,51.2735231 C208.852278,51.490788 208.532909,52.049053 208.092464,52.9509675 C207.581369,53.8234718 206.954188,54.4879846 206.211183,54.944506 C205.346839,55.6238564 204.447039,55.9635316 203.512308,55.9635316 L203.408303,55.9635316 C202.810537,55.9635316 202.232994,55.7497111 201.675675,55.322335 C200.793734,54.2980103 200.227748,53.4048393 199.978504,52.6430872 L199.900237,52.2305487 L199.900237,52.1078735 C199.900237,51.8916684 200.178372,51.3938137 200.735428,50.6148393 Z" id="Fill-56"></path>
            </g>
        </g>
    </g>
</svg>