<?xml version="1.0" encoding="UTF-8"?>
<svg width="426px" height="124px" viewBox="0 0 426 124" version="1.1" xmlns="http://www.w3.org/2000/svg" xmlns:xlink="http://www.w3.org/1999/xlink">
    <!-- Generator: Sketch 56.2 (81672) - https://sketch.com -->
    <title>logo</title>
    <desc>Created with Sketch.</desc>
    <g id="Page-1" stroke="none" stroke-width="1" fill="none" fill-rule="evenodd">
        <g id="logo" fill="#FFFFFF" fill-rule="nonzero">
            <path d="M68.1506501,75.7440222 C68.4532099,75.5325863 68.7042925,75.3614239 68.9511729,75.1839026 C69.2159127,74.9920735 69.46647,74.7785179 69.7422407,74.6036462 C70.077893,74.3922103 70.0463763,74.1818342 69.8057993,73.9200564 C69.4848547,73.5729624 69.1660113,73.2242786 68.8708054,72.8565179 C68.398581,72.2646034 68.4075107,71.6477829 68.8708054,71.2535265 C69.369819,70.8301248 69.9770397,70.9101419 70.5023171,71.4739709 C70.7948967,71.7913897 71.102184,72.0971504 71.3611457,72.441065 C71.5066476,72.6387231 71.5523467,72.7346376 71.7314663,72.4728598 C72.3113726,71.6260564 72.8229928,70.7463983 73.2206279,69.7967915 C73.9591679,68.0395949 74.3090027,66.2023812 74.4019768,64.3036974 C74.5080829,62.1442957 74.3021741,60.0172188 73.5168843,58.0067231 C72.489967,55.3762274 70.7948967,53.245441 68.4920804,51.5926376 C66.6677919,50.2816291 64.6817179,49.3049966 62.5133726,48.8662274 C59.2986747,48.2117829 56.1422826,48.6426034 53.1019768,49.9000906 C49.8536612,51.2439538 47.7719867,53.6868598 46.5396858,56.9389453 C45.8683813,58.7104496 45.5122432,60.5519026 45.3220927,62.4368085 C45.1629337,64.0180735 45.0904454,65.6120564 45.4723221,67.1525179 C46.1656883,69.9520564 47.7940483,72.1464325 50.0753282,73.8580564 C52.5157672,75.6889111 55.258766,76.7921932 58.2376143,77.3443641 C59.2419448,77.5298342 60.2468005,77.6623128 61.3073356,77.5706376 C61.1156094,77.2733556 60.9538239,77.0158171 60.7899374,76.7609282 C60.6108178,76.4837829 60.4148893,76.216706 60.2531038,75.9310821 C59.872803,75.2618 60.0020212,74.6455094 60.5719472,74.3127231 C61.0578289,74.0302786 61.7443665,74.2337658 62.1031309,74.7933556 C62.5012912,75.4138855 62.8842185,76.0444838 63.2597919,76.6793214 C63.5329361,77.1456462 63.797676,77.443988 64.454798,77.2548085 C64.9422555,77.1133214 65.4018732,76.8626718 65.923999,76.8118 C66.2097499,76.7837145 66.1672025,76.5855265 66.0479645,76.3497145 C65.6918264,75.6565863 65.2521692,75.0069111 64.9832271,74.2703299 C64.7668128,73.6741761 64.9585391,73.1696974 65.5163837,72.8883128 C65.9886081,72.651441 66.6178905,72.8522786 66.895237,73.3578171 C67.3186106,74.1330821 67.7193973,74.920535 68.1506501,75.7440222 M59.8491655,46.4863812 C63.377454,46.4598855 66.5947783,47.696706 69.5394836,49.7686718 C71.6211581,51.2338855 73.2920656,53.0822274 74.5248917,55.3216462 C76.0151038,58.0258 76.621274,60.9541077 76.5093899,64.0239026 C76.4158905,66.625253 75.9121494,69.1460564 74.7397302,71.4999368 C73.438618,74.1113556 71.537639,76.1525863 69.0446723,77.6273385 C67.5528843,78.5096462 65.9392321,79.112159 64.2473134,79.4295778 C62.6452173,79.7310991 61.0189583,79.7825009 59.3848202,79.6118684 C57.2022925,79.385065 55.0980311,78.8540906 53.0956735,77.9807915 C49.3493948,76.3475949 46.221893,73.9841761 44.3650372,70.1825692 C43.1416661,67.6781932 42.9499398,65.0153726 43.2335896,62.3038 C43.455782,60.1830821 43.8539423,58.0936291 44.6292518,56.0889624 C45.8436932,52.9518684 47.7541273,50.4284154 50.6956809,48.7432872 C53.5048646,47.1339368 56.5535748,46.5515607 59.8491655,46.4863812" id="Fill-1"></path>
            <path d="M61.2287016,66.2086872 C61.2260752,66.9754735 60.7612047,67.3639009 60.0883243,67.1996274 C59.9218113,67.1598838 59.8319889,67.1084821 59.83409,66.9240718 C59.8356658,66.7131658 59.9139322,66.6225504 60.1324476,66.6522256 C60.5059199,66.7025675 60.7344155,66.5727385 60.6997472,66.147747 C60.6824131,65.9288923 60.6692811,65.7328239 61.0002059,65.7624991 C61.3636979,65.7932342 61.1777497,66.060841 61.2287016,66.2086872" id="Fill-3"></path>
            <path d="M58.8157346,65.0955487 C58.8236138,64.3679761 59.4156015,63.9864376 60.0291255,64.2360274 C60.2087704,64.3096855 60.2087704,64.436865 60.2103462,64.5815316 C60.2166496,64.8242325 60.0380552,64.7622325 59.9067359,64.7579932 C59.6430466,64.7505744 59.4255818,64.7617026 59.3714782,65.1119761 C59.3404868,65.298506 59.6010244,65.6652068 59.1214461,65.6493094 C58.649747,65.6344718 58.9570343,65.2195487 58.8157346,65.0955487" id="Fill-5"></path>
            <path d="M60.4982508,80.0930838 C58.5053482,79.9759726 56.4331287,79.713665 54.3419993,79.3119897 C50.4465418,78.5658701 46.4271189,77.369853 42.0541842,75.6571692 C36.9694986,73.6657504 32.2877009,71.2790154 28.1374838,68.5642632 C26.2669709,67.3412205 22.6036861,63.9174427 22.3216121,63.4935111 L22.2785393,63.3896479 L22.2260116,63.3371863 C22.1430178,63.1946393 22.0116984,62.7924342 22.0059203,62.6318701 C22.1403914,62.2953744 22.5322483,61.9021778 22.8479401,61.584759 L23.0338883,61.3982291 C23.453585,60.9668786 32.452638,53.7335453 36.9500634,51.5073744 C39.5853803,50.2027248 42.4239795,49.0808957 45.3902212,48.1715624 C48.7131263,47.1530667 52.0228994,46.4747761 55.2270917,46.1531179 C58.3976663,45.8378188 61.6039598,45.8097333 64.7614025,46.0683316 C68.1594222,46.3470667 71.6125961,46.9755453 75.0205961,47.9352205 C76.9494148,48.4810325 78.8062705,49.1322974 80.5381102,49.8736479 C83.3614764,51.0802632 85.8208254,52.3785538 88.0569314,53.8432376 C90.7694641,55.6216308 92.8332792,57.2707248 94.5514617,59.0348103 C95.6760806,60.1879043 96.4372076,61.1475795 97.0197403,62.1432889 C97.2435085,62.5274769 97.1599894,62.7569299 96.7544752,63.3477846 C95.5190227,65.155853 93.8948649,66.6353744 91.8410301,68.3014256 C88.690416,70.8545538 85.0596984,73.1686906 81.0471041,75.1770667 C77.8402853,76.7816479 74.5777872,78.0264171 71.3562607,78.8785197 C67.4938957,79.9007248 63.9472224,80.2949812 60.4982508,80.0930838 L60.4982508,80.0930838 Z M100.202396,61.9731863 L100.205548,61.9419214 L100.163526,61.820041 C100.142515,61.7585709 100.122029,61.6971009 100.101543,61.6351009 C100.052692,61.4808957 99.9970128,61.305494 99.9119179,61.1338017 C99.1045665,59.4407248 97.8528303,58.0698359 96.7366158,56.9522462 C94.3875751,54.6010154 91.5468747,52.4495624 88.0537798,50.3738872 C85.2361916,48.7004171 82.1365295,47.2553402 78.8367366,46.0794598 C75.5490252,44.9062291 72.1904012,44.0726735 68.8569906,43.6026393 C66.6802409,43.2963487 64.3390794,43.0086051 61.9763815,42.9784 C61.5435529,42.9725709 61.1123001,42.9699214 60.6826232,42.9699214 C58.3829586,42.9699214 56.5161226,43.0679556 54.8079203,43.2756821 C52.6626873,43.5374598 50.914564,43.8161949 49.307215,44.1542803 C47.9787884,44.4340752 46.5411041,44.8023658 44.7803741,45.3116137 C41.9722409,46.1255624 39.1972002,47.1774427 36.2966182,48.5255453 C34.0830991,49.5535795 31.8669536,50.7570154 29.7096392,52.1003487 C25.9596836,54.4346222 22.9603494,56.7900923 20.5419721,59.3008274 C19.9200436,59.9452034 19.7960782,60.146041 19.1063889,61.2646906 L18.9004801,61.6001265 C17.7874173,63.4002462 20.045585,65.7530667 21.1308081,66.8823145 C21.3656072,67.1292547 26.2837798,70.9578872 28.8413556,72.5073573 C32.5361571,74.7435966 36.5949758,76.7265368 40.9096047,78.398947 C44.1868106,79.6686222 47.2418242,80.6553231 50.2495628,81.4146906 C52.8607169,82.0733744 55.5023371,82.5577162 58.0987835,82.8539385 C59.381511,83.0012547 60.6968057,83.0759726 62.0047465,83.0759726 C64.5707268,83.0759726 67.237035,82.7876991 69.9248797,82.2191009 C72.703072,81.6319556 75.4949216,80.7660752 78.4585369,79.5711179 C80.7508476,78.646947 83.0589166,77.5341265 85.320236,76.2639214 C88.4797798,74.4881778 91.2085961,72.6658017 93.6590153,70.6918701 C95.5925615,69.1328615 97.6006972,67.394212 99.1660239,65.2533573 C99.8215702,64.3917162 100.205548,63.4707248 100.311654,62.5168786 L100.323735,62.4040068 L100.202396,61.9731863 Z" id="Fill-7"></path>
            <path d="M67.359162,61.9486513 C67.0707847,59.6700188 66.0170782,57.8826171 64.1323827,56.5896256 C62.8233914,55.6898308 61.3731004,55.4269932 59.8125011,55.4497795 C58.4830239,55.4704462 57.2402175,55.7640188 56.1045677,56.4253521 C53.539638,57.9191812 52.3078624,60.251335 52.1728661,63.178053 C52.0636084,65.5552496 52.6671522,67.6908051 54.6217095,69.229147 C56.1649746,70.4453009 57.9913642,70.7409932 59.882363,70.7664291 C62.4625258,70.8448564 64.5846466,69.9429419 66.0254826,67.7321385 C67.162183,65.9839504 67.6254777,64.0518821 67.359162,61.9486513" id="Fill-9"></path>
            <path d="M28.5819736,50.2827949 C28.3030513,50.2827949 28.0293818,50.1423675 27.867071,49.8885385 C27.6154631,49.4911026 27.7304989,48.9622479 28.124457,48.707359 L28.484272,48.4752564 C28.8787554,48.2224872 29.402457,48.3401282 29.6540649,48.7391538 C29.9051475,49.1371197 29.7885359,49.6649145 29.3924767,49.9192735 L29.0373891,50.1471368 C28.8960895,50.238812 28.737981,50.2827949 28.5819736,50.2827949" id="Fill-11"></path>
            <path d="M64.9687295,39.7554068 C64.9492942,39.7554068 64.9314348,39.754347 64.9114742,39.7527573 C64.6372794,39.7347402 64.3594076,39.7188427 64.0825864,39.7055949 C63.6145642,39.6822786 63.2547492,39.2816632 63.2757603,38.8105692 C63.2983472,38.3389453 63.7007097,37.9844325 64.1640044,37.9982103 C64.4534323,38.0125179 64.7391832,38.0289453 65.0233583,38.0480222 C65.4908552,38.0798171 65.8448922,38.4862615 65.8128503,38.9573556 C65.7844853,39.4088427 65.4110131,39.7554068 64.9687295,39.7554068 M56.5143891,39.9027231 C56.0831364,39.9027231 55.7159674,39.5736462 55.6718441,39.1327573 C55.6266703,38.663253 55.964949,38.2440906 56.4313953,38.197988 C56.7171462,38.1688427 57.004473,38.142347 57.2891734,38.1190308 C57.7671758,38.0771675 58.1653361,38.4311504 58.2026308,38.9017145 C58.2404508,39.3722786 57.8927171,39.7850821 57.4267961,39.822706 C57.1510254,39.8449624 56.8763053,39.8703983 56.5989588,39.8979538 C56.5705938,39.9016632 56.5417036,39.9027231 56.5143891,39.9027231 M72.5054101,40.8253043 C72.4455285,40.8253043 72.3851216,40.8184154 72.3247147,40.8051675 C72.0536715,40.7468769 71.7836789,40.6885863 71.5089588,40.6334752 C71.0514422,40.5412701 70.7546604,40.0908427 70.8455334,39.6271675 C70.937457,39.165612 71.3839428,38.8646205 71.8419847,38.9573556 C72.1251092,39.0145863 72.406658,39.0739368 72.6845297,39.1348769 C73.1425716,39.2360906 73.4319995,39.6907573 73.3327221,40.151253 C73.2450007,40.5523983 72.895166,40.8253043 72.5054101,40.8253043 M49.0123768,41.198894 C48.6305001,41.198894 48.2843423,40.9360564 48.1897924,40.5449795 C48.0794841,40.0876632 48.3584064,39.6250479 48.8132967,39.512706 C49.092219,39.444347 49.3727171,39.3781077 49.6505889,39.3150479 C50.1091561,39.209065 50.5593189,39.499988 50.6633238,39.9594239 C50.7668035,40.4193897 50.4805273,40.8772359 50.0245864,40.9816291 C49.7545938,41.0425692 49.4851265,41.1077487 49.2135581,41.1745179 C49.1457973,41.1909453 49.0785618,41.198894 49.0123768,41.198894 M79.8015137,43.0085521 C79.7022363,43.0085521 79.6003324,42.9900051 79.5026308,42.9518513 C79.2452449,42.8538171 78.9852326,42.7568427 78.7220686,42.6614581 C78.2813608,42.5024838 78.0512893,42.0128427 78.2104483,41.5682444 C78.3690821,41.1236462 78.8539132,40.8931333 79.294621,41.0521077 C79.56724,41.1522615 79.8367073,41.2518855 80.1030229,41.354159 C80.540579,41.5221419 80.7606703,42.0160222 80.5946826,42.4563812 C80.4665149,42.7971162 80.1445199,43.0085521 79.8015137,43.0085521 M41.7483152,43.4918342 C41.4074101,43.4918342 41.0859403,43.2830479 40.9567221,42.9423128 C40.7891586,42.5024838 41.0081993,42.0070137 41.4457554,41.8390308 C41.7136469,41.7346376 41.9815383,41.6344838 42.2489046,41.5353897 C42.6880365,41.372706 43.1749687,41.6000393 43.3351783,42.0430479 C43.497489,42.4855265 43.2716197,42.9767573 42.8319625,43.1399709 C42.5724755,43.2358855 42.3124631,43.3349795 42.0503497,43.4351333 C41.9510723,43.474347 41.8491684,43.4918342 41.7483152,43.4918342 M86.7073361,46.2399709 C86.5665618,46.2399709 86.4273633,46.2055265 86.2960439,46.1323983 C86.0575679,45.9993897 85.8159403,45.8647915 85.5648577,45.7301932 C85.1530402,45.5070991 84.9970328,44.9888427 85.2186999,44.5728598 C85.4377406,44.1574068 85.9509366,44.0000222 86.3632794,44.2225863 C86.6243423,44.3619538 86.8748996,44.5013214 87.1186284,44.6390991 C87.5267689,44.8685521 87.6754224,45.3889282 87.4490279,45.8012017 C87.2924952,46.0820564 87.0051684,46.2399709 86.7073361,46.2399709 M34.8062486,46.6448256 C34.4994866,46.6448256 34.2042806,46.4757829 34.053526,46.1822103 C33.837637,45.761988 34.0009983,45.2469111 34.4164927,45.0291162 C34.6717776,44.8966376 34.9249613,44.7668085 35.178145,44.6385692 C35.5973164,44.4255436 36.1052597,44.5956462 36.3153707,45.0169282 C36.5265322,45.4392701 36.3573928,45.9516974 35.9408478,46.1641932 C35.6918663,46.2903128 35.4444607,46.4185521 35.1949539,46.5478513 C35.0699379,46.6135607 34.9375679,46.6448256 34.8062486,46.6448256" id="Fill-13"></path>
            <path d="M92.6848358,50.281735 C92.488382,50.281735 92.2882513,50.2123162 92.1280417,50.071359 C92.1222636,50.065 92.0203598,49.9765043 91.8312599,49.8212393 C91.4672427,49.5244872 91.4089369,48.986094 91.7046681,48.6193932 C91.9988234,48.2532222 92.53198,48.1959915 92.8949467,48.4922137 C93.1255435,48.6808632 93.2442562,48.7847265 93.2442562,48.7847265 C93.5951416,49.0947265 93.6303351,49.6341795 93.3219973,49.9902821 C93.1549591,50.182641 92.9222612,50.281735 92.6848358,50.281735" id="Fill-15"></path>
            <path d="M101.655051,71.3241111 C101.394513,71.3241111 101.139229,71.2043504 100.972716,70.9786068 C100.694844,70.599188 100.77311,70.0639744 101.150259,69.7825897 L101.486962,69.5298205 C101.862536,69.2468462 102.393591,69.3231538 102.671988,69.7020427 C102.953537,70.0793419 102.875796,70.6150855 102.502324,70.8980598 L102.158792,71.1561282 C102.005936,71.269 101.830494,71.3241111 101.655051,71.3241111" id="Fill-17"></path>
            <path d="M95.0860365,75.8656376 C94.8050131,75.8656376 94.5287171,75.7241504 94.3690328,75.4650222 C94.1190007,75.0659966 94.238764,74.5376718 94.6348232,74.2870222 C94.8817036,74.1312274 95.1280587,73.9738427 95.3749391,73.8138085 C95.7683719,73.5605094 96.2915482,73.6739111 96.5457825,74.071347 C96.7989662,74.4687829 96.6834052,74.9971077 96.2899724,75.2530564 C96.0373139,75.4152103 95.7867566,75.5763043 95.5351487,75.7352786 C95.3959502,75.8237744 95.2399428,75.8656376 95.0860365,75.8656376 M28.3705494,78.114065 C28.2113904,78.114065 28.0522313,78.0695521 27.9093559,77.9757573 C27.6514446,77.8067145 27.4014126,77.6392615 27.1592597,77.4728684 C26.7710797,77.2089709 26.6702264,76.6769368 26.9328651,76.2863897 C27.1944533,75.8963726 27.7218318,75.7930393 28.1089613,76.0585265 C28.343235,76.2190906 28.5848626,76.3801846 28.8338441,76.5433983 C29.2257011,76.8014667 29.3360094,77.3303214 29.0812498,77.7261675 C28.9184138,77.977347 28.6478959,78.114065 28.3705494,78.114065 M88.1670821,79.8357573 C87.8587443,79.8357573 87.560912,79.6651248 87.4112079,79.3673128 C87.1984705,78.9465607 87.3649835,78.4325436 87.782579,78.218988 C88.039965,78.0865094 88.3005026,77.9513812 88.5599896,77.8141333 C88.9754841,77.5952786 89.4850032,77.7563726 89.7029933,78.175535 C89.9204582,78.5936376 89.7602486,79.1103043 89.3458047,79.3286291 C89.0789637,79.4695863 88.8147492,79.6068342 88.5500094,79.7424923 C88.4255186,79.806612 88.2957751,79.8357573 88.1670821,79.8357573 M35.3252227,82.020065 C35.2049342,82.020065 35.0825445,81.9946291 34.9664582,81.9395179 C34.6917381,81.8096889 34.4217455,81.6788 34.1549046,81.5479111 C33.7352079,81.3401846 33.5608158,80.8277573 33.7677751,80.4038256 C33.9731586,79.9804239 34.4800513,79.8055521 34.9023744,80.0127487 C35.159235,80.140988 35.4208232,80.2671077 35.6860883,80.3926974 C36.1094619,80.5930051 36.2917332,81.1017231 36.092653,81.5293641 C35.948727,81.8393641 35.6435408,82.020065 35.3252227,82.020065 M80.8988182,83.1095692 C80.5589637,83.1095692 80.2359181,82.9007829 80.1072252,82.5611077 C79.9396617,82.1202188 80.1576518,81.6247487 80.5946826,81.4567658 C80.8657258,81.3523726 81.1378195,81.2442701 81.4104385,81.1351077 C81.8432671,80.9607658 82.3375531,81.1743214 82.5087936,81.6141504 C82.6826604,82.0518598 82.4709736,82.5489197 82.0360439,82.7232615 C81.7571216,82.8356034 81.4797751,82.9452957 81.2029539,83.0523385 C81.1015753,83.0915521 80.9991462,83.1095692 80.8988182,83.1095692 M42.7468676,84.921347 C42.6649243,84.921347 42.5814052,84.9080991 42.4984113,84.8826632 C42.210034,84.7931077 41.9237578,84.7019624 41.6411586,84.6092274 C41.1957233,84.4635009 40.9530451,83.9807487 41.0980217,83.532441 C41.2419477,83.0846632 41.7188996,82.8387829 42.1653855,82.9829197 C42.4401055,83.074065 42.7169268,83.1625607 42.9958491,83.2489368 C43.4428602,83.3872444 43.6939428,83.8657573 43.5563201,84.3172444 C43.444436,84.6850051 43.109309,84.921347 42.7468676,84.921347 M73.3159132,85.5461162 C72.9377134,85.5461162 72.5926062,85.2885778 72.4959551,84.9017402 C72.3809194,84.4433641 72.6551142,83.979159 73.1084286,83.8625778 C73.3884015,83.7910393 73.6710007,83.7168513 73.9541253,83.6410735 C74.4053386,83.5186632 74.8696838,83.7894496 74.9910229,84.245706 C75.112362,84.7019624 74.8439453,85.169347 74.3911561,85.2917573 C74.101203,85.3701846 73.8123004,85.4459624 73.5249736,85.5201504 C73.4551117,85.5381675 73.3852498,85.5461162 73.3159132,85.5461162 M50.5010131,86.7288855 C50.4563645,86.7288855 50.4122412,86.7251761 50.3686432,86.719347 C50.0702856,86.6721846 49.7750797,86.6223726 49.4814496,86.5715009 C49.0207813,86.4914838 48.7119181,86.0490051 48.7907097,85.5837402 C48.8710772,85.1179453 49.311785,84.8105949 49.7703522,84.8874325 C50.0545273,84.9367145 50.341854,84.9844068 50.6302313,85.0299795 C51.0930007,85.1031077 51.4092178,85.5402872 51.3362042,86.0076718 C51.2705445,86.4284239 50.9096789,86.7288855 50.5010131,86.7288855 M65.4887541,87.0060308 C65.0664311,87.0060308 64.6997874,86.6833128 64.6498861,86.2477231 C64.5963078,85.7782188 64.9298589,85.3548171 65.3947295,85.3018256 C65.6815309,85.2689709 65.9688577,85.2318769 66.2593361,85.194253 C66.721055,85.1333128 67.147055,85.4597402 67.209563,85.9281846 C67.272071,86.3966291 66.9448232,86.8263897 66.4804779,86.8873299 C66.1826456,86.9276034 65.884288,86.9646974 65.5880316,86.9996718 C65.5544138,87.0039111 65.5228972,87.0060308 65.4887541,87.0060308 M58.4285001,87.3870393 L58.4190451,87.3870393 C58.119637,87.3849197 57.8202289,87.3796205 57.5223965,87.3711419 C57.0548996,87.3600137 56.6856296,86.9668171 56.6956099,86.4951932 C56.7076912,86.0225094 57.0937702,85.6277231 57.5654693,85.6621675 C57.8533213,85.6690564 58.1453756,85.6754154 58.435854,85.677535 C58.9033509,85.6828342 59.2799748,86.068612 59.2757726,86.5412957 C59.2705199,87.0102701 58.8933707,87.3870393 58.4285001,87.3870393" id="Fill-19"></path>
            <path d="M22.0529327,73.2114547 C21.8438723,73.2114547 21.6358624,73.1346171 21.4725011,72.9788222 C21.2576626,72.775335 21.1478797,72.6635231 21.1478797,72.6635231 C20.8195813,72.3275573 20.8232582,71.7870444 21.1552335,71.4558479 C21.4887847,71.1235915 22.0245677,71.1251812 22.3528661,71.4616769 C22.3586441,71.467506 22.4537194,71.5634205 22.632839,71.734053 C22.9742693,72.0567709 22.9895023,72.5983436 22.6701337,72.9417282 C22.5030954,73.1208393 22.2782767,73.2114547 22.0529327,73.2114547" id="Fill-21"></path>
            <path d="M116.848071,62.247788 C116.343279,65.3599761 64.5882185,118.787549 61.1986032,118.389053 C57.8079374,117.989497 5.73350826,64.1613094 5.54659768,62.247788 C5.36318767,60.3347966 58.083708,5.76419829 61.1986032,6.10705299 C64.3119226,6.44884786 117.353913,59.1350701 116.848071,62.247788 L116.848071,62.247788 Z M94.0158363,90.8578735 L95.2055896,89.6586769 L98.9996686,93.4846598 C99.7387339,94.2297197 101.023037,94.2307795 101.762628,93.4846598 C102.523755,92.7162838 102.523755,91.4656855 101.762628,90.6973094 L97.9680237,86.8697368 C97.9680237,86.8697368 122.040438,64.3006769 122.37504,62.247788 C122.709116,60.1948991 95.9572617,35.5967966 95.9572617,35.5967966 L99.8574466,31.6616513 C100.619099,30.8938051 100.619099,29.6432068 99.8574466,28.8743009 C99.117856,28.129241 97.8319768,28.129241 97.093962,28.8743009 L93.1943023,32.8094462 L92.3564848,31.9642325 L100.986268,23.2582667 C101.748971,22.4893607 101.748971,21.2382325 100.986268,20.4703863 C100.247728,19.7242667 98.960798,19.7242667 98.2233085,20.4703863 L89.5935255,29.1763521 L88.4032469,27.9760957 L92.2330446,24.1124889 C92.9936464,23.3446427 92.9936464,22.0940444 92.2330446,21.3251385 C91.4939793,20.5800786 90.2065243,20.5800786 89.4685095,21.3251385 L85.639237,25.1882154 C85.639237,25.1882154 63.4798831,0.336283761 61.1986032,0.528504594 C58.9157475,0.725241026 36.0147018,25.9353949 36.0147018,25.9353949 L32.0798486,21.9652752 C31.3423591,21.2207453 30.0554293,21.2207453 29.316364,21.9652752 C28.555237,22.7341812 28.555237,23.9847795 29.316364,24.7531556 L33.2517425,28.7232752 L32.4149756,29.567959 L23.749999,20.8264889 C23.0109337,20.0814291 21.7224281,20.0824889 20.9870397,20.8254291 C20.6167191,21.1974291 20.4134367,21.693959 20.4134367,22.2201641 C20.4134367,22.7468991 20.6167191,23.2423692 20.9859891,23.6138393 L29.6509657,32.3558393 L28.4612123,33.5555658 L24.5967462,29.6580444 C23.8587314,28.9135145 22.5718017,28.9124547 21.8332617,29.6580444 C21.0721346,30.4264205 21.0721346,31.6764889 21.8332617,32.4459248 L25.698253,36.3439761 C25.698253,36.3439761 0.905158076,60.3920274 0.0211161529,62.247788 C-0.864501603,64.1040786 26.4388942,88.8993094 26.4388942,88.8993094 L22.328073,93.0458906 C21.9582777,93.4178906 21.75447,93.9133607 21.75447,94.4400957 C21.75447,94.9678906 21.9582777,95.4633607 22.3270224,95.8348308 C23.0655625,96.5793607 24.351967,96.5793607 25.0915576,95.8348308 L29.2023788,91.6866598 L30.0386205,92.5313436 L21.197676,101.451395 C20.4360237,102.220831 20.4360237,103.470899 21.197676,104.238745 C21.9351655,104.984335 23.2231457,104.984335 23.96011,104.238745 L32.8026303,95.3197538 L33.9934343,96.5200103 L29.9514244,100.596643 C29.1902974,101.365019 29.1902974,102.616147 29.9530002,103.385053 C30.6931162,104.130113 31.9789953,104.129053 32.7164848,103.383993 L36.7563936,99.3073607 C36.7563936,99.3073607 59.1909928,124.216523 61.1986032,123.965874 C63.2062136,123.713634 87.6510496,97.2783179 87.6510496,97.2783179 L91.5165662,101.177959 C92.2556316,101.921959 93.5399349,101.923019 94.2795255,101.176899 C95.0406525,100.407993 95.0406525,99.1579248 94.2795255,98.3884889 L90.4140089,94.4909675 L91.2518264,93.6457538 L99.8474663,102.316215 C100.587057,103.061805 101.87136,103.060745 102.610426,102.316215 C103.371027,101.547309 103.371027,100.297771 102.610426,99.528335 L94.0158363,90.8578735 Z" id="Fill-23"></path>
            <path d="M54.1600432,61.2645316 C54.176852,60.7595231 54.5912959,60.1750274 54.9742232,59.612788 C55.464307,58.8910444 56.0678508,58.3208564 56.7848545,57.982241 C57.067979,57.8476427 57.3421739,57.8110786 57.5538607,58.1237282 C57.7671233,58.4369077 57.641582,58.7553863 57.4981813,59.0542581 C56.871,60.3583778 56.0767805,61.4468222 55.0225487,62.1955915 C54.4977965,62.5670615 54.1652959,62.3296598 54.1600432,61.2645316" id="Fill-26"></path>
            <path d="M325.946467,52.4355726 C325.946467,53.1472479 325.53465,54.5123077 324.71049,56.5291624 C321.829868,62.5611795 318.997572,65.577453 316.213602,65.577453 L315.626867,65.577453 C313.918665,65.0634359 313.066665,63.8075385 313.066665,61.8097607 C313.066665,60.5835385 313.527858,59.2979658 314.449195,57.9530427 C316.782477,53.7407521 320.00558,51.6746154 324.12428,51.7541026 C325.338721,51.8118632 325.946467,51.8039145 325.946467,51.7233675 L325.946467,52.4355726 Z M204.33266,20.9422222 C206.783079,17.4416068 208.105727,15.6918291 208.302181,15.6918291 C208.345779,15.6918291 208.374144,15.6833504 208.390953,15.6669231 L208.390953,15.6918291 C207.782682,18.0255726 206.822475,20.5967179 205.508756,23.405265 C202.744746,29.3376581 199.6766,34.4799487 196.304319,38.8300171 C194.436433,41.6565812 193.115885,43.5187009 192.338475,44.4211453 C193.354887,41.6231966 195.156063,37.4776752 197.746206,31.9782222 C197.746206,31.1075726 199.94134,27.4294359 204.33266,20.9422222 L204.33266,20.9422222 Z M327.416719,59.5851795 L327.652043,59.7324957 C329.9848,64.5393504 333.777829,66.941453 339.031654,66.941453 L339.501777,66.941453 C339.972425,66.941453 340.639528,66.9027692 341.502033,66.8227521 C343.905703,66.2016923 346.03938,65.3575385 347.913044,64.2961197 C347.851062,64.7550256 347.819545,65.1725983 347.819545,65.5440684 C347.819545,69.1241709 349.712645,70.9142222 353.494117,70.9142222 C358.434877,70.9142222 364.512862,67.5826496 371.725972,60.9173846 C372.10102,60.6534872 372.457158,60.3874701 372.796487,60.1166838 C372.166154,62.5193162 371.53372,65.106359 370.900236,67.8794017 C371.15552,69.2635385 371.803713,69.9561368 372.842186,69.9561368 L373.078036,69.9561368 C373.58703,69.9561368 374.204756,69.5894359 374.930689,68.8576239 C379.753261,61.9369402 382.732635,57.8221538 383.869335,56.5175043 C385.751404,54.0067692 387.563612,52.7503419 389.310159,52.7503419 L389.868529,52.7503419 C390.299782,52.7906154 390.700568,53.0068205 391.072465,53.4026667 C391.387631,53.9172137 392.407195,56.854 394.13063,62.2130256 C395.875602,66.9796068 399.209012,69.3621026 404.129811,69.3621026 C405.816477,69.3621026 408.070443,68.8777607 410.892758,67.9096068 C412.755392,67.5725812 415.264117,65.8429402 418.419459,62.7175043 C422.478277,58.050547 424.978073,53.8785299 425.918319,50.1993333 L425.918319,49.9916068 C425.918319,49.2794017 425.508078,48.676359 424.684443,48.1819487 L424.007885,48.1819487 C423.085498,48.1819487 422.222467,48.9338974 421.419843,50.436735 C420.909274,52.7906154 418.921099,56.0336923 415.451641,60.1670256 C411.842985,63.884906 408.186529,65.7433162 404.482273,65.7433162 L404.366186,65.7433162 C402.483592,65.7433162 400.992329,65.2091624 399.895025,64.1413846 C398.994174,63.9442564 397.622674,60.7796068 395.778425,54.6484957 C394.720517,50.9698291 392.641469,49.1310256 389.543908,49.1310256 L389.074309,49.1310256 C386.348645,49.1310256 383.762179,50.6047179 381.311234,53.5510427 C379.516887,55.9314188 378.229957,57.5863419 377.448344,58.5168718 C378.247291,55.0332137 378.956941,52.3831111 379.577293,50.5845812 L379.577293,49.6052991 C379.359829,49.0711453 378.85136,48.6366154 378.046635,48.3006496 C377.321752,48.3006496 376.626285,48.7457778 375.959182,49.6360342 C375.726485,50.2957778 375.492211,50.9814872 375.260038,51.6926325 C373.633254,53.561641 372.109949,55.1747009 370.695903,56.5275726 C369.676339,57.0808034 369.069118,57.604359 368.87424,58.0992991 C362.386014,63.9935385 357.338097,66.9388034 353.730492,66.9388034 C352.416773,66.9388034 351.760176,66.5143419 351.760176,65.664359 C351.760176,63.9760513 352.309091,62.093265 353.397991,60.0218291 C353.559252,59.8188718 353.687945,59.6206838 353.795626,59.4283248 C354.642374,58.5142222 355.532719,56.6388547 356.464561,53.7969231 L356.464561,52.9670769 C356.464561,51.9395726 355.846309,51.2967863 354.610332,51.0387179 L354.406524,51.0387179 C353.543493,51.0784615 353.11224,51.1579487 353.11224,51.2761197 C353.038176,51.2761197 351.904102,53.5489231 349.715797,58.0796923 C345.890201,61.4923419 342.365064,63.2039658 339.149841,63.2039658 C335.443483,63.2039658 332.857017,61.4737949 331.386766,58.0123932 C330.582041,54.0772479 330.063067,51.8415385 329.828793,51.3079145 C328.906406,49.271453 327.290127,48.2428889 324.97628,48.223812 L323.387841,48.1628718 C319.937293,48.223812 316.908544,49.4993162 314.303168,51.9909744 C311.647365,54.8302564 310.038965,57.6631795 309.47009,60.4892137 C308.700559,60.7822564 307.939957,61.1934701 307.335888,61.6921197 C304.376475,64.6580513 301.248973,66.1407521 297.955483,66.1407521 L297.603022,66.1407521 C296.426926,66.1407521 294.574273,65.2414872 292.044536,63.4424274 C290.967192,62.5124274 290.055311,61.3662222 289.310467,60.0006325 C287.761949,57.2132821 285.781654,55.818547 283.37063,55.818547 C281.624608,55.818547 279.831836,56.6091795 277.989163,58.1904444 C277.31103,59.2778291 276.823572,60.0202393 276.514184,60.4335726 C275.580766,57.2805812 273.868887,55.6998462 271.373819,55.6998462 L270.197723,55.6998462 C269.138238,55.6998462 267.697927,56.302359 265.874689,57.5084444 C265.026891,58.2731111 264.443308,58.8353504 264.11501,59.2062906 C264.335101,58.5502564 264.702795,57.5773333 265.227547,56.2631453 C266.75558,53.2574701 267.520909,51.5760513 267.520909,51.2199487 L267.520909,50.8638462 C267.520909,50.2904786 266.991954,49.885094 265.934046,49.6482222 C264.81573,49.6482222 263.816652,50.6179658 262.934186,52.5558632 C262.849091,52.7275556 262.768199,52.8987179 262.684154,53.0688205 L262.093742,53.0688205 C260.369256,55.0676581 258.760857,56.7776923 257.272221,58.2015726 C256.251607,58.7558632 255.643861,59.2794188 255.448983,59.774359 C248.980716,65.6680684 243.892879,68.6133333 240.187047,68.6133333 C238.95212,68.6133333 238.334919,68.1899316 238.334919,67.338359 C238.334919,64.5695556 239.80517,61.3752308 242.746199,57.7564444 C244.666613,55.7788034 245.62682,54.4635556 245.62682,53.8117607 L245.62682,53.5738291 C245.62682,52.5256581 245.047964,51.9231453 243.892879,51.7641709 L242.686317,51.7641709 C240.961831,53.7619487 239.352906,55.4719829 237.864795,56.8963932 C236.845757,57.4501538 236.237486,57.9737094 236.041557,58.4686496 C229.571715,64.362359 224.485454,67.3086838 220.780147,67.3086838 C219.545219,67.3086838 218.928018,66.8831624 218.928018,66.0326496 C218.928018,65.1 219.097158,64.1074701 219.428608,63.0587692 C220.139834,61.826188 220.754933,60.6142735 221.270756,59.4251453 C222.024529,58.4172479 222.81192,56.6653504 223.632403,54.1673333 L223.632403,53.3364274 C223.632403,52.3078632 223.015202,51.6661368 221.77975,51.4085983 L221.574366,51.4085983 C220.711335,51.4483419 220.280083,51.5272991 220.280083,51.6465299 C220.202342,51.6465299 218.967414,54.1270598 216.57425,59.0918291 C216.197626,60.1633162 215.890339,61.1378291 215.647661,62.0233162 C215.205903,62.7519487 214.730001,63.475812 214.212603,64.1938462 C211.879846,66.5471966 209.791343,67.7241368 207.94867,67.7241368 L207.244273,67.7241368 C206.753663,67.7241368 206.302975,67.6250427 205.890633,67.4273846 C204.63627,66.8932308 203.391888,65.2123419 202.156435,62.3836581 C200.333197,57.480359 198.069252,55.0273846 195.363547,55.0273846 C193.286075,55.0273846 191.237493,56.2430085 189.217801,58.6763761 C188.127326,60.877641 187.246961,62.3836581 186.572504,63.2076752 C186.826739,60.1076752 187.140329,58.0219316 187.512751,56.9552137 C187.512751,56.2636752 189.689501,53.2585299 194.040374,47.9376581 C198.451654,42.4403248 201.646391,38.0589915 203.626687,34.7963077 C209.585959,24.5514701 212.565333,17.4617436 212.565333,13.5265983 C212.565333,12.0433675 211.702827,11.2029231 209.978342,11.004735 L209.713602,11.004735 C208.674078,11.004735 207.488527,11.587641 206.155372,12.7555726 C204.724517,14.1593162 202.774162,16.6811795 200.304307,20.3201026 C197.069649,24.5514701 192.17774,34.5196923 185.630682,50.2215897 C183.630951,54.1970085 182.631348,59.8538462 182.631348,67.1905128 C182.710665,68.5942564 182.866672,70.0377436 183.102522,71.5209744 C183.298975,74.4084786 184.170936,75.8519658 185.718928,75.8519658 C186.306714,75.6548376 186.846699,75.3384786 187.336783,74.9018291 L188.424633,68.9100855 C190.875052,62.1462564 193.03079,58.7654017 194.893949,58.7654017 L195.011612,58.7654017 C195.050482,58.7654017 195.138203,58.8056752 195.275301,58.8835726 C195.687644,58.8835726 196.550674,60.1203932 197.862818,62.5913846 C199.94134,68.4262735 203.068317,71.3429231 207.244273,71.3429231 C210.346561,71.3429231 213.063296,70.3519829 215.397104,68.3748718 C216.147725,70.3117094 217.939446,71.2846325 220.780147,71.2846325 C224.896746,71.2846325 229.503429,69.2068376 234.600196,65.0538974 C234.463624,65.5684444 234.394813,66.2907179 234.394813,67.2191282 C234.394813,70.7992308 236.286862,72.5887521 240.070435,72.5887521 C245.009619,72.5887521 251.086554,69.2566496 258.301239,62.5913846 C258.351141,62.5569402 258.398416,62.520906 258.448317,62.4859316 C257.361518,65.1408034 256.364016,67.7924957 255.465266,70.4425983 C255.465266,71.6497436 256.082993,72.3317436 257.318445,72.4896581 L257.493888,72.4896581 C258.063289,72.4896581 258.875893,71.926359 259.934327,70.7987009 C265.246457,63.0667179 268.824122,59.1999316 270.667846,59.1999316 L270.784983,59.1999316 C270.844339,59.1999316 270.873229,59.2794188 270.873229,59.4368034 C271.657994,59.4368034 272.245254,60.9899829 272.638687,64.0942222 C272.814129,68.1899316 273.666655,70.2354017 275.196263,70.2354017 L275.784048,70.1172308 C276.352398,70.1172308 277.303676,68.5735897 278.637355,65.4884274 C280.066635,61.4547179 281.606223,59.4368034 283.252968,59.4368034 L283.487767,59.4368034 C284.075552,59.4368034 285.33044,60.9698462 287.25243,64.0359316 C290.917291,67.852906 294.44558,69.7611282 297.838346,69.7611282 L299.485091,69.7611282 C302.391451,69.7611282 305.804179,68.106735 309.718021,64.8133162 C311.10738,67.7331453 313.114465,69.1962393 315.742953,69.1962393 L315.861141,69.1962393 C319.348983,69.1962393 322.574711,67.189453 325.53465,63.1742906 C326.847843,60.7811966 327.4766,59.5851795 327.416719,59.5851795 L327.416719,59.5851795 Z" id="Fill-28"></path>
            <path d="M358.431095,45.9834393 C359.431223,45.8848752 360.068384,45.7359692 360.34363,45.5377812 C362.165292,44.826106 363.077699,43.6799009 363.077699,42.0970462 C362.882821,40.6933026 362.283479,39.9906359 361.283351,39.9906359 C360.813228,39.9906359 360.40141,40.0404479 360.047899,40.1400718 C357.243968,40.7722598 355.842527,41.8803111 355.842527,43.4610462 C355.842527,44.7868923 356.705558,45.6262769 358.431095,45.9834393" id="Fill-30"></path>
            <path d="M283.417485,100.001125 L283.526253,100.229221 C283.502493,100.078213 283.467117,100.001125 283.417485,100.001125" id="Fill-32"></path>
            <path d="M296.78965,77.7602217 L296.653426,77.4772137 C296.68933,77.5690857 296.722594,77.6593737 296.754802,77.7602217 L296.78965,77.7602217 Z" id="Fill-34"></path>
            <path d="M292.000413,88.4789812 C291.826546,88.9474256 291.194637,89.1811179 290.103111,89.1811179 C290.004359,89.1811179 289.947104,89.1954256 289.923466,89.2208615 C290.435612,87.4541265 291.779797,85.1951009 293.94394,82.4469641 C293.259503,84.9433915 292.610785,86.9581265 292.000413,88.4789812 L292.000413,88.4789812 Z M290.782295,91.7824684 C289.656625,94.3689812 288.629182,96.5299726 287.701017,98.2627932 C286.99662,99.4906051 286.481323,100.316742 286.146196,100.759221 L286.203451,100.879511 C286.167732,100.879511 286.137792,100.853545 286.111528,100.804263 C286.076334,100.850366 286.042191,100.891699 286.011725,100.927733 L286.011725,100.723186 L286.011725,100.476776 L286.042191,100.541426 C286.022756,100.39252 286.011725,100.196981 286.011725,99.9495111 C286.011725,98.9188274 286.893666,96.3015795 288.658598,92.0972376 C288.658598,91.7580923 289.237979,91.5466564 290.399367,91.4650496 L290.730818,91.4650496 C290.765486,91.4650496 290.782295,91.5063829 290.782295,91.5879897 L290.782295,91.7824684 Z M239.565644,106.750434 C239.565644,107.172246 239.32139,107.980366 238.834983,109.174793 C237.127831,112.746947 235.451145,114.531699 233.802825,114.531699 L233.455091,114.531699 C232.444457,114.228058 231.940716,113.484588 231.940716,112.301819 C231.940716,111.575306 232.212285,110.814879 232.758048,110.017887 C234.139528,107.523579 236.048911,106.300007 238.486199,106.346109 C239.205303,106.381614 239.565644,106.376315 239.565644,106.328622 L239.565644,106.750434 Z M188.114194,104.973101 C188.114194,105.394913 187.870465,106.202503 187.382482,107.39693 C185.676381,110.969084 183.999695,112.754896 182.350324,112.754896 L182.002591,112.754896 C180.993007,112.449665 180.487691,111.706195 180.487691,110.524485 C180.487691,109.797443 180.760835,109.036485 181.306598,108.240554 C182.687552,105.746776 184.596936,104.522674 187.034748,104.568776 C187.753853,104.60481 188.114194,104.597921 188.114194,104.551289 L188.114194,104.973101 Z M306.975547,85.7382632 L306.469705,85.7382632 C300.191064,87.612041 296.296657,88.5494598 294.787535,88.5494598 C294.600536,88.5372718 294.507562,88.5441607 294.507562,88.566947 C294.507562,88.5441607 294.520169,88.5150154 294.542756,88.4789812 C295.912679,84.660947 296.597641,81.9387761 296.597641,80.3114085 L296.653321,80.4311692 C296.305062,79.4773231 295.838615,78.994041 295.257658,78.994041 L294.770201,78.994041 C293.829429,78.994041 292.447949,80.3114085 290.626287,82.9466735 C290.40462,83.4840068 290.132527,83.8883316 289.80738,84.1575282 C289.540014,84.8135624 288.977441,85.8156308 288.118613,87.1621436 C287.433651,88.883306 286.79649,89.7438872 286.203451,89.7438872 L285.297348,89.7438872 C285.123481,89.7438872 283.800832,89.8143658 281.328351,89.9542632 C280.760001,89.9081607 280.428551,89.8837846 280.335052,89.8837846 C279.59336,90.2239897 279.221989,90.5339897 279.221989,90.8153744 L279.221989,90.9563316 C279.221989,91.3770838 279.743589,91.7109299 280.788366,91.9568103 L282.580613,91.9568103 C282.988228,91.9568103 283.457826,91.9801265 283.992559,92.026759 C284.247318,91.9801265 284.787303,91.9340239 285.612514,91.8868615 C285.808443,91.921306 285.90667,91.8937504 285.90667,91.7988957 L285.90667,91.9393231 C285.90667,92.150759 285.889335,92.3145026 285.855192,92.4310838 C284.357626,96.3423829 283.609631,99.0009641 283.609631,100.405768 L283.525587,100.229836 C283.562356,100.474126 283.567609,100.911836 283.539244,101.547733 C283.539244,101.676503 283.545022,101.746451 283.556578,101.758109 C283.545022,101.770827 283.539244,101.869391 283.539244,102.056451 L283.539244,103.444297 C283.539244,103.472383 283.541345,103.495169 283.541345,103.521135 C283.541345,103.523255 283.539769,103.524315 283.539244,103.524315 L283.539244,103.444297 L283.348043,103.444297 L283.448896,103.658383 C283.386914,103.756417 283.325456,103.86293 283.2661,103.976332 C282.96354,105.368947 281.785868,107.289887 279.730457,109.737562 C277.594679,111.938827 275.430011,113.03999 273.236453,113.03999 L273.167116,113.03999 C272.051952,113.03999 271.170536,112.723631 270.520243,112.091443 C269.986561,111.974332 269.173432,110.100024 268.081905,106.470109 C267.455774,104.291631 266.225049,103.203716 264.391306,103.203716 L264.112909,103.203716 C262.499256,103.203716 260.966497,104.075956 259.515681,105.820434 C258.449893,107.237426 257.692443,108.208759 257.229148,108.75828 C257.702948,106.696913 258.122645,105.128366 258.488763,104.063238 L258.488763,103.485101 C258.361121,103.168742 258.059086,102.910674 257.583185,102.710896 C257.154033,102.710896 256.741691,102.975323 256.347732,103.501528 C255.751543,105.185067 255.156403,107.152639 254.560739,109.390998 C254.491402,109.405306 254.424166,109.420144 254.348001,109.437631 C251.807234,111.896964 249.484457,113.126896 247.384398,113.126896 C245.190314,113.126896 243.657555,112.102041 242.78717,110.052862 C242.311794,107.723887 242.003456,106.399631 241.864258,106.083272 C241.318494,104.877716 240.361439,104.267785 238.992041,104.256656 L238.051794,104.220622 C236.146088,104.255067 234.461523,104.920109 232.991271,106.206742 L232.990221,106.097579 C229.021224,107.842588 225.834366,108.714827 223.431747,108.714827 L223.082963,108.714827 C221.736677,108.714827 220.529589,108.527238 219.462226,108.152058 C218.857631,108.152058 218.289806,107.848947 217.755074,107.238485 C217.221917,105.693255 216.606292,104.920109 215.9103,104.920109 L215.630852,104.920109 C215.015227,104.920109 214.412208,105.746776 213.821271,107.39746 C212.99606,110.12599 211.893503,112.802058 210.511498,115.425665 C209.24663,118.05987 208.289575,119.454075 207.639281,119.604571 L207.552085,119.604571 C207.493779,119.604571 207.349853,118.422862 207.11663,116.056793 L207.222211,116.056793 C206.791483,112.989118 206.513612,111.314058 206.385444,111.033733 C206.385444,110.202297 205.851762,108.749272 204.783348,106.677306 C203.542117,104.862879 202.294058,103.856041 201.041271,103.657323 L200.587957,103.657323 C200.158805,103.657323 199.82788,103.884126 199.595708,104.340913 L199.595708,104.780742 C199.839436,105.178178 200.244951,105.524742 200.813301,105.816725 C201.402137,106.120366 201.996226,106.830451 202.598719,107.941152 C200.172988,110.210246 197.950014,111.349032 195.931372,111.349032 C193.737814,111.349032 192.206105,110.324178 191.33467,108.274998 C190.858768,105.945494 190.551481,104.622297 190.412808,104.305409 C189.867044,103.099323 188.908938,102.490981 187.539015,102.479323 L186.600344,102.444879 C184.55649,102.479323 182.762142,103.234451 181.219402,104.709203 C179.29321,106.770571 178.293607,108.825579 178.22427,110.874759 C178.22427,111.273785 178.306213,111.723152 178.467999,112.227631 C179.29321,114.007614 180.493994,114.89734 182.072453,114.89734 L182.141789,114.89734 C184.207705,114.89734 186.117614,113.708212 187.870465,111.332075 C188.647875,109.915614 189.018721,109.205528 188.984578,109.205528 L189.123777,109.293494 C190.504731,112.140195 192.751868,113.561956 195.862036,113.561956 L196.141483,113.561956 C196.419355,113.561956 196.813313,113.539169 197.325459,113.492007 C199.680803,112.883135 201.60752,111.917631 203.105612,110.594434 C203.294711,110.458246 203.46175,110.327357 203.618808,110.197528 C203.630364,110.225084 203.640869,110.24999 203.652425,110.279135 C204.023797,111.4264 204.366277,113.802537 204.679343,117.410195 C204.853735,120.395733 205.671592,121.889032 207.135015,121.889032 L207.412887,121.889032 C208.434026,121.889032 209.386879,121.34481 210.268295,120.255306 C211.068818,119.880126 212.740776,116.842126 215.283118,111.139186 C215.71227,109.640058 215.944443,108.890759 215.979111,108.890759 C215.955999,108.890759 216.026386,108.931562 216.188697,109.013169 C217.058556,110.150366 219.635567,110.717374 223.918679,110.717374 C225.757676,110.717374 227.967518,110.295562 230.540327,109.458827 C230.004544,110.524485 229.713015,111.589614 229.676771,112.652622 C229.676771,113.051118 229.757663,113.501545 229.919974,114.004964 C230.74466,115.784947 231.945444,116.675203 233.523903,116.675203 L233.593764,116.675203 C235.659681,116.675203 237.570115,115.486605 239.32139,113.109409 C240.099851,111.692417 240.471222,110.983921 240.436554,110.983921 L240.576803,111.071887 C241.957757,113.917528 244.203318,115.340349 247.314536,115.340349 L247.592933,115.340349 C247.87028,115.340349 248.265289,115.316503 248.776909,115.26987 C250.677363,114.778639 252.292591,114.051597 253.633624,113.095631 C253.540125,113.493597 253.447676,113.892622 253.352075,114.303836 C253.504406,115.124144 253.886282,115.533768 254.501382,115.533768 L254.641106,115.533768 C254.942615,115.533768 255.308734,115.317562 255.738411,114.883562 C258.593293,110.786263 260.357175,108.349716 261.030055,107.576041 C262.144694,106.089631 263.218887,105.347221 264.251582,105.347221 L264.583557,105.347221 C264.838317,105.368947 265.076268,105.497716 265.296359,105.732468 C265.482307,106.038229 266.085851,107.776879 267.10699,110.948947 C268.139686,113.770742 270.113678,115.183494 273.026867,115.183494 C274.025419,115.183494 275.360149,114.89628 277.032633,114.321853 C278.134139,114.123665 279.620674,113.097221 281.489086,111.247819 C282.711932,109.841956 283.6921,108.5124 284.437469,107.257562 C285.028406,108.902417 285.801089,110.239921 286.760771,111.261067 C288.315592,113.708212 290.428258,114.932315 293.098768,114.932315 L294.213932,114.932315 C295.871708,114.932315 297.706502,114.375374 299.714112,113.264144 C300.747333,112.690246 300.539848,109.908725 299.052263,110.821238 C297.323049,112.180468 295.525025,112.858759 293.655037,112.858759 L293.445977,112.858759 C292.25097,112.858759 291.095885,112.432178 289.981772,111.577426 C288.21684,109.528246 287.085392,107.742434 286.586904,106.21999 L286.430371,105.393853 L286.430371,105.148503 C286.430371,104.715562 286.987165,103.720383 288.100753,102.161904 C290.039552,98.8250325 291.588596,95.7928615 292.749984,93.0632718 C293.122406,91.6240239 293.723848,90.9022803 294.56009,90.9022803 C295.988319,90.9022803 299.086931,90.2181607 303.858551,88.8478017 C306.772265,88.2866222 308.228334,87.630588 308.228334,86.880759 C308.228334,86.1897504 307.811789,85.8098017 306.975547,85.7382632 L306.975547,85.7382632 Z" id="Fill-36"></path>
            <path d="M286.11194,100.803314 C286.123556,100.789586 286.135172,100.773218 286.14626,100.758434 L286.042244,100.541426 C286.058084,100.660226 286.082372,100.747874 286.11194,100.803314" id="Fill-38"></path>
            <path d="M343.578834,76.8276781 L343.444194,76.5446701 C343.477458,76.6365421 343.513362,76.7278861 343.543458,76.8276781 L343.578834,76.8276781 Z" id="Fill-40"></path>
            <path d="M332.833065,99.6078222 C332.848377,99.7276782 332.871081,99.8153262 332.901705,99.8707662 C332.911737,99.8570382 332.924409,99.8406702 332.934969,99.8248302 L332.833065,99.6078222 Z" id="Fill-42"></path>
            <path d="M330.20715,99.0691111 L330.31539,99.2966791 C330.292158,99.1461991 330.256254,99.0691111 330.20715,99.0691111" id="Fill-44"></path>
            <polygon id="Fill-46" points="330.329746 102.914673 330.329746 102.512337 330.137026 102.512337"></polygon>
            <polygon id="Fill-48" points="396.910176 102.914673 396.910176 102.512337 396.71904 102.512337"></polygon>
            <path d="M410.160856,76.8276781 L410.024632,76.5446701 C410.060008,76.6365421 410.0938,76.7278861 410.12548,76.8276781 L410.160856,76.8276781 Z" id="Fill-50"></path>
            <path d="M399.481557,99.8707662 C399.493701,99.8570382 399.504789,99.8406702 399.517461,99.8248302 L399.414501,99.6078222 C399.428229,99.7276782 399.453573,99.8153262 399.481557,99.8707662" id="Fill-52"></path>
            <path d="M396.788166,99.0691111 L396.897462,99.2966791 C396.874758,99.1461991 396.83727,99.0691111 396.788166,99.0691111" id="Fill-54"></path>
            <path d="M399.57303,99.9472855 C399.538361,99.9472855 399.507895,99.9207897 399.481106,99.8715077 C399.446438,99.9170803 399.414396,99.9584137 399.381303,99.9944479 L399.381303,99.7893709 L399.381303,99.5429607 L399.414396,99.6076103 C399.393385,99.4587043 399.381303,99.2636957 399.381303,99.0172855 C399.381303,97.9866017 400.265345,95.3688239 402.029227,91.165012 C402.029227,90.8248068 402.608608,90.6144308 403.770522,90.532294 L404.101446,90.532294 C404.137165,90.532294 404.152924,90.5736274 404.152924,90.6557641 L404.152924,90.848653 C403.025678,93.4378154 401.999286,95.5972171 401.071646,97.3300376 C400.367249,98.5594393 399.850901,99.3845162 399.51735,99.8254051 L399.57303,99.9472855 Z M407.315094,81.5147385 C406.630132,84.010106 405.98194,86.024841 405.371042,87.5467556 C405.19665,88.0141402 404.564741,88.2488923 403.472689,88.2488923 C403.373937,88.2488923 403.316682,88.2632 403.293044,88.288106 C403.80624,86.5219009 405.14885,84.2612855 407.315094,81.5147385 L407.315094,81.5147385 Z M356.324837,107.166841 L356.254975,107.166841 C356.091089,107.166841 355.835279,107.067217 355.489121,106.868499 C354.525237,106.329576 354.043557,105.779525 354.043557,105.216226 C354.043557,104.38532 354.506852,103.923764 355.436068,103.829439 C356.247621,103.829439 356.654711,104.350345 356.654711,105.392157 C356.469289,106.575986 356.358455,107.166841 356.324837,107.166841 L356.324837,107.166841 Z M355.226482,109.326773 C354.056164,110.978516 352.888472,111.803593 351.728134,111.803593 C351.473375,111.803593 351.280598,111.769149 351.154006,111.6992 C350.386576,111.370123 350.004699,110.697132 350.004699,109.678106 C350.018356,109.564174 350.030963,109.462431 350.041469,109.364397 C350.117109,109.288089 350.189072,109.213901 350.265237,109.133884 C350.958603,108.109029 351.537984,107.201285 352.011784,106.399525 C352.404166,107.195456 352.958859,107.821285 353.676914,108.273832 C354.733772,108.800038 355.262201,109.081422 355.262201,109.116397 L355.226482,109.326773 Z M332.901141,99.8715077 C332.865947,99.9170803 332.832855,99.9584137 332.800813,99.9944479 L332.800813,99.7893709 L332.800813,99.5429607 L332.832855,99.6076103 C332.810793,99.4587043 332.800813,99.2636957 332.800813,99.0172855 C332.800813,97.9866017 333.684855,95.3688239 335.448736,91.165012 C335.448736,90.8248068 336.028117,90.6144308 337.188455,90.532294 L337.51938,90.532294 C337.554573,90.532294 337.572433,90.5736274 337.572433,90.6557641 L337.572433,90.848653 C336.445187,93.4378154 335.416694,95.5972171 334.491155,97.3300376 C333.785182,98.5594393 333.268835,99.3845162 332.934758,99.8254051 L332.992539,99.9472855 C332.957345,99.9472855 332.927404,99.9207897 332.901141,99.8715077 L332.901141,99.8715077 Z M340.732502,81.5147385 C340.04754,84.010106 339.399873,86.024841 338.790551,87.5467556 C338.616159,88.0141402 337.98425,88.2488923 336.892724,88.2488923 C336.793972,88.2488923 336.735666,88.2632 336.710978,88.288106 C337.225224,86.5219009 338.568884,84.2612855 340.732502,81.5147385 L340.732502,81.5147385 Z M401.470857,101.229679 C403.410181,97.8922769 404.959224,94.8590462 406.119562,92.1310462 C406.490933,90.6907385 407.094477,89.9705846 407.931244,89.9705846 C409.358948,89.9705846 412.45756,89.2854051 417.22918,87.9150462 C420.143419,87.3528068 421.599488,86.6978325 421.599488,85.9474735 C421.599488,85.256465 421.180317,84.8765162 420.346176,84.8060376 L419.840334,84.8060376 C413.561693,86.6808752 409.667286,87.6167043 408.158164,87.6167043 C407.971165,87.6055761 407.878191,87.6114051 407.878191,87.6347214 C407.878191,87.6114051 407.890273,87.5812 407.913385,87.5467556 C409.283308,83.7287214 409.970371,81.0065504 409.970371,79.3781231 L410.025,79.4984137 C409.67464,78.5445675 409.209244,78.0607556 408.628287,78.0607556 L408.14083,78.0607556 C407.200583,78.0607556 405.818578,79.3781231 403.995866,82.013388 C403.775774,82.5517812 403.503155,82.9555761 403.179059,83.2258325 C402.911693,83.8813368 402.34807,84.8828752 401.489242,86.229388 C400.803755,87.9505504 400.166593,88.8111316 399.57303,88.8111316 L398.667977,88.8111316 C398.493584,88.8111316 397.171461,88.8810803 394.699506,89.0220376 C394.13063,88.9754051 393.799705,88.951559 393.70463,88.951559 C392.963464,89.292294 392.592092,89.6012342 392.592092,89.8836786 L392.592092,90.0225162 C392.592092,90.4443282 393.114744,90.7781744 394.158995,91.0245846 L395.951767,91.0245846 C396.358332,91.0245846 396.82793,91.0484308 397.361612,91.0950632 C397.616896,91.0484308 398.157932,91.0012684 398.981567,90.954106 C399.178546,90.9890803 399.277824,90.959935 399.277824,90.8661402 L399.277824,91.0065675 C399.277824,91.2169436 399.259439,91.3822769 399.226346,91.499388 C397.72773,95.4096274 396.979735,98.0682085 396.979735,99.473012 L396.896741,99.2970803 C396.934036,99.5413709 396.937187,99.9796103 396.909348,100.614448 C396.909348,100.744277 396.915126,100.814756 396.926682,100.824824 C396.915126,100.838602 396.909348,100.937166 396.909348,101.124226 L396.909348,102.512602 C396.909348,102.797166 396.928783,103.025559 396.963451,103.20361 C396.170282,104.092277 395.419661,104.87814 394.715264,105.550072 C394.113296,105.878089 393.751905,106.188619 393.63792,106.481662 C389.806546,109.970619 386.79408,111.716687 384.599996,111.716687 C383.869335,111.716687 383.503217,111.463918 383.503217,110.960499 C383.503217,109.320944 384.373076,107.430209 386.114371,105.286174 C387.251597,104.115593 387.822573,103.337149 387.822573,102.950841 L387.822573,102.810414 C387.822573,102.190944 387.479042,101.833251 386.79408,101.739456 L386.079703,101.739456 C385.058038,102.921696 384.107286,103.933832 383.22482,104.777986 C382.620751,105.104944 382.260411,105.416003 382.1459,105.709576 C378.314527,109.198003 375.30206,110.943542 373.108502,110.943542 C372.377841,110.943542 372.011197,110.691832 372.011197,110.187884 C372.011197,109.122226 372.377841,107.928328 373.108502,106.604602 C373.641658,106.112841 374.204756,104.965576 374.796744,103.161217 L374.796744,102.670516 C374.796744,102.061115 374.432201,101.680106 373.699964,101.528021 L373.578625,101.528021 C373.069106,101.551867 372.812771,101.597969 372.812771,101.668978 C372.794911,101.668978 372.655713,101.923337 372.40358,102.424636 C372.303777,102.479217 372.205025,102.533268 372.099444,102.599508 C367.721782,105.972414 363.716541,107.658602 360.084248,107.658602 L359.040522,107.658602 C358.818855,107.658602 358.709597,107.587593 358.709597,107.448226 C358.895545,106.663422 358.989044,105.942209 358.989044,105.286174 C358.989044,104.759969 358.883464,104.232174 358.675979,103.705969 C358.094497,102.313354 356.86955,101.615986 355.001138,101.615986 C354.30357,101.615986 353.452095,101.791388 352.441461,102.142721 C352.36372,102.194123 352.291232,102.248704 352.217693,102.301696 L352.214016,102.301696 C352.006006,102.301696 351.773834,102.383303 351.519074,102.547046 C351.386704,102.691713 351.225969,102.918516 351.039496,103.216328 C349.403782,104.639149 348.402603,106.250619 348.035959,108.049679 C347.372009,108.781491 346.641348,109.397781 345.842401,109.889012 C344.113187,111.247713 342.313587,111.927063 340.445175,111.927063 L340.236115,111.927063 C339.041109,111.927063 337.885498,111.499422 336.770859,110.64467 C335.004877,108.596021 333.875005,106.809679 333.377042,105.286174 L333.219984,104.461097 L333.219984,104.215747 C333.219984,103.783337 333.776253,102.787627 334.890891,101.229679 C336.829165,97.8922769 338.378734,94.8590462 339.538546,92.1310462 C339.910968,90.6907385 340.513986,89.9705846 341.350228,89.9705846 C342.778457,89.9705846 345.877594,89.2854051 350.647113,87.9150462 C353.560827,87.3528068 355.018998,86.6978325 355.018998,85.9474735 C355.018998,85.256465 354.599826,84.8765162 353.76516,84.8060376 L353.259843,84.8060376 C346.979626,86.6808752 343.085219,87.6167043 341.576097,87.6167043 C341.3912,87.6055761 341.298226,87.6114051 341.298226,87.6347214 C341.298226,87.6114051 341.310307,87.5812 341.332894,87.5467556 C342.702292,83.7287214 343.387779,81.0065504 343.387779,79.3781231 L343.443984,79.4984137 C343.093624,78.5445675 342.628753,78.0607556 342.045695,78.0607556 L341.558763,78.0607556 C340.618517,78.0607556 339.238088,79.3781231 337.4159,82.013388 C337.194233,82.5517812 336.922665,82.9555761 336.596993,83.2258325 C336.329101,83.8813368 335.767054,84.8828752 334.908226,86.229388 C334.223264,87.9505504 333.586102,88.8111316 332.992539,88.8111316 L332.087486,88.8111316 C331.913619,88.8111316 330.589395,88.8810803 328.116914,89.0220376 C327.548564,88.9754051 327.217113,88.951559 327.124665,88.951559 C326.382973,89.292294 326.011602,89.6012342 326.011602,89.8836786 L326.011602,90.0225162 C326.011602,90.4443282 326.532677,90.7781744 327.578504,91.0245846 L329.370751,91.0245846 C329.777316,91.0245846 330.247439,91.0484308 330.781121,91.0950632 C331.036406,91.0484308 331.577441,91.0012684 332.401076,90.954106 C332.598055,90.9890803 332.696808,90.959935 332.696808,90.8661402 L332.696808,91.0065675 C332.696808,91.2169436 332.678948,91.3822769 332.64428,91.499388 C331.147239,95.4096274 330.397668,98.0682085 330.397668,99.473012 L330.314674,99.2970803 C330.351969,99.5413709 330.357222,99.9796103 330.328857,100.614448 C330.328857,100.744277 330.333584,100.814756 330.344615,100.824824 C330.333584,100.838602 330.328857,100.937166 330.328857,101.124226 L330.328857,102.512602 C330.328857,102.840619 330.353545,103.092858 330.40082,103.277798 C329.487363,105.184961 328.444687,106.794841 326.503261,107.867388 C324.953168,108.7232 320.827639,108.936756 320.733089,106.359251 C320.680036,104.912585 318.449182,104.907285 318.499915,106.359251 C318.620423,109.586961 321.927044,110.822721 324.718894,110.719918 C327.604768,110.615525 329.726364,108.652191 331.232334,106.339644 C331.822221,107.97761 332.592803,109.310875 333.550383,110.328841 C335.105205,112.776516 337.21682,113.999559 339.88733,113.999559 L341.002494,113.999559 C342.662371,113.999559 344.495589,113.443149 346.50425,112.331388 C346.969121,112.07279 347.479165,111.710328 348.032808,111.254072 C348.648958,112.949268 349.713695,113.80667 351.240152,113.80667 L351.867333,113.80667 C353.676914,113.80667 355.325234,112.904756 356.811244,111.101456 C357.369089,110.234516 357.763572,109.802106 357.994169,109.802106 C358.170662,109.802106 358.413866,109.824892 358.726931,109.872055 C362.857187,109.872055 366.775757,108.744926 370.475811,106.498089 C369.947908,108.069285 369.67844,109.277491 369.67844,110.116875 C369.67844,112.237593 370.821444,113.296362 373.108502,113.296362 C375.54684,113.296362 378.273555,112.067491 381.291799,109.607627 C381.210906,109.913388 381.17046,110.339969 381.17046,110.89055 C381.17046,113.009679 382.290351,114.070038 384.529084,114.070038 C387.456455,114.070038 391.05303,112.096636 395.326162,108.149832 C396.276914,107.48426 397.038041,106.780533 397.606391,106.042362 C397.634756,106.013747 397.657343,105.988311 397.685182,105.961285 C398.291353,107.772533 399.103432,109.234038 400.130874,110.328841 C401.686221,112.776516 403.798887,113.999559 406.469922,113.999559 L407.584561,113.999559 C409.242337,113.999559 411.077656,113.443149 413.084741,112.331388 C414.117962,111.757491 415.371799,110.691832 416.845727,109.133884 C418.599104,106.545781 419.650184,104.672003 419.997392,103.51308 C419.997392,102.856516 419.633375,102.453251 418.900088,102.301696 L418.796083,102.301696 C418.586497,102.301696 418.354324,102.383303 418.099565,102.547046 C417.704556,102.981576 417.065819,104.098106 416.184928,105.901935 C415.162739,107.646944 413.908376,108.975969 412.422366,109.889012 C410.693678,111.247713 408.894078,111.927063 407.024615,111.927063 L406.816605,111.927063 C405.621074,111.927063 404.465989,111.499422 403.35135,110.64467 C401.587469,108.596021 400.455496,106.809679 399.957007,105.286174 L399.800475,104.461097 L399.800475,104.215747 C399.800475,103.783337 400.356744,102.787627 401.470857,101.229679 L401.470857,101.229679 Z" id="Fill-56"></path>
        </g>
    </g>
</svg>